<?xml version="1.0" encoding="UTF-8"?>
<svg width="1876px" height="1072px" viewBox="0 0 1876 1072" version="1.1" xmlns="http://www.w3.org/2000/svg" xmlns:xlink="http://www.w3.org/1999/xlink">
    <title>背景条纹</title>
    <defs>
        <rect id="path-1" x="0" y="0" width="1876" height="1072"></rect>
    </defs>
    <g id="需求文件" stroke="none" stroke-width="1" fill="none" fill-rule="evenodd">
        <g id="背景条纹">
            <mask id="mask-2" fill="white">
                <use xlink:href="#path-1"></use>
            </mask>
            <g id="矩形"></g>
            <path d="M2251.43544,-564.479074 L2153.69469,-131.710866 C1894.53394,-59.5965716 1746.22029,-11.2789756 1708.75374,13.2419217 C1652.55392,50.0232677 1738.17125,131.644839 1657.75233,192.870691 C1577.33342,254.096543 1211.01149,311.340749 1151.81997,348.677426 C1092.62844,386.014103 1184.49734,479.536172 1112.62395,536.725348 C1040.75056,593.914524 605.245753,642.659898 540.025081,726.928294 C474.80441,811.196689 530.882886,843.477151 342.729633,979.831625 C217.294131,1070.73461 69.1075953,1132.3023 -101.829975,1164.5347 L-110.524609,1061.16541 C70.3687929,1004.72373 187.757263,958.215878 241.640801,921.641844 C322.466109,866.780794 360.286898,777.898442 450.156481,648.173057 C540.026063,518.447671 863.821679,464.135665 924.910444,419.421695 C985.99921,374.707724 881.504172,308.947037 964.106463,231.373773 C1046.70875,153.800509 1324.04017,95.8060314 1394.23145,28.1944089 C1464.42274,-39.4172135 1343.07142,-148.596067 1415.45238,-203.384311 C1463.70636,-239.909807 1742.36738,-360.274728 2251.43544,-564.479074 Z M1709.82151,-920.778575 L1614.66497,-447.67846 C1350.48771,-344.878166 1199.38098,-278.499701 1161.34476,-248.543065 C1104.29044,-203.60811 1131.44862,-128.465681 1049.90181,-54.9630773 C968.354999,18.5395267 655.729261,119.808014 595.622269,165.63288 C535.515278,211.457746 630.47677,302.546371 557.622596,370.882839 C484.768422,439.219307 67.5856045,586.595092 5.80408644,626.127633 C-55.9774316,665.660175 71.1536422,694.556503 -170.137306,891.6025 C-330.997939,1022.9665 -499.998822,1113.44728 -677.139955,1163.04483 L-687.170446,1053.2036 C-490.806549,938.052001 -365.280415,858.234009 -310.592042,813.749625 C-228.559482,747.023049 -201.167934,636.519201 -112.885199,557.875249 C-24.6024645,479.231298 302.439082,317.696135 364.404442,263.783646 C426.369801,209.871157 318.805386,149.758334 402.404115,58.5336869 C486.002844,-32.6909603 708.108007,-131.962839 779.127325,-211.294826 C850.146642,-290.626813 785.674821,-385.773632 859.074453,-451.589003 C908.007542,-495.465917 1191.58989,-651.862441 1709.82151,-920.778575 Z M2274.71543,169.677796 L2127.16205,432.384416 C1958.62567,458.253766 1860.71539,477.453973 1833.43122,489.985037 C1792.50498,508.781634 1792.76114,555.92613 1732.41819,588.182864 C1672.07523,620.439598 1476.69007,639.208242 1433.87566,658.130618 C1391.06126,677.052995 1426.14324,742.155078 1371.70111,772.524231 C1317.25897,802.893383 1054.09028,835.050454 1011.59052,850.101885 C969.090753,865.153317 1034.5888,898.241084 860.109783,981.807676 C743.79044,1037.51874 631.050918,1068.43025 521.891218,1074.5422 L538.145082,1009.43084 C671.134072,967.6915 757.383804,937.402794 796.89428,918.564718 C856.159993,890.307606 893.519692,829.608353 958.661857,795.22761 C1023.80402,760.846867 1239.27131,708.906971 1284.73798,685.523336 C1330.20465,662.139701 1281.89007,613.421187 1346.91254,571.129724 C1411.935,528.838261 1556.1886,499.625943 1611.79219,462.632403 C1667.39578,425.638863 1650.21051,362.087156 1704.45627,333.252863 C1740.62011,314.03 1930.70649,259.504978 2274.71543,169.677796 Z" id="形状结合" fill="#C5C6FF" opacity="0.049999997" mask="url(#mask-2)"></path>
        </g>
    </g>
</svg>