<?xml version="1.0" encoding="UTF-8"?>
<svg width="18px" height="18px" viewBox="0 0 18 18" version="1.1" xmlns="http://www.w3.org/2000/svg" xmlns:xlink="http://www.w3.org/1999/xlink">
    <title>画板</title>
    <g id="画板" stroke="none" stroke-width="1" fill="none" fill-rule="evenodd">
        <rect id="矩形" x="0" y="0" width="18" height="18" rx="4"></rect>
        <path d="M7.875,10.7840097 L5.29549516,8.2045049 C5.09191017,8.00091991 4.81066017,7.875 4.5,7.875 C3.87867966,7.875 3.375,8.37867966 3.375,9 C3.375,9.31066017 3.50091991,9.59191017 3.70450487,9.79549513 L7.07950487,13.1704951 C7.28308983,13.3740801 7.56433983,13.5 7.875,13.5 C8.18566017,13.5 8.46691017,13.3740801 8.67049513,13.1704951 L14.2954951,7.54549513 C14.4990801,7.34191017 14.625,7.06066017 14.625,6.75 C14.625,6.12867966 14.1213203,5.625 13.5,5.625 C13.1893398,5.625 12.9080898,5.75091991 12.7045049,5.95450487 L7.875,10.7840097 L7.875,10.7840097 Z" id="Icon" fill="#FFFFFF"></path>
    </g>
</svg>