<?xml version="1.0" encoding="UTF-8"?>
<svg width="19px" height="14px" viewBox="0 0 19 14" version="1.1" xmlns="http://www.w3.org/2000/svg" xmlns:xlink="http://www.w3.org/1999/xlink">
    <!-- Generator: Sketch 61 (89581) - https://sketch.com -->
    <title>子管理员</title>
    <desc>Created with Sketch.</desc>
    <g id="子管理员" stroke="none" stroke-width="1" fill="none" fill-rule="evenodd">
        <g id="编组" transform="translate(0.000000, 0.000000)" fill="#43B580">
            <path d="M9.62622985,12.3752553 C9.35253122,11.8539912 8.92286231,9.9148016 8.92286231,9.9148016 C8.92286231,9.9148016 9.06608528,9.41431897 9.35253122,8.41335372 C9.45794565,7.55740679 9.59927406,6.94245606 9.77651646,6.56850154 C9.9449495,6.21325419 10.2206373,5.89407337 10.3217621,5.49228724 C10.3682852,5.30750686 10.4089219,5.11981527 10.4318586,4.93095113 C10.4679079,4.63388735 10.4346192,4.36415651 10.0716498,4.29776496 C10.0722587,4.28033819 10.0730301,4.26311359 10.0736796,4.24572725 C10.2742647,3.55836041 10.2697586,2.95048552 10.1237345,2.42291125 C10.0960074,1.89319402 9.91348756,1.44515214 9.4433446,1.20566544 C9.18539725,0.920529502 8.88064264,0.680638474 8.55542761,0.485668891 C8.1415102,0.201624652 7.65358617,0.0339880088 7.15664981,0.00439080125 C7.14118272,0.00346083434 7.12575621,0.00309693425 7.11028912,0.00245000075 C7.09072182,0.00164133388 7.07115452,0.000590066943 7.05154662,5.56578892e-05 C7.03380614,-0.000178166586 7.01610626,5.56578892e-05 6.99836578,5.56578892e-05 C6.9806253,5.56578892e-05 6.96292542,-0.000137733242 6.94518495,5.56578892e-05 C6.92557705,0.000590066943 6.90596915,0.00164133388 6.88640185,0.00245000075 C6.87097535,0.00309693425 6.85550825,0.00346083434 6.84008175,0.00439080125 C6.3430642,0.0339475755 5.85505898,0.201665085 5.44106038,0.485790191 C5.11592654,0.680678907 4.81133432,0.920529502 4.55342756,1.20554414 C4.08312222,1.4449904 3.90048055,1.89311315 3.87372775,2.39598265 C3.72721657,2.95072812 3.72275101,3.55747088 3.92252421,4.24342255 C3.92321434,4.26161755 3.92406686,4.27961039 3.9247164,4.29784583 C3.56219359,4.36439911 3.5291484,4.63400865 3.56515711,4.93091069 C3.58809388,5.11977484 3.62901471,5.30746642 3.67553779,5.4922468 C3.77666257,5.89403294 4.05287815,6.21321375 4.2213112,6.56846111 C4.48721538,7.12939289 4.77832972,7.73706561 4.64639253,8.41331328 C4.62934219,8.5006493 4.57660791,9.02838531 4.37691589,9.1292665 C3.77572886,9.43292091 1.19897523,11.0818735 0.584066734,11.5889077 C0.342398397,11.7881227 0.0721910311,12.0910898 0.0436114059,12.3752553 C-0.0313289183,13.1197949 0.0130425737,13.2721998 0.0130425737,14 L10.1237345,14 C10.1236534,13.2721998 10.1987155,13.8113188 10.1237345,13.0667792 C10.0951143,12.7826541 9.78954678,12.6862955 9.62622985,12.3752553 Z" id="Fill-3"></path>
            <path d="M18.0923077,10.8028846 L18.0923077,9.6474359 L16.9866667,9.46794872 C16.9308262,9.26602564 16.8526496,9.07532051 16.7521368,8.89583333 L17.399886,7.97596154 L16.5846154,7.15705128 L15.6688319,7.79647436 C15.4901425,7.69551282 15.2891168,7.61698718 15.0880912,7.56089744 L14.8982336,6.46153846 L13.7367521,6.46153846 L13.5580627,7.56089744 C13.357037,7.61698718 13.1671795,7.69551282 12.9773219,7.79647436 L12.0727066,7.14583333 L11.2574359,7.96474359 L11.8940171,8.87339744 C11.7935043,9.05288462 11.7153276,9.25480769 11.6483191,9.45673077 L10.5538462,9.63621795 L10.5538462,10.8028846 L11.6483191,10.9935897 C11.7041595,11.1955128 11.7823362,11.3974359 11.8940171,11.5769231 L11.2462678,12.4855769 L12.0615385,13.3044872 L12.9661538,12.6650641 C13.1448433,12.7660256 13.3458689,12.8445513 13.5468946,12.900641 L13.725584,14 L14.8870655,14 L15.0769231,12.900641 C15.2779487,12.8445513 15.4678063,12.7660256 15.6576638,12.6538462 L16.5734473,13.3044872 L17.3887179,12.4855769 L16.7521368,11.5769231 C16.8526496,11.3974359 16.9308262,11.2067308 16.9866667,11.0048077 L18.0923077,10.8028846 Z M14.3230769,11.4871795 C13.6280415,11.4871795 13.0666667,10.9258047 13.0666667,10.2307692 C13.0666667,9.53573377 13.6280415,8.97435897 14.3230769,8.97435897 C15.0181124,8.97435897 15.5794872,9.53573377 15.5794872,10.2307692 C15.5794872,10.9258047 15.0181124,11.4871795 14.3230769,11.4871795 Z" id="Shape" fill-rule="nonzero"></path>
        </g>
    </g>
</svg>