<?xml version="1.0" encoding="UTF-8"?>
<svg width="16px" height="10px" viewBox="0 0 16 10" version="1.1" xmlns="http://www.w3.org/2000/svg" xmlns:xlink="http://www.w3.org/1999/xlink">
    <!-- Generator: Sketch 60 (88103) - https://sketch.com -->
    <title>Combined Shape</title>
    <desc>Created with Sketch.</desc>
    <g id="语音工具" stroke="none" stroke-width="1" fill="none" fill-rule="evenodd" fill-opacity="0.299620697">
        <g id="B01-主页-邀请链接解析" transform="translate(-688.000000, -637.000000)" fill="#000000" fill-rule="nonzero">
            <g id="Right" transform="translate(310.000000, 0.000000)">
                <g id="4" transform="translate(24.000000, 495.000000)">
                    <g id="服务器邀请card" transform="translate(58.000000, 78.000000)">
                        <g id="btn" transform="translate(290.000000, 55.000000)">
                            <path d="M21.8027137,9.29031229 C22.1020275,9.63406861 22.0552598,10.1474415 21.6998245,10.4369205 L11.9802467,18.3243474 C11.9418047,18.5032576 11.8474826,18.6711342 11.6992829,18.7982124 C11.4987921,18.9712602 11.242383,19.0312088 11.003386,18.9849695 C10.7129947,19.0396489 10.4013424,18.9440422 10.1972863,18.7096877 C10.0372164,18.5258504 9.97612575,18.2935027 10.008292,18.0728321 L6.19687435,13.4144009 C5.89818551,13.0508561 5.94485564,12.5079306 6.29954864,12.2017876 C6.65424164,11.8956446 7.18394764,11.9434794 7.48263648,12.3070242 L11.193,16.838 L20.6171502,9.19080388 C20.9725854,8.90132488 21.5033998,8.94655597 21.8027137,9.29031229 Z" id="Combined-Shape"></path>
                        </g>
                    </g>
                </g>
            </g>
        </g>
    </g>
</svg>