<?xml version="1.0" encoding="UTF-8"?>
<svg width="492px" height="272px" viewBox="0 0 492 272" version="1.1" xmlns="http://www.w3.org/2000/svg" xmlns:xlink="http://www.w3.org/1999/xlink">
    <!-- Generator: Sketch 61 (89581) - https://sketch.com -->
    <title>插图@2x</title>
    <desc>Created with Sketch.</desc>
    <defs>
        <filter x="-5.1%" y="-25.0%" width="110.3%" height="150.0%" filterUnits="objectBoundingBox" id="filter-1">
            <feOffset dx="0" dy="2" in="SourceAlpha" result="shadowOffsetOuter1"></feOffset>
            <feGaussianBlur stdDeviation="3" in="shadowOffsetOuter1" result="shadowBlurOuter1"></feGaussianBlur>
            <feColorMatrix values="0 0 0 0 0   0 0 0 0 0   0 0 0 0 0  0 0 0 0.3 0" type="matrix" in="shadowBlurOuter1" result="shadowMatrixOuter1"></feColorMatrix>
            <feMerge>
                <feMergeNode in="shadowMatrixOuter1"></feMergeNode>
                <feMergeNode in="SourceGraphic"></feMergeNode>
            </feMerge>
        </filter>
        <filter x="-8.7%" y="-15.4%" width="117.5%" height="130.8%" filterUnits="objectBoundingBox" id="filter-2">
            <feOffset dx="0" dy="2" in="SourceAlpha" result="shadowOffsetOuter1"></feOffset>
            <feGaussianBlur stdDeviation="3" in="shadowOffsetOuter1" result="shadowBlurOuter1"></feGaussianBlur>
            <feColorMatrix values="0 0 0 0 0   0 0 0 0 0   0 0 0 0 0  0 0 0 0.3 0" type="matrix" in="shadowBlurOuter1" result="shadowMatrixOuter1"></feColorMatrix>
            <feMerge>
                <feMergeNode in="shadowMatrixOuter1"></feMergeNode>
                <feMergeNode in="SourceGraphic"></feMergeNode>
            </feMerge>
        </filter>
        <filter x="-5.6%" y="-8.7%" width="111.3%" height="117.4%" filterUnits="objectBoundingBox" id="filter-3">
            <feOffset dx="0" dy="2" in="SourceAlpha" result="shadowOffsetOuter1"></feOffset>
            <feGaussianBlur stdDeviation="3" in="shadowOffsetOuter1" result="shadowBlurOuter1"></feGaussianBlur>
            <feColorMatrix values="0 0 0 0 0   0 0 0 0 0   0 0 0 0 0  0 0 0 0.3 0" type="matrix" in="shadowBlurOuter1" result="shadowMatrixOuter1"></feColorMatrix>
            <feMerge>
                <feMergeNode in="shadowMatrixOuter1"></feMergeNode>
                <feMergeNode in="SourceGraphic"></feMergeNode>
            </feMerge>
        </filter>
    </defs>
    <g id="页面-1" stroke="none" stroke-width="1" fill="none" fill-rule="evenodd">
        <g id="插图">
            <rect id="矩形" fill-opacity="0.01" fill="#FFFFFF" opacity="0.2" x="0" y="0" width="492" height="272"></rect>
            <g id="编组" filter="url(#filter-1)" transform="translate(6.000000, 34.000000)">
                <rect id="矩形" fill="#6D729B" x="0" y="0" width="312" height="64" rx="4"></rect>
                <rect id="矩形" fill="#FFFFFF" x="20" y="15" width="118" height="14" rx="4"></rect>
                <rect id="矩形备份-2" fill-opacity="0.38" fill="#FFFFFF" x="149" y="15" width="64" height="14" rx="4"></rect>
                <rect id="矩形备份" fill="#FFFFFF" x="20" y="35" width="221" height="14" rx="4"></rect>
                <g id="logo备份" transform="translate(270.000000, 19.000000)" fill="#FFFFFF" fill-rule="nonzero">
                    <path d="M13,0.0252150829 C23.4609375,0.0252150829 26,2.81560976 26,13.0126829 C26,23.2097561 23.4609375,26.0000004 12.9999812,26.0000004 C2.53902492,26.0000004 0,23.2097561 0,13.0126829 C0,2.81560976 2.5390625,0.0252150829 13,0.0252150829 Z M17.4988726,7.04197488 C16.9516341,6.96885754 16.6460957,7.01051695 16.3312538,7.19205825 C16.2911481,7.21518363 16.1689053,7.29132515 16.1470551,7.30425221 C16.0860142,7.34036531 16.0303762,7.36891714 15.9639227,7.39683328 C15.5048154,7.58969692 14.6278364,7.70551737 12.9957192,7.70551737 C11.3636021,7.70551737 10.486623,7.58969692 10.0275158,7.39683328 C9.96106222,7.36891714 9.90542429,7.34036531 9.84438331,7.30425221 C9.82253311,7.29132515 9.70029041,7.21518363 9.66018469,7.19205825 C9.34538085,7.01053893 9.03987838,6.96886762 8.492367,7.04200127 C6.93655007,7.24873727 5.59840007,8.56379115 5.20930428,10.235802 C4.99279618,11.1485739 4.83228484,12.0591994 4.72887358,12.9657669 C4.62434101,13.8821647 4.58117404,14.7945591 4.59998871,15.703043 C4.64820867,17.6179114 5.82479151,19.0078125 7.78385276,19.0078125 C8.44124541,19.0078125 8.78393958,18.8789219 9.12764431,18.5588327 C9.13009071,18.5565544 9.23345066,18.4585081 9.26133195,18.4334216 C9.30426081,18.3947959 9.34247106,18.3639858 9.38410324,18.3351017 C9.82521625,18.0290603 10.8250806,17.8458678 12.9957192,17.8458678 C15.1659385,17.8458678 16.1637553,18.0289072 16.6033274,18.3347222 C16.6445915,18.3634301 16.6825135,18.3940677 16.7251506,18.4324822 C16.7529008,18.4574842 16.8560157,18.5554046 16.8580235,18.5572771 C17.202593,18.878625 17.5462774,19.0078125 18.2075857,19.0078125 C20.0642439,19.0078125 21.3447892,17.555991 21.391397,15.7053424 C21.4102644,14.7945591 21.3670974,13.8821647 21.2625648,12.9657669 C21.1591535,12.0591992 20.9986422,11.1485736 20.7816344,10.2336751 C20.3930213,8.56371971 19.054774,7.24862535 17.4988726,7.04197488 Z M12.5689642,14.1725834 C12.6113605,13.7624473 13.208649,13.7624473 13.2510453,14.1725834 C13.2731695,14.3866101 13.4646088,14.5421779 13.678637,14.5200539 C13.8621123,14.501088 14.0071439,14.3560574 14.0261098,14.1725834 C14.0455799,13.9842333 14.2140525,13.8473287 14.4024039,13.8667985 C14.5907554,13.8862684 14.7276609,14.0547398 14.708191,14.24309 C14.6558437,14.7494899 14.2555474,15.1497834 13.749144,15.2021302 C13.4299201,15.2351284 13.1289025,15.1249084 12.9099977,14.9234021 C12.7440587,15.0763085 12.5297197,15.177557 12.2919984,15.2021302 C11.7012673,15.263194 11.1728828,14.8338171 11.1118186,14.24309 C11.0923486,14.0547398 11.2292541,13.8862684 11.4176056,13.8667985 C11.6059571,13.8473287 11.7744297,13.9842333 11.7938997,14.1725834 C11.8160239,14.3866101 12.0074632,14.5421779 12.2214914,14.5200539 C12.4049667,14.501088 12.5499983,14.3560574 12.5689642,14.1725834 Z M17.1957302,10.9507103 C17.2402322,10.9507103 17.2831501,10.9574932 17.3235063,10.9700815 C17.8842957,11.0702448 18.310015,11.5607588 18.310015,12.1507042 C18.310015,12.7406496 17.8842957,13.2311637 17.3233059,13.3317993 C17.2831501,13.3439153 17.2402322,13.3506982 17.1957302,13.3506982 L17.1957302,13.3506982 L14.4528619,13.3506982 L14.3895311,13.3460514 C14.1828686,13.3154411 14.0242926,13.1373037 14.0242926,12.9221289 C14.0242926,12.6854367 14.2161696,12.4935597 14.4528619,12.4935597 L14.4528619,12.4935597 L15.9597308,12.4936495 L15.9324631,12.382926 C15.9177311,12.3077949 15.9100105,12.2301512 15.9100105,12.1507042 C15.9100105,12.0315338 15.9273819,11.9164206 15.9597308,11.8077589 L15.9597308,11.8077589 L14.4528619,11.8078488 L14.3895311,11.803202 C14.1828686,11.7725917 14.0242926,11.5944544 14.0242926,11.3792795 C14.0242926,11.1425873 14.2161696,10.9507103 14.4528619,10.9507103 L14.4528619,10.9507103 L17.1957302,10.9507103 Z M11.0242898,10.9507103 C11.0688088,10.9507103 11.1117423,10.9574983 11.1521118,10.9700958 C11.7130842,11.0705085 12.1385747,11.5609174 12.1385747,12.1507042 C12.1385747,12.7402623 11.7134141,13.2305196 11.1529703,13.3316006 C11.1122192,13.3438345 11.0690561,13.3506982 11.0242898,13.3506982 L11.0242898,13.3506982 L8.10999267,13.3506982 L8.0466618,13.3460514 C7.83999937,13.3154411 7.68142336,13.1373037 7.68142336,12.9221289 C7.68142336,12.6854367 7.87330037,12.4935597 8.10999267,12.4935597 L8.10999267,12.4935597 L9.78829052,12.4936495 L9.76102276,12.382926 C9.74629084,12.3077949 9.73857014,12.2301512 9.73857014,12.1507042 C9.73857014,12.0315338 9.75594165,11.9164206 9.78829052,11.8077589 L9.78829052,11.8077589 L8.10999267,11.8078488 L8.0466618,11.803202 C7.83999937,11.7725917 7.68142336,11.5944544 7.68142336,11.3792795 C7.68142336,11.1425873 7.87330037,10.9507103 8.10999267,10.9507103 L8.10999267,10.9507103 L11.0242898,10.9507103 Z" id="path-1"></path>
                </g>
            </g>
            <g id="编组-3" filter="url(#filter-2)" transform="translate(6.000000, 141.000000)">
                <circle id="椭圆形" fill="#6D729B" cx="16" cy="16" r="16"></circle>
                <circle id="椭圆形备份" fill="#6D729B" cx="16" cy="52" r="16"></circle>
                <circle id="椭圆形备份-2" fill="#6D729B" cx="16" cy="88" r="16"></circle>
                <rect id="矩形备份-15" fill="#FFFFFF" x="40" y="9" width="88" height="14" rx="4"></rect>
                <rect id="矩形备份-18" fill="#FFFFFF" x="40" y="45" width="60" height="14" rx="4"></rect>
                <rect id="矩形备份-19" fill="#FFFFFF" x="40" y="81" width="143" height="14" rx="4"></rect>
            </g>
            <g id="编组-2" filter="url(#filter-3)" transform="translate(176.000000, 80.000000)">
                <rect id="矩形" fill="#898FB9" x="0" y="0" width="284" height="184" rx="4"></rect>
                <path d="M4,0 L280,0 C282.209139,-4.05812251e-16 284,1.790861 284,4 L284,34 L284,34 L0,34 L0,4 C-2.705415e-16,1.790861 1.790861,4.05812251e-16 4,0 Z" id="矩形" fill-opacity="0.1" fill="#000000"></path>
                <rect id="矩形备份-2" fill="#FFFFFF" x="44" y="10" width="64" height="14" rx="4"></rect>
                <rect id="矩形备份-3" fill-opacity="0.38" fill="#FFFFFF" x="16" y="46" width="36" height="10" rx="2"></rect>
                <rect id="矩形备份-14" fill-opacity="0.38" fill="#FFFFFF" x="16" y="157" width="36" height="10" rx="2"></rect>
                <rect id="矩形备份-10" fill-opacity="0.38" fill="#FFFFFF" x="16" y="133" width="36" height="10" rx="2"></rect>
                <rect id="矩形备份-6" fill-opacity="0.38" fill="#FFFFFF" x="16" y="68" width="36" height="10" rx="2"></rect>
                <rect id="矩形备份-4" fill="#FFFFFF" x="56" y="44" width="64" height="14" rx="4"></rect>
                <rect id="矩形备份-15" fill="#FFFFFF" x="56" y="155" width="85" height="14" rx="4"></rect>
                <rect id="矩形备份-11" fill="#FFFFFF" x="56" y="131" width="30" height="14" rx="4"></rect>
                <rect id="矩形备份-7" fill="#FFFFFF" x="56" y="66" width="45" height="14" rx="4"></rect>
                <rect id="矩形备份-5" fill-opacity="0.6" fill="#FFFFFF" x="124" y="44" width="135" height="14" rx="4"></rect>
                <rect id="矩形备份-16" fill-opacity="0.6" fill="#FFFFFF" x="145" y="155" width="123" height="14" rx="4"></rect>
                <rect id="矩形备份-12" fill-opacity="0.6" fill="#FFFFFF" x="90" y="131" width="33" height="14" rx="4"></rect>
                <rect id="矩形备份-13" fill-opacity="0.6" fill="#FFFFFF" x="127" y="131" width="124" height="14" rx="4"></rect>
                <rect id="矩形备份-8" fill-opacity="0.6" fill="#FFFFFF" x="16" y="88" width="252" height="14" rx="4"></rect>
                <rect id="矩形备份-9" fill-opacity="0.6" fill="#FFFFFF" x="16" y="107" width="108" height="14" rx="4"></rect>
                <rect id="矩形备份-17" fill-opacity="0.6" fill="#FFFFFF" x="128" y="107" width="69" height="14" rx="4"></rect>
                <g id="home_ic_symbol" opacity="0.6" transform="translate(16.000000, 9.000000)" fill="#FFFFFF" fill-rule="nonzero">
                    <path d="M12.7742974,4.13721158 L13.4947926,1.01349295 C13.5079772,0.95388851 13.5157285,0.89156736 13.5157285,0.82752563 C13.5157285,0.37014163 13.1450039,0 12.6881813,0 C12.2953799,0 11.9665451,0.27418771 11.8816425,0.64166697 L11.0751218,4.13779114 L6.70511705,4.13779114 L7.42620993,1.01407252 C7.43941258,0.95444996 7.44716393,0.89209259 7.44716393,0.82808708 C7.44716393,0.37073931 7.07701885,0.00057956 6.61967109,0.00057956 C6.22630818,0.00057956 5.89749156,0.27476727 5.81363934,0.64213786 L5.00652096,4.13838881 L2.48202576,4.13838881 C2.024678,4.13838881 1.65444237,4.50854856 1.65444237,4.96589633 C1.65444237,5.4232441 2.024678,5.79344007 2.48202576,5.79344007 L4.62474886,5.79344007 L3.60635185,10.207067 L0.82745662,10.207067 C0.37012697,10.207067 0,10.5778426 0,11.0347013 C0,11.4914877 0.37014508,11.8622089 0.82745662,11.8622089 L3.22459786,11.8622089 L2.50410262,14.986507 C2.49032043,15.0461296 2.48314862,15.1083964 2.48314862,15.1724925 C2.48314862,15.6292788 2.85327559,16 3.31062336,16 C3.70400437,16 4.03280288,15.7258304 4.11723464,15.358333 L4.92428058,11.8622089 L9.2936695,11.8622089 L8.5731743,14.986507 C8.5599535,15.0461296 8.5521841,15.1083964 8.5521841,15.1724925 C8.5521841,15.6292788 8.9223473,16 9.3797132,16 C9.7724784,16 10.101295,15.7258304 10.1863063,15.358333 L10.9928452,11.8622089 L13.5173404,11.8622089 C13.9746881,11.8622089 14.3448875,11.4914696 14.3448875,11.0347013 C14.3448875,10.5778245 13.9746881,10.207067 13.5173404,10.207067 L11.3746354,10.207067 L12.3930324,5.79344007 L15.1723985,5.79344007 C15.6297463,5.79344007 16,5.42326222 16,4.96589633 C16,4.50853045 15.6297463,4.13838881 15.1723985,4.13838881 L12.7742974,4.13721158 Z M9.2439845,10 L6,10 L6.75602895,6 L10,6 L9.2439845,10 L9.2439845,10 Z" id="形状"></path>
                </g>
            </g>
            <circle id="椭圆形" stroke="#43B580" stroke-width="3" cx="396" cy="48" r="8.5"></circle>
            <circle id="椭圆形备份-3" stroke="#43B580" stroke-width="3" cx="135" cy="17" r="8.5"></circle>
            <g id="编组-5备份" transform="translate(472.000000, 183.000000)" fill="#E44B4D">
                <rect id="矩形" x="8" y="0" width="4" height="20"></rect>
                <rect id="矩形备份-20" transform="translate(10.000000, 10.000000) rotate(-270.000000) translate(-10.000000, -10.000000) " x="8" y="0" width="4" height="20"></rect>
            </g>
            <g id="编组-4" transform="translate(308.000000, 0.000000)" fill="#F9B047">
                <rect id="矩形备份-21" x="8" y="0" width="4" height="20"></rect>
                <rect id="矩形备份-22" transform="translate(10.000000, 10.000000) rotate(-270.000000) translate(-10.000000, -10.000000) " x="8" y="0" width="4" height="20"></rect>
            </g>
            <g id="编组-4备份" transform="translate(135.000000, 121.000000)" fill="#FDA700">
                <rect id="矩形备份-21" x="8" y="0" width="4" height="20"></rect>
                <rect id="矩形备份-22" transform="translate(10.000000, 10.000000) rotate(-270.000000) translate(-10.000000, -10.000000) " x="8" y="0" width="4" height="20"></rect>
            </g>
        </g>
    </g>
</svg>