<?xml version="1.0" encoding="UTF-8"?>
<svg width="24px" height="24px" viewBox="0 0 24 24" version="1.1" xmlns="http://www.w3.org/2000/svg" xmlns:xlink="http://www.w3.org/1999/xlink">
    <!-- Generator: Sketch 61 (89581) - https://sketch.com -->
    <title>图标按钮/语音个人/断开连接</title>
    <desc>Created with Sketch.</desc>
    <g id="图标按钮/语音个人/断开连接" stroke="none" stroke-width="1" fill="none" fill-rule="evenodd">
        <g id="1.图标占位">
            <rect id="图标占位" x="0" y="0" width="24" height="24"></rect>
        </g>
        <path d="M12,1 C18.0751322,1 23,5.92486775 23,12 C23,18.0751322 18.0751322,23 12,23 C5.92486775,23 1,18.0751322 1,12 C1,5.92486775 5.92486775,1 12,1 Z M11.9969883,9.18608489 C7.67386861,9.3002518 6.21414606,10.9252219 6.11197169,11.0273963 C5.77625593,11.3631121 4.92460442,12.5841405 5.54138261,14.0766989 C5.63365893,14.2954768 5.84258583,14.6211744 6.00792219,14.6210856 C6.0662762,14.6210543 8.61962198,13.9534749 8.69744299,13.9242561 C8.77526401,13.8950373 8.84336458,13.8560981 8.89201904,13.8074436 C8.96500073,13.734462 9.00398175,13.588556 9.01382233,13.3745861 C9.01880269,13.1557559 8.89280775,12.3388677 8.89291744,12.1346287 C8.8881669,11.9255294 8.92227725,11.7942146 8.9903935,11.7260983 C9.02445162,11.6920402 9.07309563,11.6628371 9.14119098,11.6336235 C9.20928633,11.60441 9.98747561,11.3511247 12.0007569,11.2236098 C14.009178,11.0912347 14.7675242,11.5673851 14.9424974,11.7326274 C15.0105405,11.8006705 15.0396444,11.9368142 15.0395347,12.1410532 C15.0345596,12.3501577 15.0198588,12.5592674 14.9905669,12.7732478 C14.9612749,12.9872282 14.9465689,13.2060636 14.9513194,13.4151628 C14.9560648,13.6339878 14.9997545,13.7749864 15.0726579,13.8478898 C15.1261203,13.9013522 15.1893189,13.9353581 15.2671086,13.9644933 C15.340038,13.9887683 17.9218609,14.6244129 17.9899406,14.6243763 C18.1358256,14.624298 18.3888653,14.3032151 18.4570651,14.0794882 C18.9880778,12.2848176 18.2348425,11.3466954 17.8848908,11.0259364 C17.5203532,10.7003224 15.4788247,9.09668396 11.9969883,9.18608489 Z" id="断开语音" fill="#EA4335"></path>
    </g>
</svg>