<?xml version="1.0" encoding="UTF-8"?>
<svg width="22px" height="22px" viewBox="0 0 22 22" version="1.1" xmlns="http://www.w3.org/2000/svg" xmlns:xlink="http://www.w3.org/1999/xlink">
    <!-- Generator: Sketch 61 (89581) - https://sketch.com -->
    <title>所有音源</title>
    <desc>Created with Sketch.</desc>
    <g id="29" stroke="none" stroke-width="1" fill="none" fill-rule="evenodd">
        <g id="选中" transform="translate(-440.000000, -384.000000)">
            <g id="编组-14备份-7" transform="translate(424.000000, 345.000000)">
                <g id="播放声音">
                    <g id="播放器" transform="translate(8.000000, 34.000000)">
                        <g id="1">
                            <g id="所有音源" transform="translate(8.000000, 5.000000)">
                                <circle id="椭圆形" fill="#6666CC" cx="11" cy="11" r="11"></circle>
                                <g id="图标按钮/语音个人/伴奏" transform="translate(2.750000, 2.750000)" fill="#FFFFFF">
                                    <g>
                                        <g id="1.图标占位" fill-opacity="0.01" opacity="0.2">
                                            <rect id="图标占位" x="0" y="0" width="16.5" height="16.5"></rect>
                                        </g>
                                        <path d="M7.55284182,2.7503891 C7.64667294,3.11830838 7.42448059,3.49263104 7.05656132,3.58646216 C6.84858831,3.6395019 6.64490299,3.70639088 6.44661783,3.78659434 C4.64293225,4.51615887 3.4375,6.27105311 3.4375,8.25 C3.4375,10.9078704 5.59212964,13.0625 8.25,13.0625 C10.9078704,13.0625 13.0625,10.9078704 13.0625,8.25 C13.0625,8.04918677 13.0502384,7.85006324 13.0259451,7.65332071 C13.0009194,7.45064589 12.9631501,7.25070488 12.912973,7.05434856 C12.87676,6.91263808 12.8341113,6.77290202 12.7851885,6.63548806 C12.6578378,6.27778614 12.8445743,5.88457327 13.2022762,5.75722252 C13.5599782,5.62987177 13.953191,5.81660829 14.0805418,6.1743102 C14.1435676,6.35133683 14.1985132,6.53136285 14.2451638,6.71391845 C14.3097746,6.96675724 14.3583912,7.22412159 14.3905814,7.48481922 C14.4217732,7.73743053 14.4375,7.99282692 14.4375,8.25 C14.4375,11.6672619 11.6672619,14.4375 8.25,14.4375 C4.83273811,14.4375 2.0625,11.6672619 2.0625,8.25 C2.0625,5.70597032 3.61222904,3.44984139 5.93103061,2.51191994 C6.1864421,2.40860972 6.44885267,2.32243573 6.71676875,2.2541086 C7.08468803,2.16027748 7.45901069,2.38246982 7.55284182,2.7503891 Z M9.81037269,2.26109647 C9.91623093,2.28860833 10.021237,2.31891504 10.1252994,2.35197599 C10.9450047,2.61239894 11.6992874,3.041616 12.3422564,3.60894192 C12.6269665,3.86015694 12.6541197,4.29461016 12.4029047,4.57932034 C12.1516897,4.86403052 11.7172364,4.8911837 11.4325263,4.63996868 C11.0949914,4.34214364 10.7183112,4.09337556 10.3134734,3.90091035 L10.3125,8.59375 C10.3125,8.6389434 10.3081393,8.68311832 10.2998158,8.72587694 C10.30821,8.79459722 10.3125,8.86561919 10.3125,8.9375 C10.3125,10.0765873 9.23518518,11 7.90625,11 C6.57731482,11 5.5,10.0765873 5.5,8.9375 C5.5,7.7984127 6.57731482,6.875 7.90625,6.875 C8.27588236,6.875 8.62604865,6.94643782 8.93898173,7.07408448 L8.9375,3.09375 C8.9375,3.0492683 8.94172441,3.00577327 8.94979392,2.9636442 C8.94701047,2.89505832 8.95369594,2.8241643 8.97204558,2.75355983 C9.06755322,2.38607219 9.44288505,2.16558883 9.81037269,2.26109647 Z" id="形状结合"></path>
                                    </g>
                                </g>
                            </g>
                        </g>
                    </g>
                </g>
            </g>
        </g>
    </g>
</svg>