<?xml version="1.0" encoding="UTF-8"?>
<svg width="64px" height="56px" viewBox="0 0 64 56" version="1.1" xmlns="http://www.w3.org/2000/svg" xmlns:xlink="http://www.w3.org/1999/xlink">
    <title>举手等待-亮色</title>
    <defs>
        <path d="M64,0 L64,56 L0,56 L0,0 L64,0 Z M29,29 L29.315,29.004 L28.6602681,29.0040145 C24.6585979,29.0986589 20.9761517,30.861871 18.0215514,33.7714542 L17.7285327,34.0662144 L17.7699718,34.0591638 C16.3788604,34.2891783 15.123594,35.1678103 14.4630904,36.5114929 L14.3638099,36.7274912 L12.489,41.9579742 L12.5,42 L20.789,44.9839742 L20,47 L23.2465277,47.999 L46.7287442,47.9992649 C46.412819,45.6972915 45.829018,43.5133005 45.0200331,41.5019606 C47.146415,39.6924863 49.1314149,37.7148647 50.9644368,35.5982342 L51.5698007,34.8875822 L44.6676588,29.5201864 C43.174889,31.0094286 41.5563781,32.3760491 39.8442964,33.6408123 C36.9288967,30.8248475 33.3216892,29.1165 29.4061409,29.0057391 L29,29 Z" id="path-1"></path>
    </defs>
    <g id="页面-1" stroke="none" stroke-width="1" fill="none" fill-rule="evenodd">
        <g id="举手中" transform="translate(-551.000000, -65.000000)">
            <g id="举手等待-亮色" transform="translate(551.000000, 65.000000)">
                <mask id="mask-2" fill="white">
                    <use xlink:href="#path-1"></use>
                </mask>
                <use id="形状结合" fill="#F2F3F5" xlink:href="#path-1"></use>
                <rect id="桌子" fill="#E5E5EA" fill-rule="nonzero" mask="url(#mask-2)" x="-4" y="48" width="73" height="12" rx="4"></rect>
                <path d="M23.2489275,47.999866 L26.5,49 C28,49.5 29,51.5 28.5,53 C27.8333333,54.6666667 26.4832614,55.6252903 24.4497843,55.8758709 L14,52.5 C11.3618945,51.8668547 9.896154,49.071512 10.830575,46.5601875 L10.9140257,46.3516203 L14.3638099,36.7274912 C14.4095711,36.6207151 14.4589733,36.516618 14.5118094,36.4152828 C14.4589347,36.5166993 14.4095532,36.6207568 14.3638099,36.7274912 L14.3638099,36.7274912 L12.489,41.9579742 L12.5,42 L20.789,44.9839742 L21.7179275,42.614866 L20,47 L23.2465277,47.999 L46.7287442,47.9992649 L46.7287442,47.9992649 L23.2489275,47.999866 Z M57.1360802,19.5637397 C58.9385223,20.5643407 59.5709213,22.6232444 58.2567995,25.0404165 C56.4373802,28.3870237 54.3100385,31.5605004 51.9010335,34.4886381 L51.5698007,34.8875822 L44.6676588,29.5201864 C44.6557695,29.5320476 44.6438722,29.543901 44.6319669,29.5557467 C46.9093684,27.2898027 48.8957638,24.7391662 50.4769692,21.8307254 C51.791091,19.4135533 54.4971217,17.8213568 57.1360802,19.5637397 Z" id="形状结合" fill="#FED2A4" fill-rule="nonzero" mask="url(#mask-2)"></path>
            </g>
        </g>
    </g>
</svg>