<?xml version="1.0" encoding="UTF-8"?>
<svg width="1408px" height="799px" viewBox="0 0 1408 799" version="1.1" xmlns="http://www.w3.org/2000/svg" xmlns:xlink="http://www.w3.org/1999/xlink">
    <title>语音频道占位图</title>
    <g id="页面-1" stroke="none" stroke-width="1" fill="none" fill-rule="evenodd" fill-opacity="0.2">
        <g id="自由模式语音成员卡片内容显示范围备份" transform="translate(-433.000000, -116.000000)" fill="#BBBEC4">
            <path d="M891,654 C894.313708,654 897,656.686292 897,660 L897,909 C897,912.313708 894.313708,915 891,915 L439,915 C435.686292,915 433,912.313708 433,909 L433,660 C433,656.686292 435.686292,654 439,654 L891,654 Z M1363,654 C1366.31371,654 1369,656.686292 1369,660 L1369,909 C1369,912.313708 1366.31371,915 1363,915 L911,915 C907.686292,915 905,912.313708 905,909 L905,660 C905,656.686292 907.686292,654 911,654 L1363,654 Z M1835,654 C1838.31371,654 1841,656.686292 1841,660 L1841,909 C1841,912.313708 1838.31371,915 1835,915 L1383,915 C1379.68629,915 1377,912.313708 1377,909 L1377,660 C1377,656.686292 1379.68629,654 1383,654 L1835,654 Z M891,385 C894.313708,385 897,387.686292 897,391 L897,640 C897,643.313708 894.313708,646 891,646 L439,646 C435.686292,646 433,643.313708 433,640 L433,391 C433,387.686292 435.686292,385 439,385 L891,385 Z M1363,385 C1366.31371,385 1369,387.686292 1369,391 L1369,640 C1369,643.313708 1366.31371,646 1363,646 L911,646 C907.686292,646 905,643.313708 905,640 L905,391 C905,387.686292 907.686292,385 911,385 L1363,385 Z M1835,385 C1838.31371,385 1841,387.686292 1841,391 L1841,640 C1841,643.313708 1838.31371,646 1835,646 L1383,646 C1379.68629,646 1377,643.313708 1377,640 L1377,391 C1377,387.686292 1379.68629,385 1383,385 L1835,385 Z M891,116 C894.313708,116 897,118.686292 897,122 L897,371 C897,374.313708 894.313708,377 891,377 L439,377 C435.686292,377 433,374.313708 433,371 L433,122 C433,118.686292 435.686292,116 439,116 L891,116 Z M1363,116 C1366.31371,116 1369,118.686292 1369,122 L1369,371 C1369,374.313708 1366.31371,377 1363,377 L911,377 C907.686292,377 905,374.313708 905,371 L905,122 C905,118.686292 907.686292,116 911,116 L1363,116 Z M1835,116 C1838.31371,116 1841,118.686292 1841,122 L1841,371 C1841,374.313708 1838.31371,377 1835,377 L1383,377 C1379.68629,377 1377,374.313708 1377,371 L1377,122 C1377,118.686292 1379.68629,116 1383,116 L1835,116 Z" id="语音频道占位图"></path>
        </g>
    </g>
</svg>