<?xml version="1.0" encoding="UTF-8"?>
<svg width="19px" height="19px" viewBox="0 0 19 19" version="1.1" xmlns="http://www.w3.org/2000/svg" xmlns:xlink="http://www.w3.org/1999/xlink">
    <!-- Generator: Sketch 61 (89581) - https://sketch.com -->
    <title>编组 3</title>
    <desc>Created with Sketch.</desc>
    <g id="页面-1" stroke="none" stroke-width="1" fill="none" fill-rule="evenodd">
        <g id="iPhone-8" transform="translate(-363.000000, -889.000000)">
            <g id="编组-3" transform="translate(363.000000, 889.000000)">
                <path d="M9.22599961,11.3238853 C9.35186944,11.5665795 9.3406401,11.8514143 9.20251661,12.0820671 L9.13558154,12.1773202 L5.96554822,16.2338406 L9.13558154,16.2338406 C9.43928782,16.2301844 9.72193714,16.3828992 9.87700958,16.6344325 C10.0409968,16.8844441 10.0409968,17.2030217 9.87700958,17.4530333 C9.74132119,17.6731249 9.50795676,17.8175587 9.2482763,17.8477788 L9.13558154,17.8536252 L4.24760518,17.8536252 C3.92584699,17.8533113 3.63185772,17.6780263 3.48809352,17.4007822 C3.3622237,17.1580879 3.37345302,16.8732531 3.5115765,16.6426004 L3.57851155,16.5473473 L4.729,15.0393788 L8.82862687,10.9392882 C8.99877246,11.0199647 9.14007031,11.1536373 9.22599961,11.3238853 Z M4.449,12.4903788 L3.84976575,12.4908269 C3.38042657,12.4907396 3,12.1242651 3,11.672226 C3,11.2549592 3.32415045,10.9105994 3.74316773,10.8600214 L3.84976575,10.8536252 L6.086,10.8533788 L4.449,12.4903788 Z M17.0661312,3.85369937 C17.4321486,3.84910737 17.7677178,4.05807936 17.9268397,4.38969599 C18.0584282,4.70972453 18.0092574,5.07256082 17.8055093,5.34388104 L17.7219091,5.44107396 L13.3610475,9.85677197 L17.7382423,9.85677197 C18.0802905,9.85668268 18.3967266,10.0390877 18.5695989,10.3359953 C18.7424711,10.6329028 18.745843,11.0588609 18.5784577,11.3589332 C18.4269017,11.6306283 18.1561948,11.810308 17.8532065,11.8468196 L17.7382423,11.8537005 L11.3322347,11.8537005 C10.9644329,11.8446825 10.6323781,11.6299459 10.4715262,11.2970874 C10.3237819,10.9969541 10.3455013,10.6439155 10.5213475,10.3665419 L10.5944845,10.2663247 L14.9553462,5.85458651 L13.914,5.8543788 L15.915,3.8533788 L17.0661312,3.85369937 Z M11.084,5.8543788 L10.9633596,5.85458651 C10.6192065,5.8546533 10.3011675,5.66999338 10.1290718,5.37018201 C9.95697607,5.07037063 9.95697607,4.63791525 10.1290718,4.33810387 C10.2796555,4.07576891 10.5419771,3.90153617 10.8357603,3.86217476 L10.9633596,3.85369937 L13.085,3.8533788 L11.084,5.8543788 Z" id="形状结合" fill="#6D729B" fill-rule="nonzero"></path>
                <polygon id="矩形" fill="#CC4345" transform="translate(8.500000, 9.853553) rotate(45.000000) translate(-8.500000, -9.853553) " points="8 -1.14644661 9 -1.14644661 9 20.8535534 8 20.8535534"></polygon>
            </g>
        </g>
    </g>
</svg>