<?xml version="1.0" encoding="UTF-8"?>
<svg width="90px" height="540px" viewBox="0 0 90 540" version="1.1" xmlns="http://www.w3.org/2000/svg" xmlns:xlink="http://www.w3.org/1999/xlink">
    <!-- Generator: Sketch 61 (89581) - https://sketch.com -->
    <title>画板</title>
    <desc>Created with Sketch.</desc>
    <g id="画板" stroke="none" stroke-width="1" fill="none" fill-rule="evenodd">
        <rect id="矩形" x="0" y="0" width="90" height="540"></rect>
        <path d="M24.7191188,205 C25.0641711,206.075491 25.4561404,207.135044 25.8950294,208.178655 C26.2932858,209.107986 26.7488697,210.011256 27.2591018,210.883148 C27.7309445,211.720574 28.3169581,212.487097 29,213.160305 L26.4605115,218 L26.1310987,217.810237 L25.8016859,217.66779 C25.1332813,217.334601 24.5588541,216.837001 24.1314107,216.220907 C23.7445187,215.646718 23.4507726,215.014054 23.2612065,214.346688 C23.0712151,213.668002 22.9839679,212.964265 23.0024172,212.259295 C23.0170028,211.544978 23.071912,210.832086 23.166878,210.124076 C23.4641253,208.355948 23.9858239,206.633765 24.7191188,205 Z M65.2808812,205 C66.0141761,206.633765 66.5358747,208.355948 66.833122,210.124076 C66.928088,210.832086 66.9829972,211.544978 66.9975828,212.259295 C67.0160321,212.964265 66.9287849,213.668002 66.7387935,214.346688 C66.5492274,215.014054 66.2554813,215.646718 65.8685893,216.220907 C65.4411459,216.837001 64.8667187,217.334601 64.1983141,217.66779 L64.1983141,217.66779 L63.8689013,217.810237 L63.5394885,218 L61,213.160305 C61.6830419,212.487097 62.2690555,211.720574 62.7408982,210.883148 C63.2511303,210.011256 63.7067142,209.107986 64.1049706,208.178655 C64.5438596,207.135044 64.9358289,206.075491 65.2808812,205 Z" id="牛角" fill="#EA4335" fill-rule="nonzero"></path>
        <g id="手雷" transform="translate(35.000000, 466.000000)">
            <path d="M7,16.4392356 C3.81859005,16.0409148 1.6147675,13.3197007 1.6147675,10.0325875 C1.6147675,6.74418521 3.81859005,4.0229711 7,3.62465033 L7,2 C2.92655776,2.40562547 0,5.85387167 0,10.0325875 C0,14.2104439 2.92655776,17.6586901 7,18.0638859 L7,16.4392356 Z" id="路径" fill="#414A57" fill-rule="nonzero"></path>
            <path d="M16.0842316,0.598985072 C15.9351299,0.370391056 15.8582158,0.26425812 15.5857936,0.26425812 L7.42172157,7.10542736e-14 C6.97570542,7.10542736e-14 6.6147675,0.361367608 6.6147675,0.806954064 L6.6147675,8.87993221 C6.6147675,9.32594835 6.97613511,9.68774565 7.42172157,9.68774565 L13.8799322,9.68774565 C14.3259484,9.68774565 14.6868863,9.32594835 14.6868863,8.87993221 L14.6868863,7.26602408 L24,7.5 C24.296055,7.5 24.5680475,7.33671856 24.7094149,7.07675732 C24.8507663,6.81635827 24.8378967,6.49940708 24.6758992,6.25132671 L16.0842316,0.598985072 Z" id="路径" fill="#586882" fill-rule="nonzero"></path>
            <path d="M6,1 L15,1 C22.3333333,3.66666667 27.6666667,9.16666667 31,17.5" id="路径-2" stroke="#9EA6B0" stroke-width="2" stroke-linecap="round"></path>
        </g>
        <path d="M4.11121895,31.8228439 C4.11121895,31.8228439 28.6147497,42.3468124 31.4420825,43.60339 C34.2694153,44.8600147 32.3845253,47.5302587 32.3845253,47.5302587 C25.3686148,53.2896187 21.8606595,56.1692987 21.8606595,56.1692987 C21.8606595,56.1692987 17.1484368,59.1537203 15.7347704,58.0541887 C7.72399565,53.0278269 11.1796408,52.2424686 11.1796408,52.2424686 C11.1796408,52.2424686 19.0210651,51.6902278 19.2204587,51.27585 C19.3400749,51.0272328 13.6927532,50.8281896 10.3942396,50.8278393 C4.26834625,47.2141467 5.36787787,43.7604702 5.36787787,43.7604702 C5.36787787,43.7604702 10.2371337,45.1741366 19.0332668,45.6453602 C1.75510545,42.3467782 3.02066176,34.9893602 3.02066176,34.2083843 C3.2250361,31.9818799 3.99790816,31.8334463 4.10004944,31.8235507 L4.11121895,31.8228439 Z M86.9793382,34.2083843 C86.9793382,34.9893602 88.2448945,42.3467782 70.9667332,45.6453602 C79.7628663,45.1741366 84.6321221,43.7604702 84.6321221,43.7604702 C84.6321221,43.7604702 85.7316537,47.2141467 79.6057604,50.8278393 C76.3072468,50.8281896 70.6599251,51.0272328 70.7795413,51.27585 C70.9789349,51.6902278 78.8203592,52.2424686 78.8203592,52.2424686 C78.8203592,52.2424686 82.2760043,53.0278269 74.2652296,58.0541887 C72.8515632,59.1537203 68.1393405,56.1692987 68.1393405,56.1692987 C68.1393405,56.1692987 64.6313852,53.2896187 57.6154747,47.5302587 C57.6154747,47.5302587 55.7305847,44.8600147 58.5579175,43.60339 C61.3852503,42.3468124 85.888781,31.8228439 85.888781,31.8228439 L85.8999506,31.8235507 C86.0020918,31.8334463 86.7749639,31.9818799 86.9793382,34.2083843 Z" id="翅膀" fill="#FFF76C" fill-rule="nonzero"></path>
        <g id="皇冠" transform="translate(33.000000, 101.000000)" fill-rule="nonzero">
            <polygon id="路径" fill="#FFCA28" points="12 0 12 16 4.21049458 16 0 4.44946922 7.38748941 6.94400909"></polygon>
            <polygon id="路径备份-2" fill="#FFA628" transform="translate(18.000000, 8.000000) scale(-1, 1) translate(-18.000000, -8.000000) " points="24 0 24 16 16.2104946 16 12 4.44946922 19.3874894 6.94400909"></polygon>
        </g>
        <g id="菠萝" transform="translate(34.000000, 285.000000)" fill-rule="nonzero">
            <path d="M10.8552079,11.137513 C10.9755206,11.137513 11.091966,11.1516927 11.2114193,11.1555599 C11.3948961,9.26149515 12.1872407,7.53715721 13.3976718,6.1445384 C13.0053667,3.52859786 12.0793891,1.33418124 10.8552079,-7.28306304e-14 C9.63102683,1.33418124 8.70504919,3.52859786 8.31274405,6.14410871 C9.52360483,7.53715721 10.3155198,9.26149515 10.4989966,11.1551302 C10.6184499,11.1516927 10.7348953,11.137513 10.8552079,11.137513 L10.8552079,11.137513 Z" id="路径" fill="#669C65"></path>
            <path d="M13.3976718,6.14410871 C12.1868111,7.53715721 11.3948961,9.26149515 11.2114193,11.1551302 C11.9754046,11.1796224 12.7183351,11.2814584 13.4350547,11.454193 C13.569547,11.4864196 13.7036097,11.5199353 13.8359536,11.5573181 C14.3180635,10.7602469 14.9204861,10.0375117 15.623026,9.40973751 C16.1829095,6.56735139 17.927013,4.15551265 20.3354143,2.739261 C17.5381454,2.93390966 15.0687285,4.2216846 13.3976718,6.14410871 L13.3976718,6.14410871 Z M8.31274405,6.14410871 C6.64168742,4.2216846 4.17270017,2.93390966 1.3750016,2.739261 C3.78340284,4.15551265 5.52793612,6.5669217 6.0873899,9.40973751 C6.78992978,10.0375117 7.39235235,10.7602469 7.87446229,11.5573181 C8.00680619,11.5199353 8.14086885,11.4868493 8.27536119,11.454193 C8.99208078,11.2814584 9.73501133,11.1800521 10.4989966,11.1551302 C10.3155198,9.26149515 9.52317514,7.53715721 8.31274405,6.14410871 L8.31274405,6.14410871 Z" id="形状" fill="#8DCA44"></path>
            <path d="M6.0873899,9.40973751 C4.47648958,7.97028271 2.35554962,7.02840662 -1.77635684e-15,6.8642658 C2.27992453,8.20489236 3.96945774,10.4354028 4.62000538,13.0801324 C5.13606066,12.7239211 5.68692068,12.4175535 6.26184322,12.152436 C6.77961726,11.9139592 7.31758664,11.7141543 7.87489198,11.5573181 C7.39235235,10.7602469 6.78992978,10.0375117 6.0873899,9.40973751 L6.0873899,9.40973751 Z M15.623026,9.40973751 C14.9204861,10.0375117 14.3180635,10.7602469 13.8359536,11.5573181 C14.3932589,11.7141543 14.9312283,11.9135295 15.4490024,12.152436 C16.0239249,12.4175535 16.5747849,12.7239211 17.0908402,13.0801324 C17.7409581,10.4354028 19.430921,8.20489236 21.7108456,6.8642658 C19.3548663,7.02840662 17.234356,7.97028271 15.623026,9.40973751 Z" id="形状" fill="#7CB834"></path>
        </g>
        <path d="M17.0437464,389.200507 C17.2529032,388.671495 20.0426974,386.291671 22.6262672,387.207657 C25.2098415,388.123641 25.0242484,390.025185 24.2940279,390.897691 C23.6459195,392.674586 21.0535169,392.126734 20.4024671,391.718019 C19.7514174,391.309304 19.4745018,392.083254 19.4745018,392.083254 C20.4937897,395.868944 19.8928221,399.831451 19.8928221,399.831451 C22.5323744,398.141514 25.1748591,400.611198 25.1748591,400.611198 C25.870095,399.698111 27.7289714,400.292342 27.7289714,400.292342 L27.7289714,400.292342 L28,400.790924 L26.3296624,407.768063 L24.0520858,409.000007 C22.143129,408.656511 21.9280767,407.586895 21.9280767,407.586895 C16.5989078,407.815891 16.1363991,405.215773 16.1363991,405.215773 C16.1363991,405.215773 15.7195517,405.766526 13.912228,404.943297 C12.1049043,404.120062 13.5410418,402.160547 13.5410418,402.160547 C12.8458148,395.867488 16.8345858,389.729519 17.0437464,389.200507 Z M72.9562536,389.200507 C73.1654142,389.729519 77.1541852,395.867488 76.4589582,402.160547 C76.4589582,402.160547 77.8950957,404.120062 76.087772,404.943297 C74.2804483,405.766526 73.8636009,405.215773 73.8636009,405.215773 C73.8636009,405.215773 73.4010922,407.815891 68.0719233,407.586895 C68.0719233,407.586895 67.856871,408.656511 65.9479142,409.000007 L63.6703376,407.768063 L62,400.790924 L62.2710286,400.292342 C62.2710286,400.292342 64.129905,399.698111 64.8251409,400.611198 C64.8251409,400.611198 67.4676256,398.141514 70.1071779,399.831451 C70.1071779,399.831451 69.5062103,395.868944 70.5254982,392.083254 C70.5254982,392.083254 70.2485826,391.309304 69.5975329,391.718019 C68.9464831,392.126734 66.3540805,392.674586 65.7059721,390.897691 C64.9757516,390.025185 64.7901585,388.123641 67.3737328,387.207657 C69.9573026,386.291671 72.7470968,388.671495 72.9562536,389.200507 Z" id="胳膊" fill="#EA844C" fill-rule="nonzero"></path>
    </g>
</svg>