<?xml version="1.0" encoding="UTF-8"?>
<svg width="24px" height="24px" viewBox="0 0 24 24" version="1.1" xmlns="http://www.w3.org/2000/svg" xmlns:xlink="http://www.w3.org/1999/xlink">
    <!-- Generator: Sketch 61 (89581) - https://sketch.com -->
    <title>关闭</title>
    <desc>Created with Sketch.</desc>
    <g id="关闭" stroke="none" stroke-width="1" fill="none" fill-rule="evenodd">
        <rect id="图标占位" opacity="0.2" x="0" y="0" width="24" height="24"></rect>
        <rect id="矩形" x="0" y="0" width="24" height="24"></rect>
        <path d="M11.9981746,6.49817459 C12.4123882,6.49817459 12.7481746,6.83396103 12.7481746,7.24817459 L12.7481746,11.2481746 L16.7481746,11.2481746 C17.1623882,11.2481746 17.4981746,11.583961 17.4981746,11.9981746 C17.4981746,12.4123882 17.1623882,12.7481746 16.7481746,12.7481746 L12.7481746,12.7481746 L12.7481746,16.7481746 C12.7481746,17.1623882 12.4123882,17.4981746 11.9981746,17.4981746 C11.583961,17.4981746 11.2481746,17.1623882 11.2481746,16.7481746 L11.2481746,12.7481746 L7.24817459,12.7481746 C6.83396103,12.7481746 6.49817459,12.4123882 6.49817459,11.9981746 C6.49817459,11.583961 6.83396103,11.2481746 7.24817459,11.2481746 L11.2481746,11.2481746 L11.2481746,7.24817459 C11.2481746,6.83396103 11.583961,6.49817459 11.9981746,6.49817459 Z" id="清除" fill="#EA4335" transform="translate(11.998175, 11.998175) rotate(-45.000000) translate(-11.998175, -11.998175) "></path>
    </g>
</svg>