<?xml version="1.0" encoding="UTF-8"?>
<svg width="24px" height="24px" viewBox="0 0 24 24" version="1.1" xmlns="http://www.w3.org/2000/svg" xmlns:xlink="http://www.w3.org/1999/xlink">
    <title>复制链接</title>
    <g id="复制链接" stroke="none" stroke-width="1" fill="none" fill-rule="evenodd">
        <rect id="图标占位" x="-2.27373675e-13" y="2.27373675e-13" width="24" height="24"></rect>
        <path d="M8.75,13 L8.75,16 C8.75,17.7330315 10.1064548,19.1492459 11.8155761,19.2448552 L12,19.25 C13.7330315,19.25 15.1492459,17.8935452 15.2448552,16.1844239 L15.25,16 L15.25,13 L16.75,13 L16.75,16 C16.75,18.6233526 14.6233526,20.75 12,20.75 C9.44951834,20.75 7.36853034,18.7398587 7.25488786,16.217428 L7.25,16 L7.25,13 L8.75,13 Z M12,9.25 C12.3796958,9.25 12.693491,9.53215388 12.7431534,9.89822944 L12.75,10 L12.75,14 C12.75,14.4142136 12.4142136,14.75 12,14.75 C11.6203042,14.75 11.306509,14.4678461 11.2568466,14.1017706 L11.25,14 L11.25,10 C11.25,9.58578644 11.5857864,9.25 12,9.25 Z M12,3.25 C14.5504817,3.25 16.6314697,5.26014129 16.7451121,7.782572 L16.75,8 L16.75,11 L15.25,11 L15.25,8 C15.25,6.26696854 13.8935452,4.85075407 12.1844239,4.75514479 L12,4.75 C10.2669685,4.75 8.85075407,6.10645477 8.75514479,7.81557609 L8.75,8 L8.75,11 L7.25,11 L7.25,8 C7.25,5.44951834 9.26014129,3.36853034 11.782572,3.25488786 L12,3.25 Z" id="形状" fill="#E6EAF0" fill-rule="nonzero" transform="translate(12.000000, 12.000000) rotate(-315.000000) translate(-12.000000, -12.000000) "></path>
    </g>
</svg>