<?xml version="1.0" encoding="UTF-8"?>
<svg width="24px" height="24px" viewBox="0 0 24 24" version="1.1" xmlns="http://www.w3.org/2000/svg" xmlns:xlink="http://www.w3.org/1999/xlink">
    <title>è­¦å‘Š-äº®è‰²</title>
    <g id="è§„èŒƒ" stroke="none" stroke-width="1" fill="none" fill-rule="evenodd">
        <g id="è§„èŒƒðŸŒžå¤‡ä»½" transform="translate(-461.000000, -481.000000)">
            <g id="è­¦å‘Š-äº®è‰²" transform="translate(461.000000, 481.000000)">
                <rect id="çŸ©å½¢" x="0" y="0" width="24" height="24"></rect>
                <circle id="æ¤­åœ†å½¢" fill="#EA4335" cx="12" cy="12" r="9"></circle>
                <path d="M12,14.625 C12.8698485,14.625 13.575,15.3301515 13.575,16.2 C13.575,17.0698485 12.8698485,17.775 12,17.775 C11.1301515,17.775 10.425,17.0698485 10.425,16.2 C10.425,15.3301515 11.1301515,14.625 12,14.625 Z M12,6 C12.7806741,6 13.4135356,6.63286143 13.4135356,7.41353556 L13.4110479,7.49736019 L13.4110479,7.49736019 L13.1058831,12.6343014 C13.0744977,13.1626223 12.6368953,13.575 12.107643,13.575 L11.892357,13.575 C11.3631047,13.575 10.9255023,13.1626223 10.8941169,12.6343014 L10.5889521,7.49736019 C10.542657,6.71805994 11.1368751,6.04878271 11.9161754,6.00248765 C11.9440862,6.00082958 11.97204,6 12,6 Z" id="å½¢çŠ¶ç»“åˆ" fill="#FFFFFF"></path>
            </g>
        </g>
    </g>
</svg>