<?xml version="1.0" encoding="UTF-8"?>
<svg width="24px" height="24px" viewBox="0 0 24 24" version="1.1" xmlns="http://www.w3.org/2000/svg" xmlns:xlink="http://www.w3.org/1999/xlink">
    <!-- Generator: Sketch 61 (89581) - https://sketch.com -->
    <title>图标按钮/语音个人/麦克风/关闭暗夜</title>
    <desc>Created with Sketch.</desc>
    <g id="图标按钮/语音个人/麦克风/关闭暗夜" stroke="none" stroke-width="1" fill="none" fill-rule="evenodd">
        <g id="1.图标占位">
            <rect id="图标占位" x="0" y="0" width="24" height="24"></rect>
        </g>
        <path d="M6,10 C6.55228475,10 7,10.4477153 7,11 C7,13.7614237 9.23857625,16 12,16 C13.6226411,16 15.0647504,15.2270512 15.9782174,14.0292639 L17.7206281,15.0351564 C16.6346643,16.5719133 14.9450808,17.6517491 12.9970025,17.9295392 C12.9991588,17.9523183 13,17.9760609 13,18 L13,20 C13,20.5522847 12.5522847,21 12,21 C11.4477153,21 11,20.5522847 11,20 L11,18 L11.0039996,17.9296821 C7.60975576,17.4461743 5,14.5278577 5,11 C5,10.4477153 5.44771525,10 6,10 Z M9,10 L14.2215765,13.0161173 C13.6727578,13.6205037 12.8806969,14 12,14 C10.3431458,14 9,12.6568542 9,11 L9,10 Z M18,10 C18.5522847,10 19,10.4477153 19,11 C19,11.4252505 18.9620801,11.8416443 18.8894371,12.2459845 L16.9977078,11.1528636 C16.9992323,11.1020957 17,11.0511375 17,11 C17,10.4477153 17.4477153,10 18,10 Z M12,3 C13.6568542,3 15,4.34314575 15,6 L15,9.999 L9,6.536 L9,6 C9,4.34314575 10.3431458,3 12,3 Z" id="话筒" fill-opacity="0.7" fill="#E6EAF0"></path>
        <rect id="禁止" fill-opacity="0.8" fill="#EA4335" transform="translate(12.866025, 10.500000) rotate(-60.000000) translate(-12.866025, -10.500000) " x="12.3660254" y="0.5" width="1" height="20"></rect>
    </g>
</svg>