<?xml version="1.0" standalone="no"?><!DOCTYPE svg PUBLIC "-//W3C//DTD SVG 1.1//EN" "http://www.w3.org/Graphics/SVG/1.1/DTD/svg11.dtd"><svg t="1600318594833" class="icon" viewBox="0 0 1024 1024" version="1.1" xmlns="http://www.w3.org/2000/svg" p-id="4650" xmlns:xlink="http://www.w3.org/1999/xlink" width="200" height="200"><defs><style type="text/css"></style></defs><path d="M540.458667 120.874667a42.666667 42.666667 0 0 1 42.666666 42.666666v36.394667c35.712 8.106667 69.12 22.186667 99.242667 41.130667l25.728-25.728a42.666667 42.666667 0 0 1 60.330667 0l40.234666 40.234666a42.666667 42.666667 0 0 1 0 60.330667l-25.728 25.728c18.944 30.08 33.024 63.573333 41.130667 99.242667h36.394667a42.666667 42.666667 0 0 1 42.666666 42.666666v56.917334a42.666667 42.666667 0 0 1-42.666666 42.666666h-36.394667a318.122667 318.122667 0 0 1-41.130667 99.242667l25.728 25.728a42.666667 42.666667 0 0 1 0 60.330667l-40.234666 40.234666a42.666667 42.666667 0 0 1-60.330667 0l-25.728-25.728a318.122667 318.122667 0 0 1-99.242667 41.130667v36.394667a42.666667 42.666667 0 0 1-42.666666 42.666666h-56.917334a42.666667 42.666667 0 0 1-42.666666-42.666666v-36.394667a318.122667 318.122667 0 0 1-99.242667-41.130667l-25.728 25.728a42.666667 42.666667 0 0 1-60.330667 0l-40.234666-40.234666a42.666667 42.666667 0 0 1 0-60.330667l25.728-25.728a318.122667 318.122667 0 0 1-41.130667-99.242667h-36.394667a42.666667 42.666667 0 0 1-42.666666-42.666666v-56.917334a42.666667 42.666667 0 0 1 42.666666-42.666666h36.394667c8.106667-35.712 22.186667-69.12 41.130667-99.242667l-25.728-25.728a42.666667 42.666667 0 0 1 0-60.330667l40.234666-40.234666a42.666667 42.666667 0 0 1 60.330667 0l25.728 25.728a318.122667 318.122667 0 0 1 99.242667-41.130667v-36.394667a42.666667 42.666667 0 0 1 42.666666-42.666666h56.917334zM512 384a128 128 0 1 0 0 256 128 128 0 0 0 0-256z" fill="rgba(230, 234, 240, 0.7)" p-id="4651"></path></svg>