<?xml version="1.0" encoding="UTF-8"?>
<svg width="24px" height="24px" viewBox="0 0 24 24" version="1.1" xmlns="http://www.w3.org/2000/svg" xmlns:xlink="http://www.w3.org/1999/xlink">
    <!-- Generator: Sketch 61 (89581) - https://sketch.com -->
    <title>图标标识/服务器设置/概况暗夜</title>
    <desc>Created with Sketch.</desc>
    <g id="图标标识/服务器设置/概况暗夜" stroke="none" stroke-width="1" fill="none" fill-rule="evenodd">
        <g id="1.图标占位">
            <rect id="图标占位" x="0" y="0" width="24" height="24"></rect>
        </g>
        <path d="M12.5781579,3.31 C13.1304426,3.31 13.5781579,3.75771525 13.5781579,4.31 L13.5787118,5.06513868 C14.3720141,5.24521564 15.1148922,5.55803279 15.7827592,5.97900316 L16.3162835,5.44416876 C16.7068078,5.05364447 17.3399728,5.05364447 17.7304971,5.44416876 L18.5492523,6.26292398 C18.9397766,6.65344828 18.9397766,7.28661325 18.5492523,7.67713755 L18.015049,8.21166328 C18.43574,8.87933345 18.7483535,9.62194145 18.9283325,10.4149303 L19.6834211,10.4152632 C20.2357058,10.4152632 20.6834211,10.8629784 20.6834211,11.4152632 L20.6834211,12.5731579 C20.6834211,13.1254426 20.2357058,13.5731579 19.6834211,13.5731579 L18.9282824,13.5737118 C18.7482954,14.3666176 18.4357009,15.1091496 18.015049,15.7767578 L18.5492523,16.3112835 C18.9397766,16.7018078 18.9397766,17.3349728 18.5492523,17.7254971 L17.7304971,18.5442523 C17.3399728,18.9347766 16.7068078,18.9347766 16.3162835,18.5442523 L15.7817578,18.010049 C15.1141496,18.4307009 14.3716176,18.7432954 13.5787118,18.9232824 L13.5781579,19.6784211 C13.5781579,20.2307058 13.1304426,20.6784211 12.5781579,20.6784211 L11.4202632,20.6784211 C10.8679784,20.6784211 10.4202632,20.2307058 10.4202632,19.6784211 L10.4199303,18.9233325 C9.62694145,18.7433535 8.88433345,18.43074 8.21666328,18.010049 L7.68213755,18.5442523 C7.29161325,18.9347766 6.65844828,18.9347766 6.26792398,18.5442523 L5.44916876,17.7254971 C5.05864447,17.3349728 5.05864447,16.7018078 5.44916876,16.3112835 L5.98400316,15.7777592 C5.56303279,15.1098922 5.25021564,14.3670141 5.07013868,13.5737118 L4.315,13.5731579 C3.76271525,13.5731579 3.315,13.1254426 3.315,12.5731579 L3.315,11.4152632 C3.315,10.8629784 3.76271525,10.4152632 4.315,10.4152632 L5.07008851,10.4149303 C5.25015753,9.62154496 5.56299369,8.87859086 5.98400316,8.21066183 L5.44916876,7.67713755 C5.05864447,7.28661325 5.05864447,6.65344828 5.44916876,6.26292398 L6.26792398,5.44416876 C6.65844828,5.05364447 7.29161325,5.05364447 7.68213755,5.44416876 L8.21566183,5.97900316 C8.88359086,5.55799369 9.62654496,5.24515753 10.4199303,5.06508851 L10.4202632,4.31 C10.4202632,3.75771525 10.8679784,3.31 11.4202632,3.31 L12.5781579,3.31 Z" id="设置" fill-opacity="0.5" fill="#999BA1"></path>
        <circle id="椭圆形" fill-opacity="0.7" fill="#E6EAF0" cx="12.0021053" cy="12.0021053" r="2.84210526"></circle>
    </g>
</svg>