<?xml version="1.0" encoding="UTF-8"?>
<svg width="24px" height="24px" viewBox="0 0 24 24" version="1.1" xmlns="http://www.w3.org/2000/svg" xmlns:xlink="http://www.w3.org/1999/xlink">
    <title>频道密码-暗色</title>
    <g id="频道密码-暗色" stroke="none" stroke-width="1" fill="none" fill-rule="evenodd">
        <rect id="图标占位" x="0" y="0" width="24" height="24"></rect>
        <path d="M16,9 L16,6.95 C16,4.77 14.21,3 12,3 C9.79,3 8,4.77 8,6.95 L8,9 L7,9 C5.8954305,9 5,9.8954305 5,11 L5,18 C5,19.1045695 5.8954305,20 7,20 L17,20 C18.1045695,20 19,19.1045695 19,18 L19,11 C19,9.8954305 18.1045695,9 17,9 L16,9 L16,9 Z M10,9 L10,6.95 C10,5.86 10.9,4.98 12,4.98 C13.1,4.98 14,5.86 14,6.95 L14,9 L10,9 Z" id="锁定" fill-opacity="0.5" fill="#999BA1"></path>
        <path d="M12,11.5 C13.1045695,11.5 14,12.3954305 14,13.5 C14,14.2398375 13.5982846,14.8858493 13.0010775,15.2318119 L13,16.5 C13,17.0522847 12.5522847,17.5 12,17.5 C11.4477153,17.5 11,17.0522847 11,16.5 L10.9999275,15.2323937 C10.4021661,14.8865739 10,14.2402524 10,13.5 C10,12.3954305 10.8954305,11.5 12,11.5 Z" id="形状结合" fill-opacity="0.7" fill="#E6EAF0"></path>
    </g>
</svg>