<?xml version="1.0" encoding="UTF-8"?>
<svg width="24px" height="24px" viewBox="0 0 24 24" version="1.1" xmlns="http://www.w3.org/2000/svg" xmlns:xlink="http://www.w3.org/1999/xlink">
    <!-- Generator: Sketch 61 (89581) - https://sketch.com -->
    <title>图标按钮/语音个人/麦克风/默认</title>
    <desc>Created with Sketch.</desc>
    <g id="图标按钮/语音个人/麦克风/默认" stroke="none" stroke-width="1" fill="none" fill-rule="evenodd">
        <g id="1.图标占位">
            <rect id="图标占位" x="0" y="0" width="24" height="24"></rect>
        </g>
        <path d="M18,10 C18.5522847,10 19,10.4477153 19,11 C19,14.5275105 16.3907578,17.4455999 12.9970025,17.9295392 C12.9991588,17.9523183 13,17.9760609 13,18 L13,20 C13,20.5522847 12.5522847,21 12,21 C11.4477153,21 11,20.5522847 11,20 L11,18 L11.0039996,17.9296821 C7.60975576,17.4461743 5,14.5278577 5,11 C5,10.4477153 5.44771525,10 6,10 C6.55228475,10 7,10.4477153 7,11 C7,13.7614237 9.23857625,16 12,16 C14.7614237,16 17,13.7614237 17,11 C17,10.4477153 17.4477153,10 18,10 Z M12,3 C13.6568542,3 15,4.34314575 15,6 L15,11 C15,12.6568542 13.6568542,14 12,14 C10.3431458,14 9,12.6568542 9,11 L9,6 C9,4.34314575 10.3431458,3 12,3 Z" id="麦克风" fill="rgba(230, 234, 240, 0.7)"></path>
    </g>
</svg>