<?xml version="1.0" encoding="UTF-8"?>
<svg width="42px" height="42px" viewBox="0 0 42 42" version="1.1" xmlns="http://www.w3.org/2000/svg" xmlns:xlink="http://www.w3.org/1999/xlink">
    <title>换头像</title>
    <defs>
        <circle id="path-1" cx="13" cy="13" r="13"></circle>
        <filter x="-53.8%" y="-38.5%" width="207.7%" height="207.7%" filterUnits="objectBoundingBox" id="filter-2">
            <feOffset dx="0" dy="4" in="SourceAlpha" result="shadowOffsetOuter1"></feOffset>
            <feGaussianBlur stdDeviation="4" in="shadowOffsetOuter1" result="shadowBlurOuter1"></feGaussianBlur>
            <feColorMatrix values="0 0 0 0 0   0 0 0 0 0   0 0 0 0 0  0 0 0 0.12 0" type="matrix" in="shadowBlurOuter1"></feColorMatrix>
        </filter>
    </defs>
    <g id="会员" stroke="none" stroke-width="1" fill="none" fill-rule="evenodd">
        <g id="个人设置-账号设置未认证" transform="translate(-478.000000, -194.000000)">
            <g id="信息" transform="translate(400.000000, 136.000000)">
                <g transform="translate(40.000000, 16.000000)" id="换头像">
                    <g transform="translate(46.000000, 46.000000)">
                        <g id="椭圆形">
                            <use fill="black" fill-opacity="1" filter="url(#filter-2)" xlink:href="#path-1"></use>
                            <use fill="#FFFFFF" fill-rule="evenodd" xlink:href="#path-1"></use>
                        </g>
                        <g id="编组" transform="translate(6.000000, 6.000000)">
                            <rect id="矩形" fill-opacity="0.01" fill="#FFFFFF" opacity="0.2" x="0" y="0" width="14" height="14"></rect>
                            <path d="M3.20833333,6.96091667 L8.679,12.8326667 L2,12.8333333 C0.8954305,12.8333333 1.3527075e-16,11.9379028 0,10.8333333 L0,10.4036667 L3.20833333,6.96091667 Z M10.2083333,9.29425 L13.1600875,12.4626969 C12.8329189,12.6960557 12.4324909,12.8333333 12,12.8333333 L10.274,12.8326667 L8.592,11.0273361 L10.2083333,9.29425 Z M12,1.16666667 C13.1045695,1.16666667 14,2.06209717 14,3.16666667 L14,10.8333333 C14,11.0750741 13.957111,11.3067977 13.8785272,11.5213098 L10.6351046,8.04133181 L10.6060066,8.01223377 C10.3964961,7.8170081 10.0815696,7.8056098 9.85992015,7.97102618 L9.78156202,8.04133181 L7.795,10.1723361 L3.63510464,5.70799848 L3.6060066,5.67890044 C3.39649612,5.48367476 3.08156965,5.47227646 2.85992015,5.63769285 L2.78156202,5.70799848 L0,8.69266667 L0,3.16666667 C-1.3527075e-16,2.06209717 0.8954305,1.16666667 2,1.16666667 L12,1.16666667 Z M10.5,2.91666667 C9.53350169,2.91666667 8.75,3.70016835 8.75,4.66666667 C8.75,5.63316498 9.53350169,6.41666667 10.5,6.41666667 C11.4664983,6.41666667 12.25,5.63316498 12.25,4.66666667 C12.25,3.70016835 11.4664983,2.91666667 10.5,2.91666667 Z" id="形状结合" fill="#999BA1"></path>
                        </g>
                    </g>
                </g>
            </g>
        </g>
    </g>
</svg>