<?xml version="1.0" encoding="UTF-8"?>
<svg width="48px" height="48px" viewBox="0 0 48 48" version="1.1" xmlns="http://www.w3.org/2000/svg" xmlns:xlink="http://www.w3.org/1999/xlink">
    <!-- Generator: Sketch 61 (89581) - https://sketch.com -->
    <title>画板</title>
    <desc>Created with Sketch.</desc>
    <g id="画板" stroke="none" stroke-width="1" fill="none" fill-rule="evenodd">
        <rect id="矩形" x="0" y="0" width="48" height="48"></rect>
        <path d="M5.11925528,6.29733118 L24.0218513,6.29733118 C24.0218513,6.29733118 26.4644452,2 28.9447748,2 L43.0313365,2 C44.1756148,2 45.115557,3.09397966 45.115557,4.43001818 L45.1784295,37.4820545 L45.1784295,37.4820484 C45.1732524,38.8231843 44.086414,39.908624 42.7452739,39.9120752 L5.11298721,39.9120752 L5.11298732,39.9120752 C3.77307208,39.9069051 2.68813954,38.8219722 2.68296912,37.482057 L2.68296912,8.73047648 L2.68296912,8.73047944 C2.68985826,7.38832068 3.77710351,6.30247268 5.11927086,6.29731518 L5.11925528,6.29733118 Z" id="路径" fill="#F9B22B" fill-rule="nonzero"></path>
        <path d="M9.08752909,7.75261979 L37.6589577,7.75261979 C39.8680967,7.75261979 41.6589577,9.54348079 41.6589577,11.7526198 L41.6589577,38.0383341 C41.6589577,40.2474731 39.8680967,42.0383341 37.6589577,42.0383341 L9.08752909,42.0383341 C6.87839009,42.0383341 5.08752909,40.2474731 5.08752909,38.0383341 L5.08752909,11.7526198 C5.08752909,9.54348079 6.87839009,7.75261979 9.08752909,7.75261979 Z" id="矩形" fill="#FAF8F5" transform="translate(23.373243, 24.895477) rotate(-7.000000) translate(-23.373243, -24.895477) "></path>
        <path d="M36,11 C37.1045695,11 38,11.8954305 38,13 L38,25 C38,26.1045695 37.1045695,27 36,27 L28,27 C26.8954305,27 26,26.1045695 26,25 L26,13 C26,11.8954305 26.8954305,11 28,11 L36,11 Z M22.5,21 C23.3284271,21 24,21.6715729 24,22.5 C24,23.3284271 23.3284271,24 22.5,24 L8.5,24 C7.67157288,24 7,23.3284271 7,22.5 C7,21.6715729 7.67157288,21 8.5,21 L22.5,21 Z M22.5,16 C23.3284271,16 24,16.6715729 24,17.5 C24,18.3284271 23.3284271,19 22.5,19 L8.5,19 C7.67157288,19 7,18.3284271 7,17.5 C7,16.6715729 7.67157288,16 8.5,16 L22.5,16 Z M22.5,11 C23.3284271,11 24,11.6715729 24,12.5 C24,13.3284271 23.3284271,14 22.5,14 L8.5,14 C7.67157288,14 7,13.3284271 7,12.5 C7,11.6715729 7.67157288,11 8.5,11 L22.5,11 Z" id="形状结合" fill="#D2D7E0" transform="translate(22.500000, 19.000000) scale(-1, 1) rotate(7.000000) translate(-22.500000, -19.000000) "></path>
        <path d="M44.7054897,20.9452456 L23.3697122,20.9452456 C23.3697122,20.9452456 20.9271183,17 18.4467887,17 L2.15023648,17 C1.00595826,17 -2.73558953e-13,17.9022194 -2.73558953e-13,18.9899112 L2.20996468,42.7085414 C2.20996468,43.7962332 3.30394434,44.6858812 4.64312893,44.6858812 L42.4923316,44.6858812 C43.8315162,44.6858812 44.9254959,43.7962375 44.9254959,42.7053996 L47.1354606,22.9257271 C47.1354606,21.8348892 46.0414809,20.9452456 44.7054424,20.9452456 L44.7054897,20.9452456 Z" id="路径" fill="#66CCCC" fill-rule="nonzero"></path>
        <text id="FILE" font-family="AlibabaPuHuiTi-Heavy, Alibaba PuHuiTi" font-size="14" font-weight="600" letter-spacing="1" fill="#FFFFFF">
            <tspan x="9" y="37">FILE</tspan>
        </text>
    </g>
</svg>