<?xml version="1.0" encoding="UTF-8"?>
<svg width="24px" height="24px" viewBox="0 0 24 24" version="1.1" xmlns="http://www.w3.org/2000/svg" xmlns:xlink="http://www.w3.org/1999/xlink">
    <title>前进</title>
    <g id="前进" stroke="none" stroke-width="1" fill="none" fill-rule="evenodd">
        <rect id="图标占位" x="0" y="0" width="24" height="24"></rect>
        <path d="M12.4696699,6.46966991 C12.7359365,6.20340335 13.1526002,6.1791973 13.4462117,6.39705176 L13.5303301,6.46966991 L18.5303301,11.4696699 L18.5659302,11.5078215 L18.5659302,11.5078215 L18.6161641,11.5721748 L18.6161641,11.5721748 L18.6680484,11.6586772 L18.6680484,11.6586772 L18.717005,11.7794817 L18.717005,11.7794817 L18.7415226,11.8872256 L18.7415226,11.8872256 C18.7471153,11.9238893 18.75,11.9616078 18.75,12 C18.75,12.0507762 18.7449541,12.1003738 18.7353365,12.1483189 L18.7119519,12.2363675 L18.7119519,12.2363675 L18.6712473,12.3350073 L18.6712473,12.3350073 L18.627253,12.4113158 L18.627253,12.4113158 L18.5937281,12.4583026 L18.5937281,12.4583026 L18.5303301,12.5303301 L13.5303301,17.5303301 L13.4462117,17.6029482 C13.1852237,17.7965966 12.8270092,17.7989874 12.5636206,17.6101204 L12.4696699,17.5303301 L12.3970518,17.4462117 C12.2034034,17.1852237 12.2010126,16.8270092 12.3898796,16.5636206 L12.4696699,16.4696699 L16.189,12.75 L6,12.75 L5.89822944,12.7431534 C5.53215388,12.693491 5.25,12.3796958 5.25,12 C5.25,11.6203042 5.53215388,11.306509 5.89822944,11.2568466 L6,11.25 L16.189,11.25 L12.4696699,7.53033009 L12.3970518,7.44621165 C12.1791973,7.15260016 12.2034034,6.73593648 12.4696699,6.46966991 Z" id="路径" fill="#E6EAF0" fill-rule="nonzero"></path>
    </g>
</svg>