<?xml version="1.0" encoding="UTF-8"?>
<svg width="24px" height="24px" viewBox="0 0 24 24" version="1.1" xmlns="http://www.w3.org/2000/svg" xmlns:xlink="http://www.w3.org/1999/xlink">
    <title>后退</title>
    <g id="后退" stroke="none" stroke-width="1" fill="none" fill-rule="evenodd">
        <rect id="图标占位" transform="translate(12.000000, 12.000000) scale(-1, 1) translate(-12.000000, -12.000000) " x="0" y="0" width="24" height="24"></rect>
        <path d="M11.5303301,6.46966991 C11.7965966,6.73593648 11.8208027,7.15260016 11.6029482,7.44621165 L11.5303301,7.53033009 L7.811,11.25 L18,11.25 C18.4142136,11.25 18.75,11.5857864 18.75,12 C18.75,12.3796958 18.4678461,12.693491 18.1017706,12.7431534 L18,12.75 L7.811,12.75 L11.5303301,16.4696699 C11.7965966,16.7359365 11.8208027,17.1526002 11.6029482,17.4462117 L11.5303301,17.5303301 C11.2640635,17.7965966 10.8473998,17.8208027 10.5537883,17.6029482 L10.4696699,17.5303301 L5.46966991,12.5303301 C5.43261664,12.4932768 5.40025089,12.4533111 5.37257267,12.4111698 L5.32230508,12.3217704 L5.32230508,12.3217704 L5.2822748,12.2181555 L5.2822748,12.2181555 C5.26135317,12.1496769 5.25,12.0761643 5.25,12 L5.25213791,11.9429426 L5.25213791,11.9429426 L5.26464433,11.8521073 L5.26464433,11.8521073 L5.27297224,11.8151075 L5.27297224,11.8151075 L5.30845243,11.7092386 L5.30845243,11.7092386 L5.34163501,11.640349 L5.34163501,11.640349 L5.39705176,11.5537883 L5.39705176,11.5537883 C5.42217116,11.5205706 5.44507007,11.4942698 5.46966991,11.4696699 L10.4696699,6.46966991 C10.7625631,6.1767767 11.2374369,6.1767767 11.5303301,6.46966991 Z" id="路径" fill="#E6EAF0" fill-rule="nonzero"></path>
    </g>
</svg>