<?xml version="1.0" encoding="UTF-8"?>
<svg width="44px" height="44px" viewBox="0 0 44 44" version="1.1" xmlns="http://www.w3.org/2000/svg" xmlns:xlink="http://www.w3.org/1999/xlink">
    <title>服务器表情</title>
    <g id="会员" stroke="none" stroke-width="1" fill="none" fill-rule="evenodd">
        <g id="服务器表情">
            <circle id="椭圆形" fill="#FF954A" cx="22" cy="22" r="22"></circle>
            <g id="图标标识/emoji/人物" transform="translate(6.000000, 6.000000)" fill="#FFFFFF">
                <g id="编组" fill-opacity="0.01" opacity="0.2">
                    <g id="1.图标占位">
                        <rect id="图标占位" x="0" y="0" width="32" height="32"></rect>
                    </g>
                </g>
                <path d="M16,5 C22.0736289,5 27,9.94201881 27,16.0100376 C27,22.0779187 22.0736565,27 16,27 C9.92634354,27 5,22.0779187 5,16.0100376 C5,9.94201881 9.92634354,5 16,5 Z M16.2674871,18.8479127 L15.7325414,18.8479127 C12.5244657,18.8516873 9.40006884,18.9353296 9.40006884,19.9573655 C9.40006884,22.6251984 12.3567207,24.3477646 16.0000096,24.3477646 C19.643417,24.3477646 22.6000688,22.6251984 22.6000688,19.9573655 C22.6000688,18.9069397 19.2996836,18.8477646 16.0000096,18.8477646 Z M11.5997234,10.5 C10.9928437,10.5 10.5,11.4856718 10.5,12.7 C10.5,13.9144469 10.9928437,14.9 11.5997234,14.9 C12.2072353,14.9 12.7,13.9144469 12.7,12.7 C12.7,11.4856718 12.2072353,10.5 11.5997234,10.5 Z M20.4001581,10.5 C19.7927982,10.5 19.3,11.4856718 19.3,12.7 C19.3,13.9144469 19.7927824,14.9 20.4001581,14.9 C21.0072176,14.9 21.5,13.9144469 21.5,12.7 C21.5,11.4856718 21.0072176,10.5 20.4001581,10.5 Z" id="形状结合"></path>
            </g>
        </g>
    </g>
</svg>