<?xml version="1.0" encoding="UTF-8"?>
<svg width="24px" height="24px" viewBox="0 0 24 24" version="1.1" xmlns="http://www.w3.org/2000/svg" xmlns:xlink="http://www.w3.org/1999/xlink">
    <!-- Generator: Sketch 61 (89581) - https://sketch.com -->
    <title>图标标识/服务器设置/角色权限</title>
    <desc>Created with Sketch.</desc>
    <g id="图标标识/服务器设置/角色权限" stroke="none" stroke-width="1" fill="none" fill-rule="evenodd">
        <g id="1.图标占位">
            <rect id="图标占位" x="0" y="0" width="24" height="24"></rect>
        </g>
        <path d="M11.0258916,4 C13.1289911,4.01781296 14.7088508,5.69421079 14.8061978,7.76447303 C14.8794017,9.15161747 14.4388185,10.4962313 13.7647335,11.5264626 C12.1259581,12.34612 11,14.0415692 11,16 C11,17.603684 11.7549938,19.0310297 12.9289298,19.9459857 C12.3148464,19.9814907 11.6701973,20 11.0056109,20 C6.6858404,20 3.17526631,19.2102919 3.17526631,18.2305789 C3.05966682,17.759525 2.63580201,16.8946066 3.75326378,15.3132113 C4.64155462,14.0702622 7.70798329,13.260762 8.96132516,12.4334488 C7.90064911,11.3607125 7.0894246,9.61108362 7.18677154,7.74666007 C7.28411848,5.69421079 8.88425883,4.01979218 10.9873584,4 L10.9873584,4 Z" id="形状结合" fill="#BBBEC4"></path>
        <path d="M16,12 C16.4016616,12 16.7272727,12.3256111 16.7272727,12.7272727 L16.727465,12.8084133 C17.0926949,12.8913116 17.4347217,13.0352938 17.7422365,13.2290509 L17.7999082,13.1715729 C18.0839258,12.8875552 18.5444095,12.8875552 18.8284271,13.1715729 C19.1124448,13.4555905 19.1124448,13.9160742 18.8284271,14.2000918 L18.7709491,14.2577635 C18.9647062,14.5652783 19.1086884,14.9073051 19.1915867,15.272535 L19.2727273,15.2727273 C19.6743889,15.2727273 20,15.5983384 20,16 C20,16.4016616 19.6743889,16.7272727 19.2727273,16.7272727 L19.1915867,16.727465 C19.1086884,17.0926949 18.9647062,17.4347217 18.7709491,17.7422365 L18.8284271,17.7999082 C19.1124448,18.0839258 19.1124448,18.5444095 18.8284271,18.8284271 C18.5444095,19.1124448 18.0839258,19.1124448 17.7999082,18.8284271 L17.7422365,18.7709491 C17.4347217,18.9647062 17.0926949,19.1086884 16.727465,19.1915867 L16.7272727,19.2727273 C16.7272727,19.6743889 16.4016616,20 16,20 C15.5983384,20 15.2727273,19.6743889 15.2727273,19.2727273 L15.272535,19.1915867 C14.9073051,19.1086884 14.5652783,18.9647062 14.2577635,18.7709491 L14.2000918,18.8284271 C13.9160742,19.1124448 13.4555905,19.1124448 13.1715729,18.8284271 C12.8875552,18.5444095 12.8875552,18.0839258 13.1715729,17.7999082 L13.2290509,17.7422365 C13.0352938,17.4347217 12.8913116,17.0926949 12.8084133,16.727465 L12.7272727,16.7272727 C12.3256111,16.7272727 12,16.4016616 12,16 C12,15.5983384 12.3256111,15.2727273 12.7272727,15.2727273 L12.8084133,15.272535 C12.8913116,14.9073051 13.0352938,14.5652783 13.2290509,14.2577635 L13.1715729,14.2000918 C12.8875552,13.9160742 12.8875552,13.4555905 13.1715729,13.1715729 C13.4555905,12.8875552 13.9160742,12.8875552 14.2000918,13.1715729 L14.2577635,13.2290509 C14.5652783,13.0352938 14.9073051,12.8913116 15.272535,12.8084133 L15.2727273,12.7272727 C15.2727273,12.3256111 15.5983384,12 16,12 Z M16,14.6909091 C15.2770091,14.6909091 14.6909091,15.2770091 14.6909091,16 C14.6909091,16.7229909 15.2770091,17.3090909 16,17.3090909 C16.7229909,17.3090909 17.3090909,16.7229909 17.3090909,16 C17.3090909,15.2770091 16.7229909,14.6909091 16,14.6909091 Z" id="设置" fill="#66686B"></path>
    </g>
</svg>