<?xml version="1.0" encoding="UTF-8"?>
<svg width="24px" height="24px" viewBox="0 0 24 24" version="1.1" xmlns="http://www.w3.org/2000/svg" xmlns:xlink="http://www.w3.org/1999/xlink">
    <!-- Generator: Sketch 61 (89581) - https://sketch.com -->
    <title>图标标识/服务器设置/工具暗夜</title>
    <desc>Created with Sketch.</desc>
    <g id="图标标识/服务器设置/工具暗夜" stroke="none" stroke-width="1" fill="none" fill-rule="evenodd">
        <g id="0.占位">
            <rect id="图标占位" x="0" y="0" width="24" height="24"></rect>
        </g>
        <path d="M20.0653396,8.06629834 L17.5902014,10.5414365 C17.3250081,10.8066298 16.6178258,10.718232 16.6178258,10.718232 C16.6178258,10.718232 14.5846766,10.4530387 14.2310854,10.1878453 C13.9658921,9.92265192 13.7006987,7.71270717 13.7006987,7.71270719 C13.7006987,7.7127072 13.6123009,7.09392266 13.9658921,6.82872928 L16.4410302,4.35359116 C16.4410302,4.35359116 16.7062236,4 16.3526324,4 C15.0266655,4 12.3747318,4 11.048765,5.32596684 L10.7835716,5.59116022 C9.28080918,7.09392266 9.1040136,9.39226519 10.2531849,11.0718232 L5.21451083,15.5801105 C4.5957263,16.198895 3.97694177,17.9668508 5.21451083,19.2044199 C6.45207989,20.441989 8.30843349,19.8232044 8.83882024,19.2044199 C8.83882024,19.2044199 12.4631296,15.1381215 13.3471075,14.1657459 C15.0266655,15.3149171 17.3250081,15.2265193 18.8277705,13.7237569 L19.0929639,13.4585635 C20.3305329,12.2209945 20.4189307,9.48066298 20.4189307,8.15469613 C20.4189307,7.80110497 20.0653396,8.06629833 20.0653396,8.06629834 Z" id="路径" fill-opacity="0.5" fill="#999BA1"></path>
        <path d="M7.33276244,18.5856354 C6.53718233,18.5856354 5.83,17.878453 5.83,17.0828729 C5.83,16.2872928 6.53718233,15.5801105 7.33276244,15.5801105 C8.12834255,15.5801105 8.83552487,16.2872928 8.83552487,17.0828729 C8.83552487,17.878453 8.21674034,18.5856354 7.33276244,18.5856354 Z" id="路径" fill-opacity="0.7" fill="#E6EAF0"></path>
    </g>
</svg>