<?xml version="1.0" encoding="UTF-8"?>
<svg width="24px" height="24px" viewBox="0 0 24 24" version="1.1" xmlns="http://www.w3.org/2000/svg" xmlns:xlink="http://www.w3.org/1999/xlink">
    <!-- Generator: Sketch 61 (89581) - https://sketch.com -->
    <title>图标标识/服务器设置/成员</title>
    <desc>Created with Sketch.</desc>
    <g id="图标标识/服务器设置/成员" stroke="none" stroke-width="1" fill="none" fill-rule="evenodd">
        <g id="1.图标占位">
            <rect id="图标占位" x="0" y="0" width="24" height="24"></rect>
        </g>
        <path d="M19.9821923,13.745052 C19.460792,12.9861455 17.6609405,12.5111331 16.9261557,12.0138545 C17.5496095,11.3792677 18.0246218,10.3160564 17.9671008,9.2064572 C17.9095798,7.96140524 16.9818212,6.95385948 15.7479024,6.94272637 L15.7256362,6.94272637 C15.5400845,6.94458189 15.3619548,6.97055913 15.1912473,7.01509154 L15.1912473,7.01509154 C15.3642353,7.48752103 15.4631269,7.98386072 15.484419,8.48651658 C15.5586396,9.93196438 15.1281597,11.4349332 14.3321429,12.6298862 C14.565938,12.7375062 14.8201438,12.8469817 15.0799162,12.9601682 C16.4233106,13.5446561 17.8130929,14.1495547 18.4680904,15.1032905 C18.7445625,15.5003711 18.9356807,15.8788966 19.0692779,16.2314448 C19.7929296,16.0533152 20.2568089,15.8176645 20.3198964,15.5560366 C20.3106189,15.5560366 20.7281102,14.8193963 19.9821923,13.745052 L19.9821923,13.745052 Z" id="路径" fill="#66686B"></path>
        <path d="M17.7431357,15.6061356 C16.9304193,14.4241712 14.1248774,13.6819644 12.9781679,12.9063582 C13.9486033,11.9173676 14.6908102,10.2585354 14.6017453,8.52919347 C14.5126805,6.58832261 13.0672327,5.01669965 11.1430615,5 L11.1078067,5 C9.18363549,5.01855517 7.71963252,6.58832261 7.6305677,8.51249381 C7.54150288,10.2603909 8.28370971,11.900668 9.25414514,12.9063582 C8.10743559,13.6819644 5.30189378,14.4408709 4.4891773,15.6061356 C3.4667874,17.0886937 3.85459046,17.8995547 3.96035494,18.3411677 C3.96035494,19.2596487 7.17225499,20 11.1245063,20 C14.9542936,20 18.0604292,19.3116032 18.2719581,18.4302326 C18.2552584,18.4302326 18.9065449,17.2816675 17.7431357,15.6061356 L17.7431357,15.6061356 Z" id="路径" fill="#BBBEC4"></path>
    </g>
</svg>