<?xml version="1.0" encoding="UTF-8"?>
<svg width="24px" height="24px" viewBox="0 0 24 24" version="1.1" xmlns="http://www.w3.org/2000/svg" xmlns:xlink="http://www.w3.org/1999/xlink">
    <title>安全设置-亮色</title>
    <g id="安全设置-亮色" stroke="none" stroke-width="1" fill="none" fill-rule="evenodd">
        <rect id="图标占位" opacity="0.2" x="0" y="0" width="24" height="24"></rect>
        <path d="M19.6208398,5.89318026 C19.3826309,5.70261036 19.0841704,5.59981782 18.7770382,5.60256715 L18.6887543,5.60256715 C18.6709374,5.60256715 18.474751,5.61732408 18.1682598,5.61732408 C17.3411597,5.62126329 16.5159029,5.54028393 15.7059206,5.37570397 C14.4803563,5.11991722 13.0634102,3.9155551 12.6492168,3.67531231 C12.440014,3.56080994 12.2046196,3.50048168 11.9651669,3.5 C11.7261404,3.5031778 11.4914713,3.56333778 11.2813173,3.67531231 C11.0711632,3.78728683 9.75606826,5.07407236 8.31650068,5.37570397 C7.50060059,5.53961198 6.66970735,5.62057831 5.8369451,5.61732408 C5.51383815,5.61732408 5.31765177,5.60256715 5.29983484,5.60256715 L5.22876733,5.60256715 C4.92114669,5.59612567 4.62155342,5.69935735 4.3853661,5.89318026 C4.14346651,6.07927792 4.00149745,6.36393095 4,6.66585303 L4,9.33567651 C4,19.1724482 11.45268,20.43997 11.7573695,20.4836505 C11.8280249,20.4955703 11.8997162,20.5005139 11.9713728,20.4984074 C12.043341,20.5023671 12.1155331,20.4989381 12.1867774,20.4881759 C12.510485,20.4409538 20,19.1657584 20,9.34177604 L20,6.66585303 C19.9932789,6.3665154 19.8549922,6.08470734 19.6208398,5.89318026 L19.6208398,5.89318026 Z" id="路径" fill="#BBBEC4"></path>
        <path d="M15.6198528,13.6566056 C15.1757073,13.0262246 13.642493,12.630381 13.0158221,12.2167244 C13.5461601,11.6892627 13.9517724,10.8045522 13.9030989,9.88223652 C13.8544254,8.84710539 13.0644956,8.00890648 12.0129458,8 L11.9936792,8 C10.9421294,8.00989609 10.1420592,8.84710539 10.0933858,9.87333003 C10.0447123,10.8055418 10.4503246,11.6803563 10.9806626,12.2167244 C10.3539916,12.630381 8.82077731,13.0351311 8.37663189,13.6566056 C7.81790101,14.4473033 8.02983341,14.8797625 8.08763316,15.1152895 C8.08763316,15.605146 9.8429202,16 12.0028055,16 C14.0957647,16 15.793252,15.632855 15.9088515,15.1627907 C15.8997252,15.1627907 16.25565,14.5502227 15.6198528,13.6566056 L15.6198528,13.6566056 Z" id="路径" fill="#66686B"></path>
    </g>
</svg>