<?xml version="1.0" encoding="UTF-8"?>
<svg width="24px" height="24px" viewBox="0 0 24 24" version="1.1" xmlns="http://www.w3.org/2000/svg" xmlns:xlink="http://www.w3.org/1999/xlink">
    <!-- Generator: Sketch 61 (89581) - https://sketch.com -->
    <title>图标标识/服务器设置/表情暗夜</title>
    <desc>Created with Sketch.</desc>
    <g id="图标标识/服务器设置/表情暗夜" stroke="none" stroke-width="1" fill="none" fill-rule="evenodd">
        <g id="1.图标占位">
            <rect id="图标占位" x="0" y="0" width="24" height="24"></rect>
        </g>
        <path d="M12,3.5 C16.6944204,3.5 20.5,7.30557963 20.5,12 C20.5,16.6944204 16.6944204,20.5 12,20.5 C7.30557963,20.5 3.5,16.6944204 3.5,12 C3.5,7.30557963 7.30557963,3.5 12,3.5 Z" id="路径" fill-opacity="0.5" fill="#999BA1"></path>
        <path d="M14.3181818,14.125 C14.6382559,14.125 14.8977273,14.3844713 14.8977273,14.7045455 C14.8977273,15.6647678 14.1193133,16.4431818 13.1590909,16.4431818 C12.7136951,16.4431818 12.307416,16.2757032 11.9997938,16.0002863 C11.6934456,16.2753478 11.2867772,16.4431818 10.8409091,16.4431818 C9.88068674,16.4431818 9.10227273,15.6647678 9.10227273,14.7045455 C9.10227273,14.3844713 9.36174407,14.125 9.68181818,14.125 C9.97521946,14.125 10.2176976,14.343028 10.2560731,14.6259046 L10.2613636,14.7045455 C10.2613636,15.0246196 10.520835,15.2840909 10.8409091,15.2840909 C11.1343104,15.2840909 11.3767885,15.0660629 11.415164,14.7831863 L11.4204545,14.7045455 C11.4204545,14.3844713 11.6799259,14.125 12,14.125 C12.076067,14.125 12.1487112,14.1396548 12.2152632,14.1662952 C12.2609575,14.1846229 12.3034516,14.2083626 12.342272,14.2368187 C12.3611056,14.2509087 12.3741752,14.2616415 12.3867493,14.2729158 C12.3957691,14.2810126 12.4042951,14.289146 12.4125673,14.2975304 C12.4240344,14.3091112 12.4356696,14.3219591 12.4467176,14.3353104 C12.4547704,14.3450458 12.4624458,14.3549586 12.4697997,14.3651194 C12.4794349,14.3784274 12.4885699,14.3922466 12.4971124,14.4064623 C12.5042111,14.4182664 12.5109888,14.4305167 12.5173259,14.4430279 C12.5231788,14.4546011 12.5285097,14.4660561 12.53347,14.4777068 C12.5405417,14.4942947 12.5469455,14.5115409 12.5525307,14.5291515 C12.5560319,14.5401851 12.5592332,14.551447 12.562097,14.5628429 C12.5668153,14.5816079 12.5706298,14.6008122 12.5734713,14.6203321 C12.5737787,14.6224531 12.5740206,14.6241776 12.5742549,14.6259046 L12.5795455,14.7045455 C12.5795455,15.0246196 12.8390168,15.2840909 13.1590909,15.2840909 C13.4524922,15.2840909 13.6949703,15.0660629 13.7333458,14.7831863 L13.7386364,14.7045455 C13.7386364,14.3844713 13.9981077,14.125 14.3181818,14.125 Z" id="表情" fill-opacity="0.7" fill="#E6EAF0"></path>
        <path d="M17.3276354,7.27777778 C18.2133688,7.27777778 18.9936051,7.86036155 19.2452316,8.70960112 L19.6604938,10.1111111 C20.0066876,11.279515 19.3401546,12.507339 18.1717507,12.8535327 C17.9682638,12.9138251 17.7571427,12.9444444 17.5449114,12.9444444 L15.9444444,12.9444444 C14.2875902,12.9444444 12.9444444,11.6012987 12.9444444,9.94444444 L12.9435945,9.16577778 L11.0545945,9.16577778 L11.0555556,9.94444444 C11.0555556,11.6012987 9.71240981,12.9444444 8.05555556,12.9444444 L6.45508856,12.9444444 C5.23647551,12.9444444 4.24859445,11.9565634 4.24859445,10.7379503 C4.24859445,10.5257191 4.27921376,10.314598 4.33950617,10.1111111 L4.75476839,8.70960112 C5.00639493,7.86036155 5.78663116,7.27777778 6.67236462,7.27777778 L17.3276354,7.27777778 Z" id="形状结合" fill-opacity="0.7" fill="#E6EAF0"></path>
    </g>
</svg>