<?xml version="1.0" encoding="UTF-8"?>
<svg width="24px" height="24px" viewBox="0 0 24 24" version="1.1" xmlns="http://www.w3.org/2000/svg" xmlns:xlink="http://www.w3.org/1999/xlink">
    <!-- Generator: Sketch 61 (89581) - https://sketch.com -->
    <title>图标标识/服务器设置/删除服务器</title>
    <desc>Created with Sketch.</desc>
    <g id="图标标识/服务器设置/删除服务器" stroke="none" stroke-width="1" fill="none" fill-rule="evenodd">
        <rect id="图标占位" x="0" y="0" width="24" height="24"></rect>
        <path d="M5.98959236,5.98959236 C9.30904884,2.67013588 14.6909512,2.67013588 18.0104076,5.98959236 C21.3298641,9.30904884 21.3298641,14.6909512 18.0104076,18.0104076 C14.6909512,21.3298641 9.30904884,21.3298641 5.98959236,18.0104076 C2.67013588,14.6909512 2.67013588,9.30904884 5.98959236,5.98959236 Z M9.81439722,8.72159583 C9.51262845,8.41982706 9.0233646,8.41982706 8.72159583,8.72159583 C8.41982706,9.0233646 8.41982706,9.51262845 8.72159583,9.81439722 L8.72159583,9.81439722 L10.9072693,12.0002693 L8.72159583,14.1856028 C8.41982706,14.4873715 8.41982706,14.9766354 8.72159583,15.2784042 C9.0233646,15.5801729 9.51262845,15.5801729 9.81439722,15.2784042 L9.81439722,15.2784042 L12.0002693,13.0932693 L14.1856028,15.2784042 C14.4873715,15.5801729 14.9766354,15.5801729 15.2784042,15.2784042 C15.5801729,14.9766354 15.5801729,14.4873715 15.2784042,14.1856028 L15.2784042,14.1856028 L13.0932693,12.0002693 L15.2784042,9.81439722 C15.5801729,9.51262845 15.5801729,9.0233646 15.2784042,8.72159583 C14.9766354,8.41982706 14.4873715,8.41982706 14.1856028,8.72159583 L14.1856028,8.72159583 L12.0002693,10.9072693 Z" id="形状结合" fill="#ffffff"></path>
    </g>
</svg>