<?xml version="1.0" encoding="UTF-8"?>
<svg width="24px" height="24px" viewBox="0 0 24 24" version="1.1" xmlns="http://www.w3.org/2000/svg" xmlns:xlink="http://www.w3.org/1999/xlink">
    <!-- Generator: Sketch 61 (89581) - https://sketch.com -->
    <title>图标标识/服务器设置/邀请暗夜</title>
    <desc>Created with Sketch.</desc>
    <g id="图标标识/服务器设置/邀请暗夜" stroke="none" stroke-width="1" fill="none" fill-rule="evenodd">
        <g id="1.图标占位">
            <rect id="图标占位" x="0" y="0" width="24" height="24"></rect>
        </g>
        <path d="M18.6578947,4.5 C19.0503076,4.5 19.3684211,4.81811347 19.3684211,5.21052632 L19.3677895,6.631 L20.7894737,6.63157895 C21.1818865,6.63157895 21.5,6.94969241 21.5,7.34210526 C21.5,7.73451811 21.1818865,8.05263158 20.7894737,8.05263158 L19.3677895,8.052 L19.3684211,9.47368421 C19.3684211,9.86609706 19.0503076,10.1842105 18.6578947,10.1842105 C18.2654819,10.1842105 17.9473684,9.86609706 17.9473684,9.47368421 L17.9467895,8.052 L16.5263158,8.05263158 C16.1339029,8.05263158 15.8157895,7.73451811 15.8157895,7.34210526 C15.8157895,6.94969241 16.1339029,6.63157895 16.5263158,6.63157895 L17.9467895,6.631 L17.9473684,5.21052632 C17.9473684,4.81811347 18.2654819,4.5 18.6578947,4.5 Z" id="形状结合" fill-opacity="0.7" fill="#E6EAF0"></path>
        <path d="M17.9376158,15.4546212 C17.0960771,14.2602151 14.1910394,13.5101956 13.0036629,12.7264252 C14.0085139,11.7270241 14.7770424,10.0507305 14.684819,8.30318498 C14.5925955,6.3418839 13.0958863,4.75371754 11.1034762,4.73684211 L11.0669711,4.73684211 C9.074561,4.75559259 7.55863856,6.3418839 7.46641514,8.28630954 C7.37419172,10.0526055 8.14272021,11.7101487 9.14757121,12.7264252 C7.96019469,13.5101956 5.05515701,14.2770905 4.21361832,15.4546212 C3.15497033,16.9527852 3.55652646,17.7721816 3.66604177,18.2184432 C3.66604177,19.1465924 6.9918488,19.8947368 11.084263,19.8947368 C15.04987,19.8947368 18.2661617,19.1990937 18.4851923,18.3084455 C18.4679004,18.3084455 19.1422842,17.1477903 17.9376158,15.4546212 L17.9376158,15.4546212 Z" id="路径" fill-opacity="0.5" fill="#999BA1"></path>
    </g>
</svg>