<?xml version="1.0" encoding="UTF-8"?>
<svg width="32px" height="32px" viewBox="0 0 32 32" version="1.1" xmlns="http://www.w3.org/2000/svg" xmlns:xlink="http://www.w3.org/1999/xlink">
    <title>服务器助力</title>
    <g id="服务器助力" stroke="none" stroke-width="1" fill="none" fill-rule="evenodd">
        <g id="服务器助力面状">
            <rect id="矩形" x="0" y="0" width="32" height="32"></rect>
            <path d="M11.5946382,0 L20.4053618,0 C22.0622161,0 23.4053618,1.34314575 23.4053618,3 C23.4053618,3.1799748 23.3891665,3.35958452 23.3569716,3.53665631 L22,11 L10,11 L8.64302842,3.53665631 C8.34664132,1.90652727 9.4278528,0.344777368 11.0579818,0.0483902697 C11.2350536,0.0161953985 11.4146633,0 11.5946382,0 Z" id="矩形" fill="#8B72E6"></path>
            <rect id="矩形备份" fill="#C0AEFF" x="14" y="0" width="4" height="7"></rect>
            <circle id="椭圆形" fill="#FFBB00" cx="16" cy="19" r="13"></circle>
            <path d="M11,14 C12.6666667,14.6666667 14.3333333,15 16,15 C17.6666667,15 19.3333333,14.6666667 21,14 C20.3333333,15.6666667 20,17.3333333 20,19 C20,20.6666667 20.3333333,22.3333333 21,24 C19.3333333,23.3333333 17.6666667,23 16,23 C14.3333333,23 12.6666667,23.3333333 11,24 C11.6666667,22.3333333 12,20.6666667 12,19 C12,17.3333333 11.6666667,15.6666667 11,14 Z" id="矩形" fill="#FFFFFF" transform="translate(16.000000, 19.000000) rotate(45.000000) translate(-16.000000, -19.000000) "></path>
        </g>
    </g>
</svg>