<?xml version="1.0" encoding="UTF-8"?>
<svg width="24px" height="24px" viewBox="0 0 24 24" version="1.1" xmlns="http://www.w3.org/2000/svg" xmlns:xlink="http://www.w3.org/1999/xlink">
    <title>查看文档-亮色</title>
    <g id="查看文档-亮色" stroke="none" stroke-width="1" fill="none" fill-rule="evenodd">
        <g>
            <rect id="矩形备份-5" opacity="0.2" x="0" y="0" width="24" height="24"></rect>
            <path d="M20,7.7 L13.5434873,11.5739076 C12.5934401,12.1439359 11.4065599,12.1439359 10.4565127,11.5739076 L4,7.7 L4,7.7 L4,5 C4,3.34314575 5.34314575,2 7,2 L17,2 C18.6568542,2 20,3.34314575 20,5 L20,7.7 L20,7.7 Z" id="路径" fill="#66CCCC"></path>
            <rect id="矩形备份-4" fill="#FFFFFF" opacity="0.900000036" x="7" y="5" width="10" height="2" rx="1"></rect>
            <path d="M5.02899151,9.81739491 L10.4565127,13.0739076 C11.4065599,13.6439359 12.5934401,13.6439359 13.5434873,13.0739076 L18.9710085,9.81739491 C19.918169,9.24909859 21.1466895,9.55622872 21.7149859,10.5033892 C21.9014843,10.8142201 22,11.1698929 22,11.5323808 L22,18 C22,19.6568542 20.6568542,21 19,21 L5,21 C3.34314575,21 2,19.6568542 2,18 L2,11.5323808 C2,10.4278113 2.8954305,9.53238076 4,9.53238076 C4.36248789,9.53238076 4.71816071,9.63089642 5.02899151,9.81739491 Z" id="矩形" fill="#66686B"></path>
        </g>
    </g>
</svg>