<?xml version="1.0" encoding="UTF-8"?>
<svg width="44px" height="44px" viewBox="0 0 44 44" version="1.1" xmlns="http://www.w3.org/2000/svg" xmlns:xlink="http://www.w3.org/1999/xlink">
    <title>优质通话</title>
    <g id="会员" stroke="none" stroke-width="1" fill="none" fill-rule="evenodd">
        <g id="优质通话">
            <circle id="椭圆形" fill="#FF8097" cx="22" cy="22" r="22"></circle>
            <g id="编组-28" transform="translate(7.000000, 6.000000)" fill="#FFFFFF">
                <g id="编组" fill-opacity="0.01" opacity="0.2">
                    <g id="1.图标占位">
                        <rect id="图标占位" x="0" y="0" width="32" height="32"></rect>
                    </g>
                </g>
                <g id="图标标识/语音频道" transform="translate(4.000000, 6.000000)">
                    <path d="M12.6080738,0.131567514 C12.753762,0.310081231 12.8333333,0.533429427 12.8333333,0.763846865 L12.8333333,19.2430163 C12.8333333,19.795301 12.3856181,20.2430163 11.8333333,20.2430163 C11.6062618,20.2430163 11.3859513,20.1657355 11.2086383,20.0238851 L6.02391399,15.8761057 C5.84660094,15.7342552 5.62629044,15.6569745 5.39921894,15.6569745 L1.08333333,15.6569745 C0.531048584,15.6569745 0.0833333333,15.2092592 0.0833333333,14.6569745 L0.0833333333,5.4378075 C0.0833333333,4.88552275 0.531048584,4.4378075 1.08333333,4.4378075 L5.39373419,4.4378075 C5.62415163,4.4378075 5.84749983,4.35823617 6.02601354,4.21254799 L11.201054,-0.0108936226 C11.6289313,-0.360091866 12.2588756,-0.296309842 12.6080738,0.131567514 Z M20.6679676,3.57234017 C21.9804033,4.88477584 23.1041667,7.35705528 23.1041667,9.9903078 C23.1041667,12.6235603 21.9804033,15.0958398 20.6679676,16.4082754 C20.2530356,16.8232075 19.5802978,16.8232075 19.1653657,16.4082754 C18.7504337,15.9933434 18.7504337,15.3206056 19.1653657,14.9056735 C20.0959856,13.9750536 20.9791667,12.0320553 20.9791667,9.9903078 C20.9791667,7.94856031 20.0959856,6.00556198 19.1653657,5.07494208 C18.7504337,4.66001002 18.7504337,3.98727223 19.1653657,3.57234017 C19.5802978,3.15740811 20.2530356,3.15740811 20.6679676,3.57234017 Z M16.4738022,5.75767192 C17.547271,7.01161316 18.1216692,8.40136639 18.1216692,9.9903078 C18.1216692,11.5860647 17.5496671,12.9718086 16.472275,14.2247237 C16.0896801,14.6696489 15.4188426,14.7201776 14.9739174,14.3375828 C14.5289922,13.9549879 14.4784635,13.2841504 14.8610584,12.8392252 C15.6228886,11.9532816 15.9966692,11.0477533 15.9966692,9.9903078 C15.9966692,8.93944257 15.6198692,8.02777708 14.8595311,7.13961034 C14.4779194,6.69384169 14.5299288,6.02311734 14.9756975,5.64150558 C15.4214661,5.25989382 16.0921905,5.31190326 16.4738022,5.75767192 Z" id="语音频道标识"></path>
                </g>
            </g>
        </g>
    </g>
</svg>