<?xml version="1.0" encoding="UTF-8"?>
<svg width="24px" height="24px" viewBox="0 0 24 24" version="1.1" xmlns="http://www.w3.org/2000/svg" xmlns:xlink="http://www.w3.org/1999/xlink">
    <!-- Generator: Sketch 61 (89581) - https://sketch.com -->
    <title>图标按钮/语音个人/耳机/关闭</title>
    <desc>Created with Sketch.</desc>
    <g id="图标按钮/语音个人/耳机/关闭" stroke="none" stroke-width="1" fill="none" fill-rule="evenodd">
        <g id="1.图标占位">
            <rect id="图标占位" x="0" y="0" width="24" height="24"></rect>
        </g>
        <path d="M14.500494,14.1765283 L19.4479192,17.0318195 C19.3605106,17.254741 19.2629546,17.4740908 19.1554175,17.6891649 L19,18 L19,18.5 C19,19.6045695 18.1045695,20.5 17,20.5 L16,20.5 C14.8954305,20.5 14,19.6045695 14,18.5 L14,15.5 C14,14.9925084 14.1890182,14.5291644 14.500494,14.1765283 Z M4.44251096,8.36955548 L6.21737315,9.39392535 C6.09488403,9.83590287 6.02170718,10.2983803 6.00413847,10.7750617 L6,11 L5.99992752,13.7676063 C6.29411727,13.5974103 6.63568294,13.5 7,13.5 L8,13.5 C9.1045695,13.5 10,14.3954305 10,15.5 L10,18.5 C10,19.6045695 9.1045695,20.5 8,20.5 L7,20.5 C5.8954305,20.5 5,19.6045695 5,18.5 L5,18 L4.84458247,17.6891649 C4.28916073,16.5783215 4,15.3534169 4,14.1114562 L4,11 C4,10.0784928 4.15580569,9.19337588 4.44251096,8.36955548 Z M12,3 C16.3349143,3 19.8645429,6.44783777 19.9961932,10.7508207 L20,11 L20,13.886 L18.001,12.732 L18,11 C18,7.6862915 15.3137085,5 12,5 C10.3235647,5 8.80771311,5.68754021 7.71903723,6.79602851 L5.94502098,5.77129801 C7.41198649,4.0740209 9.58056773,3 12,3 Z" id="耳机" fill="#66686B"></path>
        <rect id="禁止" fill="#EA4335" transform="translate(12.433013, 11.250000) rotate(-60.000000) translate(-12.433013, -11.250000) " x="11.9330127" y="0.25" width="1" height="22"></rect>
    </g>
</svg>