<?xml version="1.0" encoding="UTF-8"?>
<svg width="20px" height="20px" viewBox="0 0 20 20" version="1.1" xmlns="http://www.w3.org/2000/svg" xmlns:xlink="http://www.w3.org/1999/xlink">
    <!-- Generator: Sketch 61 (89581) - https://sketch.com -->
    <title>home_ic_clock</title>
    <desc>Created with Sketch.</desc>
    <g id="home_ic_clock" stroke="none" stroke-width="1" fill="none" fill-rule="evenodd">
        <rect id="矩形" opacity="0.2" x="0" y="0" width="20" height="20"></rect>
        <path d="M15.6600919,4.34199555 L15.6600918,4.34199543 C12.5353344,1.21933482 7.47131578,1.21933482 4.34657434,4.34199568 L4.34657372,4.3419963 C1.22116516,7.46265551 1.2173212,12.5260865 4.33798578,15.651495 C5.83897387,17.1547641 7.87639754,17.999042 10.0007407,17.9980853 L10.0007404,17.9980853 C12.1244324,18.003699 14.1623183,17.1604363 15.661081,15.6558473 C18.7798024,12.5377772 18.7798024,7.46233783 15.6601046,4.3419963 L15.6600919,4.34199555 Z" id="路径" fill="#43B580" fill-rule="nonzero"></path>
        <path d="M13.757364,13.0976284 C13.57324,13.4135017 13.2254872,13.5257326 12.9092882,13.3416086 L10.1591422,11.6757131 C10.0680562,11.6207362 9.91613726,11.5455903 9.86018542,11.4649148 C9.66109695,11.3497562 9.35303224,11.1396079 9.35303224,10.8949764 L9.35303224,6.22877575 L9.35303224,6.22877572 C9.36453763,5.86046886 9.67243662,5.57122367 10.0407435,5.58272854 C10.3928882,5.59372905 10.6757893,5.87663096 10.6867906,6.22877572 L10.6867906,10.59016 L13.4518996,12.1896916 C13.7700491,12.3738157 13.9401856,12.7817503 13.7573624,13.0976236 L13.757364,13.0976284 Z" id="路径" fill="#FFFFFF" fill-rule="nonzero"></path>
    </g>
</svg>