<?xml version="1.0" encoding="UTF-8"?>
<svg width="24px" height="24px" viewBox="0 0 24 24" version="1.1" xmlns="http://www.w3.org/2000/svg" xmlns:xlink="http://www.w3.org/1999/xlink">
    <!-- Generator: Sketch 61 (89581) - https://sketch.com -->
    <title>图标按钮/语音个人/耳机/默认</title>
    <desc>Created with Sketch.</desc>
    <g id="图标按钮/语音个人/耳机/默认" stroke="none" stroke-width="1" fill="none" fill-rule="evenodd">
        <g id="1.图标占位">
            <rect id="图标占位" x="0" y="0" width="24" height="24"></rect>
        </g>
        <path d="M12,3 C16.3349143,3 19.8645429,6.44783777 19.9961932,10.7508207 L20,11 L20,14.1114562 C20,15.3534169 19.7108393,16.5783215 19.1554175,17.6891649 L19,18 L19,18.5 C19,19.6045695 18.1045695,20.5 17,20.5 L16,20.5 C14.8954305,20.5 14,19.6045695 14,18.5 L14,15.5 C14,14.3954305 14.8954305,13.5 16,13.5 L17,13.5 C17.364732,13.5 17.7066608,13.5976323 18.0010775,13.7681881 L18,11 C18,7.6862915 15.3137085,5 12,5 C8.76160306,5 6.12242824,7.56557489 6.00413847,10.7750617 L6,11 L5.99992752,13.7676063 C6.29411727,13.5974103 6.63568294,13.5 7,13.5 L8,13.5 C9.1045695,13.5 10,14.3954305 10,15.5 L10,18.5 C10,19.6045695 9.1045695,20.5 8,20.5 L7,20.5 C5.8954305,20.5 5,19.6045695 5,18.5 L5,18 L4.84458247,17.6891649 C4.28916073,16.5783215 4,15.3534169 4,14.1114562 L4,11 C4,6.581722 7.581722,3 12,3 Z" id="耳机" fill="#66686B"></path>
    </g>
</svg>