<?xml version="1.0" encoding="UTF-8"?>
<svg width="200px" height="150px" viewBox="0 0 200 150" version="1.1" xmlns="http://www.w3.org/2000/svg" xmlns:xlink="http://www.w3.org/1999/xlink">
    <title>静态展示图</title>
    <defs>
        <linearGradient x1="0%" y1="21.875%" x2="100%" y2="78.125%" id="linearGradient-1">
            <stop stop-color="#D1D5DE" offset="0%"></stop>
            <stop stop-color="#BBBEC4" offset="100%"></stop>
        </linearGradient>
        <path d="M6,0 L194,0 C197.313708,-6.08718376e-16 200,2.6862915 200,6 L200,150 L200,150 L0,150 L0,6 C-4.05812251e-16,2.6862915 2.6862915,6.08718376e-16 6,0 Z" id="path-2"></path>
        <linearGradient x1="0%" y1="23.5898355%" x2="100%" y2="76.4101645%" id="linearGradient-4">
            <stop stop-color="#777C83" offset="0%"></stop>
            <stop stop-color="#42464C" offset="100%"></stop>
        </linearGradient>
    </defs>
    <g id="会员" stroke="none" stroke-width="1" fill="none" fill-rule="evenodd">
        <g id="静态展示图">
            <mask id="mask-3" fill="white">
                <use xlink:href="#path-2"></use>
            </mask>
            <use id="矩形" fill="url(#linearGradient-1)" xlink:href="#path-2"></use>
            <g id="个人面板" mask="url(#mask-3)">
                <g transform="translate(20.000000, 20.000000)">
                    <g id="信息">
                        <path d="M60,2 C73.1111199,2 84.9944877,7.2566893 93.6574255,15.7775111 C102.33316,24.3109198 107.779219,36.1180267 107.993433,49.1975528 L107.993433,49.1975528 L108.016137,52 L181,52 L181,131 L2,131 L2,56 C2,54.8954305 2.44771525,53.8954305 3.17157288,53.1715729 C3.8954305,52.4477153 4.8954305,52 6,52 L6,52 L12.0406581,52 C11.4703458,37.9550396 16.937701,25.180048 26.0588745,16.0588745 C34.745166,7.372583 46.745166,2 60,2 Z" id="形状结合" stroke="#42464C" stroke-width="4" fill="url(#linearGradient-4)"></path>
                        <rect id="矩形" fill="#6D7888" x="16" y="106" width="80" height="16" rx="8"></rect>
                        <rect id="矩形备份-3" fill="#5E6167" x="100" y="106" width="40" height="16" rx="8"></rect>
                    </g>
                    <g id="头像" transform="translate(16.000000, 6.000000)">
                        <circle id="椭圆形" fill="#42464C" cx="44" cy="44" r="44"></circle>
                    </g>
                </g>
            </g>
        </g>
    </g>
</svg>