<?xml version="1.0" encoding="UTF-8"?>
<svg width="24px" height="24px" viewBox="0 0 24 24" version="1.1" xmlns="http://www.w3.org/2000/svg" xmlns:xlink="http://www.w3.org/1999/xlink">
    <!-- Generator: Sketch 61 (89581) - https://sketch.com -->
    <title>图标标识/个人设置/按键设置暗夜</title>
    <desc>Created with Sketch.</desc>
    <g id="图标标识/个人设置/按键设置暗夜" stroke="none" stroke-width="1" fill="none" fill-rule="evenodd">
        <g id="图标标识/个人设置/按键设置">
            <rect id="图标占位" x="0" y="0" width="24" height="24"></rect>
            <rect id="矩形备份-2" fill-opacity="0.25" fill="#BBBEC4" x="3" y="5" width="18" height="14" rx="2"></rect>
            <path d="M10,13 C10.5522847,13 11,13.4477153 11,14 L11,15 C11,15.5522847 10.5522847,16 10,16 L7,16 C6.44771525,16 6,15.5522847 6,15 L6,14 C6,13.4477153 6.44771525,13 7,13 L10,13 Z M17,13 C17.5522847,13 18,13.4477153 18,14 L18,15 C18,15.5522847 17.5522847,16 17,16 L14,16 C13.4477153,16 13,15.5522847 13,15 L13,14 C13,13.4477153 13.4477153,13 14,13 L17,13 Z M10,8 C10.5522847,8 11,8.44771525 11,9 L11,10 C11,10.5522847 10.5522847,11 10,11 L7,11 C6.44771525,11 6,10.5522847 6,10 L6,9 C6,8.44771525 6.44771525,8 7,8 L10,8 Z M17,8 C17.5522847,8 18,8.44771525 18,9 L18,10 C18,10.5522847 17.5522847,11 17,11 L14,11 C13.4477153,11 13,10.5522847 13,10 L13,9 C13,8.44771525 13.4477153,8 14,8 L17,8 Z" id="形状结合" fill-opacity="0.7" fill="#E6EAF0"></path>
        </g>
    </g>
</svg>