<?xml version="1.0" encoding="UTF-8"?>
<svg width="44px" height="44px" viewBox="0 0 44 44" version="1.1" xmlns="http://www.w3.org/2000/svg" xmlns:xlink="http://www.w3.org/1999/xlink">
    <title>文件限制</title>
    <g id="会员" stroke="none" stroke-width="1" fill="none" fill-rule="evenodd">
        <g id="文件限制">
            <circle id="椭圆形" fill="#41CA83" cx="22" cy="22" r="22"></circle>
            <g id="编组-5" transform="translate(6.000000, 6.000000)" fill="#FFFFFF">
                <rect id="矩形" fill-opacity="0.01" opacity="0.2" x="0" y="0" width="32" height="32"></rect>
                <path d="M12.2727673,6.85714286 C13.1336281,6.85714286 13.8979058,7.40800305 14.1701339,8.22468733 L14.4012947,8.91816982 C14.6735228,9.7348541 15.4378005,10.2857143 16.2986613,10.2857143 L25.4285714,10.2857143 C26.5331409,10.2857143 27.4285714,11.1811448 27.4285714,12.2857143 L27.4285714,23.1428571 C27.4285714,24.2474266 26.5331409,25.1428571 25.4285714,25.1428571 L6.57142857,25.1428571 C5.46685907,25.1428571 4.57142857,24.2474266 4.57142857,23.1428571 L4.57142857,8.85714286 C4.57142857,7.75257336 5.46685907,6.85714286 6.57142857,6.85714286 L12.2727673,6.85714286 Z M21.8571429,13.7142857 L10.1428571,13.7142857 C9.59057239,13.7142857 9.14285714,14.162001 9.14285714,14.7142857 L9.14285714,14.7142857 L9.14285714,15 C9.14285714,15.5522847 9.59057239,16 10.1428571,16 L10.1428571,16 L21.8571429,16 C22.4094276,16 22.8571429,15.5522847 22.8571429,15 L22.8571429,15 L22.8571429,14.7142857 C22.8571429,14.162001 22.4094276,13.7142857 21.8571429,13.7142857 L21.8571429,13.7142857 Z" id="形状结合"></path>
            </g>
        </g>
    </g>
</svg>