<?xml version="1.0" encoding="UTF-8"?>
<svg width="24px" height="24px" viewBox="0 0 24 24" version="1.1" xmlns="http://www.w3.org/2000/svg" xmlns:xlink="http://www.w3.org/1999/xlink">
    <title>等级5</title>
    <g id="页面-1" stroke="none" stroke-width="1" fill="none" fill-rule="evenodd">
        <g id="画板" transform="translate(-129.000000, -30.000000)">
            <g id="等级5" transform="translate(129.000000, 30.000000)">
                <rect id="矩形" x="0" y="0" width="24" height="24"></rect>
                <path d="M2.08398658,8.61538462 L12.882406,8.61538462 C13.4529171,8.61538462 13.9962724,8.37174008 14.3757667,7.94575069 L16.4034541,5.66963393 C16.7829483,5.24364453 17.3263037,5 17.8968147,5 L22,5 C23.1045695,5 24,5.8954305 24,7 L24,17 C24,18.1045695 23.1045695,19 22,19 L2.02010971,19 C0.915540214,19 0.0201097137,18.1045695 0.0201097137,17 C0.0201097137,16.9933303 0.020143077,16.9866607 0.0202098024,16.9799914 L0.0840866663,10.595376 C0.0950590285,9.4986673 0.987222989,8.61538462 2.08398658,8.61538462 Z" id="矩形" fill="#F667DA"></path>
                <path d="M8.43755243,17.0415703 L8.54157033,15.932046 L4.21904859,15.932046 L4.99340409,10.5 L2.71773532,10.5 L2,16.2672148 C2,16.4906607 2.05586147,16.6755814 2.1675844,16.821977 C2.27930733,16.9683725 2.44689173,17.0415703 2.6703376,17.0415703 L8.43755243,17.0415703 Z M12.459578,17.0415703 L15.557,10.5 L13.3379514,10.5 L11.1189028,15.0421151 L10.2405294,10.5 L7.90590537,10.5 L8.12549872,10.8236113 L9.35059847,17.0415703 L12.459578,17.0415703 Z" id="LV" fill="#FFFFFF" fill-rule="nonzero"></path>
                <path d="M19.156,17.18 C19.884,17.18 20.44,17.034 20.824,16.742 C21.208,16.45 21.468,16.05 21.604,15.542 C21.74,15.034 21.808,14.392 21.808,13.616 C21.808,12.624 21.634,11.856 21.286,11.312 C20.938,10.768 20.436,10.496 19.78,10.496 C19.484,10.496 19.194,10.542 18.91,10.634 C18.626,10.726 18.44,10.836 18.352,10.964 L18.352,10.964 L18.46,8.96 L21.388,8.96 L21.388,7.28 L16.852,7.28 L16.672,12.884 L18.4,12.884 C18.504,12.292 18.76,11.996 19.168,11.996 C19.464,11.996 19.664,12.138 19.768,12.422 C19.872,12.706 19.924,13.12 19.924,13.664 C19.924,14.184 19.912,14.578 19.888,14.846 C19.864,15.114 19.802,15.322 19.702,15.47 C19.602,15.618 19.444,15.692 19.228,15.692 C18.956,15.692 18.774,15.578 18.682,15.35 C18.59,15.122 18.544,14.724 18.544,14.156 L18.544,14.156 L16.612,14.156 C16.612,14.82 16.68,15.368 16.816,15.8 C16.952,16.232 17.204,16.57 17.572,16.814 C17.94,17.058 18.468,17.18 19.156,17.18 Z" id="5" fill="#FFFFFF" fill-rule="nonzero"></path>
            </g>
        </g>
    </g>
</svg>