<?xml version="1.0" encoding="UTF-8"?>
<svg width="24px" height="24px" viewBox="0 0 24 24" version="1.1" xmlns="http://www.w3.org/2000/svg" xmlns:xlink="http://www.w3.org/1999/xlink">
    <title>等级3</title>
    <g id="页面-1" stroke="none" stroke-width="1" fill="none" fill-rule="evenodd">
        <g id="画板" transform="translate(-69.000000, -30.000000)">
            <g id="等级3" transform="translate(69.000000, 30.000000)">
                <rect id="矩形" x="0" y="0" width="24" height="24"></rect>
                <path d="M2.08398658,8.61538462 L12.882406,8.61538462 C13.4529171,8.61538462 13.9962724,8.37174008 14.3757667,7.94575069 L16.4034541,5.66963393 C16.7829483,5.24364453 17.3263037,5 17.8968147,5 L22,5 C23.1045695,5 24,5.8954305 24,7 L24,17 C24,18.1045695 23.1045695,19 22,19 L2.02010971,19 C0.915540214,19 0.0201097137,18.1045695 0.0201097137,17 C0.0201097137,16.9933303 0.020143077,16.9866607 0.0202098024,16.9799914 L0.0840866663,10.595376 C0.0950590285,9.4986673 0.987222989,8.61538462 2.08398658,8.61538462 Z" id="矩形" fill="#64B5F6"></path>
                <path d="M8.43755243,17.0415703 L8.54157033,15.932046 L4.21904859,15.932046 L4.99340409,10.5 L2.71773532,10.5 L2,16.2672148 C2,16.4906607 2.05586147,16.6755814 2.1675844,16.821977 C2.27930733,16.9683725 2.44689173,17.0415703 2.6703376,17.0415703 L8.43755243,17.0415703 Z M12.459578,17.0415703 L15.557,10.5 L13.3379514,10.5 L11.1189028,15.0421151 L10.2405294,10.5 L7.90590537,10.5 L8.12549872,10.8236113 L9.35059847,17.0415703 L12.459578,17.0415703 Z" id="LV" fill="#FFFFFF" fill-rule="nonzero"></path>
                <path d="M19.198,17.18 C20.126,17.18 20.802,16.91 21.226,16.37 C21.65,15.83 21.862,15.088 21.862,14.144 C21.862,13.488 21.756,12.984 21.544,12.632 C21.332,12.28 21.042,12.036 20.674,11.9 C21.018,11.804 21.302,11.562 21.526,11.174 C21.75,10.786 21.862,10.316 21.862,9.764 C21.862,8.908 21.626,8.256 21.154,7.808 C20.682,7.36 20.022,7.136 19.174,7.136 C18.342,7.136 17.692,7.37 17.224,7.838 C16.756,8.306 16.522,8.976 16.522,9.848 L16.522,9.848 L16.522,10.436 L18.526,10.436 L18.526,9.932 C18.526,9.54 18.572,9.242 18.664,9.038 C18.756,8.834 18.926,8.732 19.174,8.732 C19.438,8.732 19.622,8.828 19.726,9.02 C19.83,9.212 19.882,9.504 19.882,9.896 C19.882,10.408 19.806,10.774 19.654,10.994 C19.502,11.214 19.222,11.324 18.814,11.324 L18.814,11.324 L18.49,11.324 L18.49,12.704 L18.862,12.704 C19.254,12.712 19.522,12.834 19.666,13.07 C19.81,13.306 19.882,13.68 19.882,14.192 C19.882,14.656 19.838,14.988 19.75,15.188 C19.662,15.388 19.49,15.488 19.234,15.488 C18.962,15.488 18.776,15.386 18.676,15.182 C18.576,14.978 18.526,14.628 18.526,14.132 L18.526,14.132 L18.526,13.784 L16.522,13.784 L16.522,14.132 C16.522,15.108 16.726,15.86 17.134,16.388 C17.542,16.916 18.23,17.18 19.198,17.18 Z" id="3" fill="#FFFFFF" fill-rule="nonzero"></path>
            </g>
        </g>
    </g>
</svg>