<?xml version="1.0" encoding="UTF-8"?>
<svg width="24px" height="24px" viewBox="0 0 24 24" version="1.1" xmlns="http://www.w3.org/2000/svg" xmlns:xlink="http://www.w3.org/1999/xlink">
    <title>等级2</title>
    <g id="页面-1" stroke="none" stroke-width="1" fill="none" fill-rule="evenodd">
        <g id="画板" transform="translate(-39.000000, -30.000000)">
            <g id="等级2" transform="translate(39.000000, 30.000000)">
                <rect id="矩形" x="0" y="0" width="24" height="24"></rect>
                <path d="M2.08398658,8.61538462 L12.882406,8.61538462 C13.4529171,8.61538462 13.9962724,8.37174008 14.3757667,7.94575069 L16.4034541,5.66963393 C16.7829483,5.24364453 17.3263037,5 17.8968147,5 L22,5 C23.1045695,5 24,5.8954305 24,7 L24,17 C24,18.1045695 23.1045695,19 22,19 L2.02010971,19 C0.915540214,19 0.0201097137,18.1045695 0.0201097137,17 C0.0201097137,16.9933303 0.020143077,16.9866607 0.0202098024,16.9799914 L0.0840866663,10.595376 C0.0950590285,9.4986673 0.987222989,8.61538462 2.08398658,8.61538462 Z" id="矩形" fill="#41CA83"></path>
                <path d="M8.43755243,17.0415703 L8.54157033,15.932046 L4.21904859,15.932046 L4.99340409,10.5 L2.71773532,10.5 L2,16.2672148 C2,16.4906607 2.05586147,16.6755814 2.1675844,16.821977 C2.27930733,16.9683725 2.44689173,17.0415703 2.6703376,17.0415703 L8.43755243,17.0415703 Z M12.459578,17.0415703 L15.557,10.5 L13.3379514,10.5 L11.1189028,15.0421151 L10.2405294,10.5 L7.90590537,10.5 L8.12549872,10.8236113 L9.35059847,17.0415703 L12.459578,17.0415703 Z" id="LV" fill="#FFFFFF" fill-rule="nonzero"></path>
                <path d="M21.634,17 L21.634,15.428 L18.79,15.428 L20.566,12.776 C20.902,12.288 21.15,11.912 21.31,11.648 C21.47,11.384 21.608,11.088 21.724,10.76 C21.84,10.432 21.898,10.084 21.898,9.716 C21.898,8.9 21.672,8.268 21.22,7.82 C20.768,7.372 20.114,7.148 19.258,7.148 C18.33,7.148 17.644,7.42 17.2,7.964 C16.756,8.508 16.534,9.236 16.534,10.148 L16.534,10.148 L16.534,10.664 L18.478,10.664 L18.478,10.184 C18.478,9.768 18.538,9.442 18.658,9.206 C18.778,8.97 18.99,8.852 19.294,8.852 C19.494,8.852 19.648,8.922 19.756,9.062 C19.864,9.202 19.918,9.408 19.918,9.68 C19.918,10.016 19.846,10.338 19.702,10.646 C19.558,10.954 19.334,11.336 19.03,11.792 L19.03,11.792 L18.886,12.008 L16.558,15.584 L16.558,17 L21.634,17 Z" id="2" fill="#FFFFFF" fill-rule="nonzero"></path>
            </g>
        </g>
    </g>
</svg>