<?xml version="1.0" encoding="UTF-8"?>
<svg width="24px" height="24px" viewBox="0 0 24 24" version="1.1" xmlns="http://www.w3.org/2000/svg" xmlns:xlink="http://www.w3.org/1999/xlink">
    <title>等级6</title>
    <g id="页面-1" stroke="none" stroke-width="1" fill="none" fill-rule="evenodd">
        <g id="画板" transform="translate(-159.000000, -30.000000)">
            <g id="等级6" transform="translate(159.000000, 30.000000)">
                <rect id="矩形" x="0" y="0" width="24" height="24"></rect>
                <path d="M2.08398658,8.61538462 L12.882406,8.61538462 C13.4529171,8.61538462 13.9962724,8.37174008 14.3757667,7.94575069 L16.4034541,5.66963393 C16.7829483,5.24364453 17.3263037,5 17.8968147,5 L22,5 C23.1045695,5 24,5.8954305 24,7 L24,17 C24,18.1045695 23.1045695,19 22,19 L2.02010971,19 C0.915540214,19 0.0201097137,18.1045695 0.0201097137,17 C0.0201097137,16.9933303 0.020143077,16.9866607 0.0202098024,16.9799914 L0.0840866663,10.595376 C0.0950590285,9.4986673 0.987222989,8.61538462 2.08398658,8.61538462 Z" id="矩形" fill="#FF634A"></path>
                <path d="M8.43755243,17.0415703 L8.54157033,15.932046 L4.21904859,15.932046 L4.99340409,10.5 L2.71773532,10.5 L2,16.2672148 C2,16.4906607 2.05586147,16.6755814 2.1675844,16.821977 C2.27930733,16.9683725 2.44689173,17.0415703 2.6703376,17.0415703 L8.43755243,17.0415703 Z M12.459578,17.0415703 L15.557,10.5 L13.3379514,10.5 L11.1189028,15.0421151 L10.2405294,10.5 L7.90590537,10.5 L8.12549872,10.8236113 L9.35059847,17.0415703 L12.459578,17.0415703 Z" id="LV" fill="#FFFFFF" fill-rule="nonzero"></path>
                <path d="M19.312,17.144 C20.28,17.144 20.964,16.848 21.364,16.256 C21.764,15.664 21.964,14.816 21.964,13.712 C21.964,12.872 21.8,12.196 21.472,11.684 C21.144,11.172 20.628,10.916 19.924,10.916 C19.636,10.916 19.38,10.964 19.156,11.06 C18.932,11.156 18.768,11.288 18.664,11.456 L18.664,11.456 L18.6649796,10.3706122 C18.668898,9.9444898 18.6845714,9.61828571 18.712,9.392 C18.744,9.128 18.806,8.94 18.898,8.828 C18.99,8.716 19.128,8.66 19.312,8.66 C19.568,8.66 19.73,8.744 19.798,8.912 C19.866,9.08 19.9,9.38 19.9,9.812 L19.9,9.812 L21.784,9.812 L21.772,9.644 C21.772,8.796 21.584,8.168 21.208,7.76 C20.832,7.352 20.196,7.148 19.3,7.148 C18.292,7.148 17.594,7.432 17.206,8 C16.818,8.568 16.624,9.38 16.624,10.436 L16.624,10.436 L16.624,13.952 C16.624,14.928 16.844,15.704 17.284,16.28 C17.724,16.856 18.4,17.144 19.312,17.144 Z M19.336,15.668 C18.888,15.668 18.664,15.252 18.664,14.42 L18.664,14.42 L18.664,12.836 C18.72,12.74 18.808,12.652 18.928,12.572 C19.048,12.492 19.176,12.452 19.312,12.452 C19.512,12.452 19.656,12.514 19.744,12.638 C19.832,12.762 19.888,12.926 19.912,13.13 C19.936,13.334 19.948,13.632 19.948,14.024 C19.948,14.624 19.91,15.048 19.834,15.296 C19.758,15.544 19.592,15.668 19.336,15.668 Z" id="6" fill="#FFFFFF" fill-rule="nonzero"></path>
            </g>
        </g>
    </g>
</svg>