<?xml version="1.0" encoding="UTF-8"?>
<svg width="24px" height="24px" viewBox="0 0 24 24" version="1.1" xmlns="http://www.w3.org/2000/svg" xmlns:xlink="http://www.w3.org/1999/xlink">
    <title>等级1</title>
    <g id="页面-1" stroke="none" stroke-width="1" fill="none" fill-rule="evenodd">
        <g id="画板" transform="translate(-9.000000, -30.000000)">
            <g id="等级1" transform="translate(9.000000, 30.000000)">
                <rect id="矩形" x="0" y="0" width="24" height="24"></rect>
                <path d="M2.08398658,8.61538462 L12.882406,8.61538462 C13.4529171,8.61538462 13.9962724,8.37174008 14.3757667,7.94575069 L16.4034541,5.66963393 C16.7829483,5.24364453 17.3263037,5 17.8968147,5 L22,5 C23.1045695,5 24,5.8954305 24,7 L24,17 C24,18.1045695 23.1045695,19 22,19 L2.02010971,19 C0.915540214,19 0.0201097137,18.1045695 0.0201097137,17 C0.0201097137,16.9933303 0.020143077,16.9866607 0.0202098024,16.9799914 L0.0840866663,10.595376 C0.0950590285,9.4986673 0.987222989,8.61538462 2.08398658,8.61538462 Z" id="矩形" fill="#FF9900"></path>
                <path d="M8.43755243,17.0415703 L8.54157033,15.932046 L4.21904859,15.932046 L4.99340409,10.5 L2.71773532,10.5 L2,16.2672148 C2,16.4906607 2.05586147,16.6755814 2.1675844,16.821977 C2.27930733,16.9683725 2.44689173,17.0415703 2.6703376,17.0415703 L8.43755243,17.0415703 Z M12.459578,17.0415703 L15.557,10.5 L13.3379514,10.5 L11.1189028,15.0421151 L10.2405294,10.5 L7.90590537,10.5 L8.12549872,10.8236113 L9.35059847,17.0415703 L12.459578,17.0415703 Z" id="LV" fill="#FFFFFF" fill-rule="nonzero"></path>
                <path d="M20.836,17 L20.836,7.28 L19.264,7.28 C19.048,7.504 18.46,7.864 17.5,8.36 L17.5,8.36 L17.5,9.848 C17.588,9.8 17.7,9.748 17.836,9.692 C17.972,9.636 18.072,9.596 18.136,9.572 C18.512,9.412 18.744,9.308 18.832,9.26 L18.832,9.26 L18.832,17 L20.836,17 Z" id="1" fill="#FFFFFF" fill-rule="nonzero"></path>
            </g>
        </g>
    </g>
</svg>