<?xml version="1.0" encoding="UTF-8"?>
<svg width="123px" height="40px" viewBox="0 0 123 40" version="1.1" xmlns="http://www.w3.org/2000/svg" xmlns:xlink="http://www.w3.org/1999/xlink">
    <!-- Generator: Sketch 59.1 (86144) - https://sketch.com -->
    <title>LOGO文字</title>
    <desc>Created with Sketch.</desc>
    <g id="LOGO" stroke="none" stroke-width="1" fill="none" fill-rule="evenodd">
        <g id="画板" transform="translate(-444.000000, -207.000000)" fill="#FFFFFF">
            <path d="M545.062954,208.248771 C546.242048,208.248771 547.197893,209.204616 547.197893,210.38371 L547.197893,215.292057 L547.975583,215.292057 C549.093637,215.292057 550,216.198419 550,217.316474 C550,218.434529 549.093637,219.340891 547.975583,219.340891 L547.197893,219.340891 L547.197625,225.483438 C548.217331,225.192639 549.312031,225.706993 549.726943,226.706199 C550.157874,227.743981 549.665924,228.934609 548.628141,229.36554 C548.616227,229.370487 548.604266,229.375321 548.59226,229.380041 L547.197,229.927956 L547.197893,242.284287 C547.197893,244.89916 545.685644,246.248771 542.750103,246.248771 L540.792453,246.248771 C539.802508,246.248771 539,245.446263 539,244.456318 C539,243.466374 539.802508,242.663866 540.792453,242.663866 L541.326811,242.663866 L541.326811,242.663866 C542.39428,242.663866 542.928015,242.199937 542.928015,241.272079 L542.928,231.605956 L542.610519,231.731543 C541.538757,232.152867 540.32696,231.638623 539.885327,230.575069 C539.454396,229.537286 539.946347,228.346659 540.984129,227.915728 L541.02001,227.901227 L541.02001,227.901227 L542.928,227.150956 L542.928015,219.340891 L541.705546,219.340891 C540.587491,219.340891 539.681129,218.434529 539.681129,217.316474 C539.681129,216.198419 540.587491,215.292057 541.705546,215.292057 L542.928015,215.292057 L542.928015,210.38371 C542.928015,209.204616 543.88386,208.248771 545.062954,208.248771 Z M553.112,213.024771 L556.785124,213.024771 L556.785124,213.024771 C556.381003,212.314763 555.72493,211.297023 554.816904,209.971552 C554.224275,209.106506 554.445133,207.924831 555.310189,207.332217 C555.312849,207.330395 555.315513,207.32858 555.318182,207.326771 C556.18554,206.739049 557.365116,206.965739 557.952838,207.833098 C557.95742,207.83986 557.961958,207.846651 557.966452,207.853471 L559.286234,209.856433 C559.969673,210.893651 559.72438,212.284037 558.727273,213.024771 L558.727273,213.024771 L558.727273,213.024771 L563.888,213.024771 C565.054425,213.024771 566,213.970346 566,215.136771 C566,216.303197 565.054425,217.248771 563.888,217.248771 L553.112,217.248771 C551.945575,217.248771 551,216.303197 551,215.136771 C551,213.970346 551.945575,213.024771 553.112,213.024771 Z M551.065215,240.11834 L557.548926,240.11834 L557.548926,240.11834 L561.189031,221.799919 C561.396199,220.757369 562.409295,220.080159 563.451845,220.287327 C563.489224,220.294754 563.526374,220.303291 563.563246,220.312924 C564.67131,220.602428 565.359286,221.708176 565.129403,222.830126 L561.587112,240.11834 L561.587112,240.11834 L564.934785,240.11834 C566.075372,240.11834 567,241.042969 567,242.183556 C567,243.324143 566.075372,244.248771 564.934785,244.248771 L551.065215,244.248771 C549.924628,244.248771 549,243.324143 549,242.183556 C549,241.042969 549.924628,240.11834 551.065215,240.11834 Z M555.081021,222.14921 L556.739184,233.963319 C556.87962,234.963899 556.182335,235.888876 555.181755,236.029312 C555.166434,236.031462 555.151085,236.033418 555.135714,236.035179 C554.09695,236.154191 553.151501,235.42655 553.000593,234.391938 L551.276981,222.574928 C551.129021,221.560516 551.831418,220.618227 552.845831,220.470266 C552.866223,220.467292 552.886663,220.464657 552.907143,220.462364 C553.968931,220.343448 554.932518,221.091155 555.081021,222.14921 Z M539,211.248771 L539,239.307157 C539,240.370984 538.137598,241.233387 537.07377,241.233387 C536.009943,241.233387 535.147541,240.370984 535.147541,239.307157 L535.147541,238.821848 L535.147541,238.821848 L532.852459,238.821848 L532.852459,240.322542 C532.852459,241.386369 531.990057,242.248771 530.92623,242.248771 C529.862402,242.248771 529,241.386369 529,240.322542 L529,211.248771 C529,210.144202 529.895431,209.248771 531,209.248771 L537,209.248771 C538.104569,209.248771 539,210.144202 539,211.248771 Z M533,235.248771 L535,235.248771 L535,214.248771 L533,214.248771 L533,235.248771 Z M491.698009,238.335409 C492.640429,238.597745 493.194959,239.586117 492.936588,240.542999 C492.916689,240.616692 492.892181,240.689021 492.863211,240.759546 L491.193467,244.824418 C490.724519,245.966039 489.454504,246.531651 488.30968,246.108737 C487.27724,245.72734 486.744793,244.568355 487.120426,243.520071 C487.140843,243.463092 487.163777,243.407075 487.189158,243.352191 L488.904149,239.64366 C489.398055,238.575626 490.577289,238.023439 491.698009,238.335409 Z M501.905747,239.867199 L502.913465,243.465818 C503.231335,244.600952 502.64613,245.802481 501.606374,246.14951 L501.485056,246.185419 C500.351901,246.478777 499.212611,245.725923 498.925202,244.493843 L498.057709,240.775036 C497.80537,239.693294 498.404052,238.593043 499.394903,238.317556 L499.46333,238.300034 C500.526687,238.050894 501.587786,238.731743 501.905747,239.867199 Z M511.370321,239.809888 L512.86243,243.553599 C513.266261,244.566815 512.750855,245.707246 511.711237,246.100823 C511.626229,246.133005 511.539082,246.159538 511.450393,246.18024 C510.175228,246.477892 508.877049,245.781142 508.453444,244.571736 L507.102503,240.714761 C506.763155,239.745913 507.293931,238.692397 508.288024,238.361667 C508.358577,238.338194 508.430486,238.318784 508.503378,238.303538 C509.708908,238.05139 510.923877,238.689759 511.370321,239.809888 Z M520.92029,239.156639 L523.575919,242.770412 C524.257478,243.697876 524.098029,244.982794 523.23765,245.719492 L523.071795,245.848404 C522.12736,246.513134 520.837767,246.328999 520.115073,245.452817 L519.99395,245.291531 L517.347757,241.411053 C516.755275,240.542214 516.940398,239.374673 517.746766,238.726904 L517.907475,238.610257 L517.936037,238.59193 C518.925068,237.969038 520.228869,238.215756 520.92029,239.156639 Z M518.98356,207.248771 C520.073197,207.248771 520.956522,208.143312 520.956522,209.246784 L520.956522,221.420455 C520.956522,222.523927 520.073197,223.418468 518.98356,223.418468 L507.26087,223.418468 L507.26087,225.879074 L519.52578,225.879074 C520.604105,225.879074 521.478261,226.764329 521.478261,227.856347 C521.478261,228.948365 520.604105,229.83362 519.52578,229.83362 L507.26087,229.83362 L507.26087,232.162408 L521.982436,232.162408 C523.096706,232.162408 524,233.077171 524,234.205589 C524,235.334008 523.096706,236.248771 521.982436,236.248771 L488.017564,236.248771 C486.903294,236.248771 486,235.334008 486,234.205589 C486,233.077171 486.903294,232.162408 488.017564,232.162408 L502.73913,232.162408 L502.73913,229.83362 L490.47422,229.83362 C489.395895,229.83362 488.521739,228.948365 488.521739,227.856347 C488.521739,226.764329 489.395895,225.879074 490.47422,225.879074 L502.73913,225.879074 L502.73913,223.418468 L491.059918,223.418468 C489.970281,223.418468 489.086957,222.523927 489.086957,221.420455 L489.086957,209.246784 C489.086957,208.143312 489.970281,207.248771 491.059918,207.248771 L518.98356,207.248771 Z M517,211.248771 L507,211.248771 L507,219.248771 L517,219.248771 L517,211.248771 Z M503,211.248771 L493,211.248771 L493,219.248771 L503,219.248771 L503,211.248771 Z M512.700024,212.319144 C513.637249,212.554122 514.191859,213.450043 513.938781,214.320238 C513.92266,214.375669 513.9034,214.430271 513.881081,214.483817 L512.807551,217.059364 C512.414653,218.001979 511.283062,218.480892 510.259042,218.137945 C509.318917,217.823095 508.809047,216.892643 509.06645,216.012604 L509.131978,215.828623 L510.10058,213.535084 C510.50655,212.573796 511.626395,212.049967 512.700024,212.319144 Z M498.893126,213.521796 L499.881733,215.958488 C500.231893,216.821555 499.778171,217.790472 498.868315,218.122625 C498.80694,218.145031 498.744293,218.164166 498.680667,218.17994 C497.59121,218.450042 496.461005,217.904282 496.050233,216.909742 L495.129343,214.680125 C494.752656,213.768109 495.226708,212.739113 496.188166,212.381798 L496.29291,212.346243 C497.351263,212.020338 498.493467,212.536727 498.893126,213.521796 Z M478.615417,208.248771 C479.830958,208.248771 480.816349,209.243738 480.816349,210.471092 C480.816349,211.698446 479.830958,212.693413 478.615417,212.693413 L473.959686,212.693413 L473.959686,222.814876 L480.799068,222.814876 C482.014609,222.814876 483,223.809843 483,225.037197 C483,226.264551 482.014609,227.259518 480.799068,227.259518 L473.959686,227.259518 L473.959686,243.823131 C473.959686,245.101733 472.93315,246.138245 471.666853,246.138245 C470.400557,246.138245 469.37402,245.101733 469.37402,243.823131 L469.37402,227.259518 L458.06271,227.259518 C457.62598,231.572141 456.75252,235.224669 455.486002,238.173095 C453.97391,241.454767 451.486913,243.907938 448.368207,246.010391 C447.845907,246.362495 445.873617,246.469753 445.135563,245.289237 C444.397509,244.10872 444.768195,242.711338 445.411486,242.258764 C448.410061,240.149181 450.604432,237.884351 451.730123,235.048643 C452.516237,232.848325 453.083987,230.25195 453.433371,227.259518 L446.200932,227.259518 C444.985391,227.259518 444,226.264551 444,225.037197 C444,223.809843 444.985391,222.814876 446.200932,222.814876 L453.739082,222.814876 C453.739082,222.550838 453.782755,222.330806 453.782755,222.066768 L453.782755,212.693413 L448.428256,212.693413 C447.212715,212.693413 446.227324,211.698446 446.227324,210.471092 C446.227324,209.243738 447.212715,208.248771 448.428256,208.248771 L478.615417,208.248771 Z M469,212.248771 L458.043651,212.248771 L458.043651,221.509641 C458.043651,221.77051 458,221.987902 458,222.248771 L469,222.248771 L469,212.248771 Z" id="LOGO文字"></path>
        </g>
    </g>
</svg>