<?xml version="1.0" encoding="UTF-8"?>
<svg width="130px" height="130px" viewBox="0 0 130 130" version="1.1" xmlns="http://www.w3.org/2000/svg" xmlns:xlink="http://www.w3.org/1999/xlink">
    <!-- Generator: Sketch 61 (89581) - https://sketch.com -->
    <title>Bitmap Copy</title>
    <desc>Created with Sketch.</desc>
    <defs>
        <path d="M65,0 C117.304688,0 130,13.9655171 130,65.0003763 C130,116.035236 117.304688,130 64.999906,130 C12.6951246,130 0,116.035236 0,65.0003763 C0,13.9655171 12.6953125,0 65,0 Z" id="path-1"></path>
    </defs>
    <g id="æºæ–‡ä»¶ðŸŒž" stroke="none" stroke-width="1" fill="none" fill-rule="evenodd">
        <g id="Bitmap-Copy">
            <mask id="mask-2" fill="white">
                <use xlink:href="#path-1"></use>
            </mask>
            <use id="Maskå¤‡ä»½" fill="#6666CC" xlink:href="#path-1"></use>
            <g id="Group" mask="url(#mask-2)">
                <g transform="translate(24.000000, 35.873047)">
                    <path d="M62.9797559,0.165118083 C70.5740367,1.1639288 77.1059579,7.52021832 79.0027599,15.5916692 C80.0619645,20.0136785 80.8454129,24.4150359 81.3501584,28.7967796 C81.8603769,33.2260353 82.0710728,37.6359417 81.9789817,42.0380613 C81.7514914,50.9828626 75.5012109,58 66.4389507,58 C63.2111366,58 61.5336291,57.3755934 59.8518018,55.8224119 C59.8420022,55.8133619 59.3387031,55.3400798 59.2032554,55.2192369 C58.9951459,55.0335667 58.8100504,54.885485 58.6086422,54.7467301 C56.463112,53.2686243 51.5928157,52.3839341 41.0000785,52.3839341 C30.405295,52.3839341 25.5250045,53.2693644 23.371953,54.7485641 C23.1687483,54.8881708 22.9822459,55.0370865 22.772712,55.2237773 C22.6366248,55.3450284 22.1321297,55.8189191 22.120189,55.829931 C20.4425827,57.3770286 18.7699087,58 15.5612066,58 C5.99912188,58 0.256277051,51.2821447 0.0209177354,42.0269475 C-0.0709157844,37.6359416 0.139780125,33.2260353 0.649998657,28.7967796 C1.15474408,24.4150365 1.93819232,20.0136798 2.994958,15.6019492 C4.89411605,7.52056357 11.4255626,1.16446989 19.0194308,0.165245728 C21.6918079,-0.188233689 23.1829508,0.0131776209 24.7194934,0.89052116 C24.9152475,1.00229392 25.5119083,1.37031123 25.6185581,1.43279187 C25.9164962,1.60733868 26.1880622,1.74533912 26.512419,1.88026695 C28.7532994,2.81244145 33.0337923,3.37224033 41.0000785,3.37224033 C48.9663647,3.37224033 53.2468577,2.81244145 55.4877381,1.88026695 C55.8120949,1.74533912 56.0836609,1.60733867 56.3815991,1.43279186 C56.4882488,1.37031122 57.0849097,1.00229391 57.2806638,0.890521149 C58.8173924,0.0130714148 60.3087104,-0.188282428 62.9797559,0.165118083 Z M47.8821541,33.3845236 C46.9606512,33.2884824 46.1364051,33.9638072 46.0411489,34.8929039 C45.9483587,35.7979473 45.2387968,36.5133564 44.3411505,36.6069112 C43.2940255,36.7160451 42.3574156,35.9486578 42.2491737,34.8929039 C42.0417514,32.8697781 39.1195389,32.8697781 38.9121166,34.8929039 C38.8193265,35.7979473 38.1097646,36.5133564 37.2121182,36.6069112 C36.1649932,36.7160451 35.2283833,35.9486578 35.1201414,34.8929039 C35.0248852,33.9638072 34.2006391,33.2884824 33.2791363,33.3845236 C32.3576334,33.4805648 31.6878281,34.3116032 31.7830844,35.2406998 C32.0818387,38.154647 34.6669408,40.2726839 37.5570715,39.9714677 C38.7201142,39.8502526 39.7687598,39.3508124 40.5806105,38.5965535 C41.6515946,39.5905468 43.1243121,40.1342413 44.6861038,39.9714677 C47.163664,39.7132505 49.1220993,37.7386766 49.378206,35.2406998 C49.4734622,34.3116032 48.8036569,33.4805648 47.8821541,33.3845236 Z M61.5311084,19 L48.1463109,19 C46.9787518,19 46.0322581,19.9464937 46.0322581,21.1140529 C46.0322581,22.281612 46.9787518,23.2281057 48.1463109,23.2281057 L48.1463109,23.2281057 L55.5010464,23.2285873 C55.3429561,23.7643239 55.2580645,24.3318406 55.2580645,24.919348 C55.2580645,25.507186 55.3430516,26.0750105 55.5013133,26.6110127 L55.5013133,26.6110127 L48.1463109,26.6105903 C46.9787518,26.6105903 46.0322581,27.557084 46.0322581,28.7246432 C46.0322581,29.8922024 46.9787518,30.8386961 48.1463109,30.8386961 L48.1463109,30.8386961 L61.5311084,30.8386961 C61.7386086,30.8386961 61.9391265,30.8088012 62.1289437,30.7531889 C64.8950863,30.2746433 67,27.8448358 67,24.919348 C67,21.9938603 64.8950863,19.5640528 62.12859,19.0856126 C61.9391265,19.0298949 61.7386086,19 61.5311084,19 L61.5311084,19 Z M31.33756,19 L17.1140529,19 C15.9464937,19 15,19.9464937 15,21.1140529 C15,22.281612 15.9464937,23.2281057 17.1140529,23.2281057 L17.1140529,23.2281057 L25.307498,23.2285873 C25.1494077,23.7643239 25.0645161,24.3318406 25.0645161,24.919348 C25.0645161,25.507186 25.1495032,26.0750105 25.3077649,26.6110127 L25.3077649,26.6110127 L17.1140529,26.6105903 C15.9464937,26.6105903 15,27.557084 15,28.7246432 C15,29.8922024 15.9464937,30.8386961 17.1140529,30.8386961 L17.1140529,30.8386961 L31.33756,30.8386961 C31.5446602,30.8386961 31.7448049,30.8089163 31.9333975,30.7535341 C34.7005244,30.2758131 36.8064516,27.84554 36.8064516,24.919348 C36.8064516,21.993156 34.7005244,19.562883 31.9339456,19.0852906 C31.7448049,19.0297797 31.5446602,19 31.33756,19 L31.33756,19 Z" id="Combined-Shape" fill="#FFFFFF" fill-rule="nonzero"></path>
                    <g id="Group-2" stroke-width="1" fill="none" fill-rule="evenodd" transform="translate(10.000000, 17.000000)"></g>
                    <g id="Group-2-Copy" stroke-width="1" fill="none" fill-rule="evenodd" transform="translate(10.000000, 17.000000)"></g>
                </g>
            </g>
        </g>
    </g>
</svg>