<?xml version="1.0" encoding="UTF-8"?>
<svg width="24px" height="24px" viewBox="0 0 24 24" version="1.1" xmlns="http://www.w3.org/2000/svg" xmlns:xlink="http://www.w3.org/1999/xlink">
    <!-- Generator: Sketch 61 (89581) - https://sketch.com -->
    <title>图标标识/服务器设置/日志暗夜</title>
    <desc>Created with Sketch.</desc>
    <g id="图标标识/服务器设置/日志暗夜" stroke="none" stroke-width="1" fill="none" fill-rule="evenodd">
        <g id="1.图标占位">
            <rect id="图标占位" x="0" y="0" width="24" height="24"></rect>
        </g>
        <rect id="矩形" fill-opacity="0.5" fill="#999BA1" x="5" y="4" width="14" height="16" rx="2"></rect>
        <path d="M12.5833333,15 C12.9975469,15 13.3333333,15.3357864 13.3333333,15.75 C13.3333333,16.1642136 12.9975469,16.5 12.5833333,16.5 L8.75,16.5 C8.33578644,16.5 8,16.1642136 8,15.75 C8,15.3357864 8.33578644,15 8.75,15 L12.5833333,15 Z M15.25,11.5 C15.6642136,11.5 16,11.8357864 16,12.25 C16,12.6642136 15.6642136,13 15.25,13 L8.75,13 C8.33578644,13 8,12.6642136 8,12.25 C8,11.8357864 8.33578644,11.5 8.75,11.5 L15.25,11.5 Z M15.25,8 C15.6642136,8 16,8.33578644 16,8.75 C16,9.16421356 15.6642136,9.5 15.25,9.5 L8.75,9.5 C8.33578644,9.5 8,9.16421356 8,8.75 C8,8.33578644 8.33578644,8 8.75,8 L15.25,8 Z" id="形状结合" fill-opacity="0.7" fill="#E6EAF0"></path>
    </g>
</svg>