<?xml version="1.0" encoding="UTF-8"?>
<svg width="24px" height="24px" viewBox="0 0 24 24" version="1.1" xmlns="http://www.w3.org/2000/svg" xmlns:xlink="http://www.w3.org/1999/xlink">
    <!-- Generator: Sketch 61 (89581) - https://sketch.com -->
    <title>图标按钮/通用/通知/失败</title>
    <desc>Created with Sketch.</desc>
    <g id="图标按钮/通用/通知/失败" stroke="none" stroke-width="1" fill="none" fill-rule="evenodd">
        <circle id="椭圆形" fill="#EA4335" cx="12" cy="12" r="12"></circle>
        <path d="M12,6 C12.5522847,6 13,6.44771525 13,7 L12.999,11 L17,11 C17.5522847,11 18,11.4477153 18,12 C18,12.5522847 17.5522847,13 17,13 L12.999,13 L13,17 C13,17.5522847 12.5522847,18 12,18 C11.4477153,18 11,17.5522847 11,17 L10.999,13 L7,13 C6.44771525,13 6,12.5522847 6,12 C6,11.4477153 6.44771525,11 7,11 L10.999,11 L11,7 C11,6.44771525 11.4477153,6 12,6 Z" id="形状结合" fill="#FFFFFF" transform="translate(12.000000, 12.000000) rotate(-45.000000) translate(-12.000000, -12.000000) "></path>
    </g>
</svg>