<?xml version="1.0" encoding="UTF-8"?>
<svg width="14px" height="20px" viewBox="0 0 14 20" version="1.1" xmlns="http://www.w3.org/2000/svg" xmlns:xlink="http://www.w3.org/1999/xlink">
    <title>手机在线大图标</title>
    <g id="版本需求" stroke="none" stroke-width="1" fill="none" fill-rule="evenodd">
        <g id="新免打扰" transform="translate(-567.000000, -288.000000)" fill="#34A853">
            <g id="手机在线" transform="translate(504.000000, 241.000000)">
                <g id="编组" transform="translate(59.000000, 43.000000)">
                    <path d="M15.5,4 C16.8807119,4 18,5.11928813 18,6.5 L18,21.5 C18,22.8807119 16.8807119,24 15.5,24 L6.5,24 C5.11928813,24 4,22.8807119 4,21.5 L4,6.5 C4,5.11928813 5.11928813,4 6.5,4 L15.5,4 Z M11,19 C10.1715729,19 9.5,19.6715729 9.5,20.5 C9.5,21.3284271 10.1715729,22 11,22 C11.8284271,22 12.5,21.3284271 12.5,20.5 C12.5,19.6715729 11.8284271,19 11,19 Z M15.4,7 L6.6,7 C6.30176624,7 6.05435325,7.21758961 6.00785299,7.50267688 L6,7.6 L6,16.4 C6,16.6982338 6.21758961,16.9456468 6.50267688,16.992147 L6.6,17 L15.4,17 C15.6982338,17 15.9456468,16.7824104 15.992147,16.4973231 L16,16.4 L16,7.6 C16,7.26862915 15.7313708,7 15.4,7 Z" id="手机在线大图标"></path>
                </g>
            </g>
        </g>
    </g>
</svg>