<?xml version="1.0" encoding="UTF-8"?>
<svg width="10px" height="15px" viewBox="0 0 10 15" version="1.1" xmlns="http://www.w3.org/2000/svg" xmlns:xlink="http://www.w3.org/1999/xlink">
    <title>手机在线</title>
    <g id="版本需求" stroke="none" stroke-width="1" fill="none" fill-rule="evenodd">
        <g id="新免打扰" transform="translate(-118.000000, -437.000000)" fill="#34A853">
            <g id="服务器内容" transform="translate(80.000000, 16.000000)">
                <g id="在线" transform="translate(0.000000, 152.000000)">
                    <g id="2备份-3" transform="translate(8.000000, 244.000000)">
                        <path d="M38,25 C39.1045695,25 40,25.8954305 40,27 L40,38 C40,39.1045695 39.1045695,40 38,40 L32,40 C30.8954305,40 30,39.1045695 30,38 L30,27 C30,25.8954305 30.8954305,25 32,25 L38,25 Z M35,36.25 C34.3096441,36.25 33.75,36.8096441 33.75,37.5 C33.75,38.1903559 34.3096441,38.75 35,38.75 C35.6903559,38.75 36.25,38.1903559 36.25,37.5 C36.25,36.8096441 35.6903559,36.25 35,36.25 Z M38.1,27 L31.9,27 C31.7067003,27 31.5454251,27.1371128 31.5081266,27.319386 L31.5,27.4 L31.5,34.6 C31.5,34.7932997 31.6371128,34.9545749 31.819386,34.9918734 L31.9,35 L38.1,35 C38.2932997,35 38.4545749,34.8628872 38.4918734,34.680614 L38.5,34.6 L38.5,27.4 C38.5,27.1790861 38.3209139,27 38.1,27 Z" id="手机在线"></path>
                    </g>
                </g>
            </g>
        </g>
    </g>
</svg>