<?xml version="1.0" encoding="UTF-8"?>
<svg width="24px" height="24px" viewBox="0 0 24 24" version="1.1" xmlns="http://www.w3.org/2000/svg" xmlns:xlink="http://www.w3.org/1999/xlink">
    <title>浏览器打开</title>
    <g id="浏览器打开" stroke="none" stroke-width="1" fill="none" fill-rule="evenodd">
        <rect id="矩形" x="0" y="0" width="24" height="24"></rect>
        <path d="M12,4.25 C16.2802068,4.25 19.75,7.71979319 19.75,12 C19.75,16.2802068 16.2802068,19.75 12,19.75 C7.71979319,19.75 4.25,16.2802068 4.25,12 C4.25,7.80210486 7.58762281,4.38375329 11.753983,4.25383071 L12,4.25 Z M13.8594064,12.750791 L10.1405936,12.750791 C10.2035963,14.2593759 10.4548625,15.6431274 10.8460916,16.6864049 C11.2370278,17.7289016 11.6990335,18.25 12,18.25 C12.3009665,18.25 12.7629722,17.7289016 13.1539084,16.6864049 C13.5095712,15.7379708 13.7495623,14.5081533 13.8375924,13.1589662 L13.8594064,12.750791 Z M8.63881091,12.7512672 L5.79458676,12.7504119 C6.0706451,15.0574475 7.6034579,16.9783084 9.6887825,17.8087518 C9.47903699,17.3690721 9.29745716,16.8671573 9.14662622,16.3155124 L9.05983819,15.9786579 L8.95381846,15.5022002 C8.78258747,14.6605836 8.67515044,13.7316419 8.63881091,12.7512672 Z M18.2054132,12.7504119 L15.3611891,12.7512672 C15.3309061,13.5682461 15.2512499,14.3495077 15.1264471,15.074281 L15.0461815,15.5022002 L14.9401618,15.9786579 C14.7740481,16.6639019 14.5629121,17.2811362 14.3112312,17.808357 C16.3193084,17.0090509 17.8150553,15.1982372 18.169604,13.0051242 L18.2054132,12.7504119 Z M9.68876876,6.191643 L9.61717705,6.22028132 C7.56812631,7.06597355 6.06703507,8.96959835 5.79446668,11.2505923 L8.63877391,11.2497315 C8.66902689,10.432446 8.74868838,9.65089375 8.87352751,8.92586666 L8.95381846,8.49779977 L9.05983819,8.02134207 C9.22595186,7.33609812 9.43708788,6.71886379 9.68876876,6.191643 Z M12,5.75 C11.6990335,5.75 11.2370278,6.27109845 10.8460916,7.31359511 C10.4547765,8.3571021 10.2034857,9.74123287 10.1405521,11.2502046 L13.8594479,11.2502046 C13.7965143,9.74123287 13.5452235,8.3571021 13.1539084,7.31359511 C12.7629722,6.27109845 12.3009665,5.75 12,5.75 Z M14.3112175,6.19124816 L14.3305113,6.23237562 C14.5250703,6.64692436 14.6949244,7.11582254 14.8379532,7.62864875 L14.9401618,8.02134207 L15.0461815,8.49779977 C15.2174707,9.33970216 15.3249225,10.2689889 15.3612261,11.2497315 L18.2055333,11.2505923 C17.9297997,8.94310992 16.3968447,7.02181212 14.3112175,6.19124816 Z" id="形状" fill="#E6EAF0" fill-rule="nonzero" transform="translate(12.000000, 12.000000) rotate(-315.000000) translate(-12.000000, -12.000000) "></path>
    </g>
</svg>