<?xml version="1.0" encoding="UTF-8"?>
<svg width="24px" height="24px" viewBox="0 0 24 24" version="1.1" xmlns="http://www.w3.org/2000/svg" xmlns:xlink="http://www.w3.org/1999/xlink">
    <title>挂断-亮色</title>
    <g id="挂断-亮色" stroke="none" stroke-width="1" fill="none" fill-rule="evenodd">
        <rect id="图标占位" x="0" y="0" width="24" height="24"></rect>
        <path d="M12,2 C17.5228475,2 22,6.4771525 22,12 C22,17.5228475 17.5228475,22 12,22 C6.4771525,22 2,17.5228475 2,12 C2,6.4771525 6.4771525,2 12,2 Z M11.9972393,9.42057782 C8.25453843,9.51941677 6.85307717,10.8535549 6.63000978,11.0803885 L6.60264072,11.1084466 L6.60264072,11.1084466 C6.29490127,11.416186 5.51422072,12.5354621 6.07960072,13.9036407 C6.16418736,14.1041871 6.35570368,14.4027432 6.50726201,14.4026618 C6.56075319,14.4026331 8.90132014,13.7906853 8.97265608,13.7639014 C9.04399201,13.7371176 9.10641753,13.7014233 9.15101745,13.6568233 C9.21791734,13.5899235 9.25364994,13.4561764 9.26267047,13.2600373 C9.2672358,13.059443 9.15174044,12.3106287 9.15184098,12.1234096 C9.14748633,11.9317353 9.17875415,11.8113634 9.24119404,11.7489235 C9.27241398,11.7177035 9.31700433,11.690934 9.37942506,11.6641549 C9.4418458,11.6373758 10.155186,11.4051977 12.0006938,11.288309 C13.8417465,11.1669652 14.5368971,11.6034363 14.6972893,11.7549085 C14.7596621,11.8172813 14.7863407,11.9420797 14.7862401,12.1292988 C14.7816796,12.3209779 14.7682039,12.5126618 14.7413529,12.7088105 C14.714502,12.9049592 14.7010215,13.1055583 14.7053762,13.2972326 C14.709726,13.4978221 14.749775,13.6270709 14.816603,13.693899 C14.8656103,13.7429062 14.9235423,13.7740783 14.9948495,13.8007856 C15.0617015,13.8230376 17.4283725,14.4057118 17.4907788,14.4056783 C17.6245068,14.4056065 17.8564599,14.1112805 17.9189764,13.9061975 C18.405738,12.2610828 17.7152723,11.4011375 17.3944832,11.1071084 C17.0603238,10.8086289 15.1889226,9.33862697 11.9972393,9.42057782 Z" id="断开语音" fill="#EA4335"></path>
    </g>
</svg>