<?xml version="1.0" encoding="UTF-8"?>
<svg width="24px" height="24px" viewBox="0 0 24 24" version="1.1" xmlns="http://www.w3.org/2000/svg" xmlns:xlink="http://www.w3.org/1999/xlink">
    <title>重新加载</title>
    <g id="重新加载" stroke="none" stroke-width="1" fill="none" fill-rule="evenodd">
        <rect id="矩形" x="2.27373675e-13" y="2.27373675e-13" width="24" height="24"></rect>
        <path d="M11.9704821,5.25 C13.5526875,5.25 15.046986,5.79807377 16.2332869,6.76548625 L17.1464466,5.85355339 C17.3417088,5.65829124 17.6582912,5.65829124 17.8535534,5.85355339 C17.9473216,5.94732158 18,6.07449854 18,6.20710678 L18,9.5 C18,9.77614237 17.7761424,10 17.5,10 L14.2071068,10 C13.9309644,10 13.7071068,9.77614237 13.7071068,9.5 C13.7071068,9.36739176 13.7597852,9.2402148 13.8535534,9.14644661 L15.1661395,7.83360659 C14.2636022,7.14004085 13.1491864,6.75 11.9704821,6.75 C9.07070742,6.75 6.72,9.10051855 6.72,12 C6.72,14.8994814 9.07070742,17.25 11.9704821,17.25 C14.1953148,17.25 16.1560786,15.8535351 16.9053358,13.7975921 C17.0471648,13.4084169 17.4776289,13.2079031 17.8668042,13.3497321 C18.2559794,13.4915611 18.4564932,13.9220252 18.3146642,14.3112005 C17.3512282,16.9548447 14.8306666,18.75 11.9704821,18.75 C8.24230728,18.75 5.22,15.7279356 5.22,12 C5.22,8.27206445 8.24230728,5.25 11.9704821,5.25 Z" id="路径" fill="#E6EAF0" fill-rule="nonzero"></path>
    </g>
</svg>