<?xml version="1.0" encoding="UTF-8"?>
<svg width="44px" height="44px" viewBox="0 0 44 44" version="1.1" xmlns="http://www.w3.org/2000/svg" xmlns:xlink="http://www.w3.org/1999/xlink">
    <title>专属角色</title>
    <g id="会员" stroke="none" stroke-width="1" fill="none" fill-rule="evenodd">
        <g id="专属角色">
            <circle id="椭圆形" fill="#F8CC34" cx="22" cy="22" r="22"></circle>
            <g id="图标标识/设置/成员" transform="translate(6.000000, 6.000000)" fill="#FFFFFF">
                <g id="编组" fill-opacity="0.01" opacity="0.2">
                    <g id="1.图标占位">
                        <rect id="图标占位" x="0" y="0" width="32" height="32"></rect>
                    </g>
                </g>
                <path d="M26.6429231,18.3267359 C25.9477227,17.3148606 23.5479206,16.6815108 22.5682076,16.0184727 C23.3994793,15.1723569 24.0328291,13.7547419 23.9561344,12.2752763 C23.8794397,10.615207 22.6424283,9.27181263 20.9972032,9.2569685 L20.9675149,9.2569685 C20.7201126,9.25944252 20.4826064,9.29407884 20.2549963,9.35345539 L20.2549963,9.35345539 C20.485647,9.98336138 20.6175025,10.6451476 20.6458919,11.3153554 C20.7448529,13.2426192 20.1708796,15.2465776 19.1095238,16.8398483 C19.4212507,16.9833416 19.7601918,17.1293089 20.106555,17.2802243 C21.8977475,18.0595415 23.7507905,18.8660729 24.6241205,20.1377206 C24.9927499,20.6671615 25.2475743,21.1718621 25.4257039,21.6419264 C26.3905728,21.4044203 27.0090785,21.0902194 27.0931953,20.7413822 C27.0808251,20.7413822 27.6374803,19.7591951 26.6429231,18.3267359 L26.6429231,18.3267359 Z" id="路径"></path>
                <path d="M23.6575143,20.8081808 C22.5738923,19.2322283 18.8331699,18.2426192 17.3042239,17.2084777 C18.5981378,15.8898235 19.5877469,13.6780472 19.4689938,11.372258 C19.3502407,8.78443015 17.422977,6.68893287 14.8574154,6.66666667 L14.8104089,6.66666667 C12.2448473,6.69140689 10.2928434,8.78443015 10.1740903,11.3499918 C10.0553372,13.6805212 11.0449463,15.8675573 12.3388602,17.2084777 C10.8099141,18.2426192 7.0691917,19.2544945 5.98556974,20.8081808 C4.62238319,22.784925 5.13945395,23.8660729 5.28047325,24.4548903 C5.28047325,25.6795316 9.56300665,26.6666667 14.8326751,26.6666667 C19.9390581,26.6666667 24.0805722,25.7488042 24.3626108,24.5736434 C24.3403446,24.5736434 25.2087266,23.0422233 23.6575143,20.8081808 L23.6575143,20.8081808 Z" id="路径"></path>
            </g>
        </g>
    </g>
</svg>