<?xml version="1.0" encoding="UTF-8"?>
<svg width="16px" height="16px" viewBox="0 0 16 16" version="1.1" xmlns="http://www.w3.org/2000/svg" xmlns:xlink="http://www.w3.org/1999/xlink">
    <title>编组 10备份</title>
    <g id="页面-1" stroke="none" stroke-width="1" fill="none" fill-rule="evenodd">
        <g id="编组-10备份">
            <circle id="椭圆形" fill="#34A853" cx="8" cy="8" r="8"></circle>
            <g id="编组-2备份-9" transform="translate(2.000000, 2.000000)" fill="#FFFFFF">
                <rect id="矩形" fill-opacity="0.01" opacity="0.2" x="0" y="0" width="12" height="12"></rect>
                <path d="M6.35355339,7.85355339 L8.14644661,9.64644661 C8.34170876,9.84170876 8.34170876,10.1582912 8.14644661,10.3535534 C8.05267842,10.4473216 7.92550146,10.5 7.79289322,10.5 L4.20710678,10.5 C3.93096441,10.5 3.70710678,10.2761424 3.70710678,10 C3.70710678,9.86739176 3.7597852,9.7402148 3.85355339,9.64644661 L5.64644661,7.85355339 C5.84170876,7.65829124 6.15829124,7.65829124 6.35355339,7.85355339 Z M9.5,2 C10.2796961,2 10.9204487,2.59488808 10.9931334,3.35553999 L11,3.5 L11,8 C11,8.74997366 10.4496024,9.37139507 9.73070303,9.48236833 L8.25,8 L9.5,8 C9.74545989,8 9.94960837,7.8392044 9.99194433,7.62715967 L10,7.54545455 L10,3.45454545 C10,3.2314001 9.82312484,3.04581057 9.58987563,3.00732334 L9.5,3 L2.5,3 C2.25454011,3 2.05039163,3.1607956 2.00805567,3.37284033 L2,3.45454545 L2,7.54545455 C2,7.7685999 2.17687516,7.95418943 2.41012437,7.99267666 L2.5,8 L3.749,8 L2.26929697,9.48236833 C1.59710951,9.37860577 1.07223774,8.82857469 1.00686658,8.14446001 L1,8 L1,3.5 C1,2.72030388 1.59488808,2.07955132 2.35553999,2.00686658 L2.5,2 L9.5,2 Z" id="形状结合" fill-rule="nonzero"></path>
            </g>
        </g>
    </g>
</svg>