<?xml version="1.0" encoding="UTF-8"?>
<svg width="18px" height="18px" viewBox="0 0 18 18" version="1.1" xmlns="http://www.w3.org/2000/svg" xmlns:xlink="http://www.w3.org/1999/xlink">
    <title>合作伙伴-亮色</title>
    <g id="规范" stroke="none" stroke-width="1" fill="none" fill-rule="evenodd">
        <g id="合作伙伴-亮色">
            <g id="图标标识/推荐服务器">
                <rect id="矩形" x="0" y="0" width="18" height="18"></rect>
                <path d="M8.78605105,17.5803318 L6.94394642,17.9771925 C6.60565741,18.0500731 6.25376337,17.9458073 6.00822336,17.6999387 L4.67117023,16.3610967 C4.56879687,16.2585864 4.44613267,16.1790374 4.31119961,16.1276521 L2.54889868,15.4565311 C2.22526504,15.3332847 1.98509487,15.0535907 1.91026108,14.7127959 L1.50276438,12.8570454 C1.47156383,12.7149572 1.41099166,12.5811155 1.32500917,12.4642732 L0.202030034,10.9382466 C-0.00419684794,10.658003 -0.0563908166,10.291682 0.0632408199,9.96416054 L0.714677868,8.18068943 C0.764556063,8.04413545 0.785307164,7.89849475 0.775574088,7.75329195 L0.648454685,5.85686247 C0.625110139,5.5085971 0.777463599,5.17195316 1.05357845,4.96169105 L2.55712258,3.8167387 C2.67224356,3.72907381 2.76772961,3.61787406 2.83733612,3.4904117 L3.74643597,1.82568224 C3.91338548,1.51996688 4.22191522,1.31988216 4.56684878,1.29363608 L6.44513537,1.15071676 C6.58894903,1.13977394 6.72885387,1.09832028 6.8557004,1.02906676 L8.51238671,0.124577162 C8.816625,-0.0415257205 9.183375,-0.0415257205 9.4876133,0.124577162 L11.1442996,1.02906676 C11.2711461,1.09832028 11.4110509,1.13977394 11.5548646,1.15071676 L13.4331512,1.29363608 C13.7780848,1.31988216 14.0866146,1.51996688 14.253564,1.82568224 L15.1626639,3.4904117 C15.2322704,3.61787406 15.3277565,3.72907381 15.4428774,3.8167387 L16.9464216,4.96169105 C17.2225364,5.17195316 17.3748899,5.5085971 17.3515453,5.85686247 L17.224426,7.75329195 C17.2146929,7.89849475 17.2354439,8.04413545 17.2853222,8.18068943 L17.9367592,9.96416054 C18.0563908,10.291682 18.0041969,10.658003 17.79797,10.9382466 L16.6749908,12.4642732 C16.5890083,12.5811155 16.5284361,12.7149572 16.4972356,12.8570454 L16.0897389,14.7127959 C16.0149051,15.0535907 15.774735,15.3332847 15.4511013,15.4565311 L13.6888004,16.1276521 C13.5538673,16.1790374 13.4312031,16.2585864 13.3288297,16.3610967 L11.9917767,17.6999387 C11.7462367,17.9458073 11.3943426,18.0500731 11.0560535,17.9771925 L9.21394896,17.5803318 C9.07290561,17.5499456 8.92709439,17.5499456 8.78605105,17.5803318 Z" id="星形" fill="#999BA1"></path>
            </g>
            <g id="编组-3" transform="translate(9.000000, 9.000000) rotate(-315.000000) translate(-9.000000, -9.000000) translate(6.000000, 5.000000)" stroke="#FFFFFF" stroke-linecap="round" stroke-linejoin="round" stroke-width="2">
                <polyline id="路径-3" points="3 2 0 2 0 7.5"></polyline>
                <polyline id="路径-3备份" transform="translate(4.500000, 3.250000) scale(-1, -1) translate(-4.500000, -3.250000) " points="6 0.5 3 0.5 3 6"></polyline>
            </g>
        </g>
    </g>
</svg>