<?xml version="1.0" encoding="UTF-8"?>
<svg width="480px" height="172px" viewBox="0 0 480 172" version="1.1" xmlns="http://www.w3.org/2000/svg" xmlns:xlink="http://www.w3.org/1999/xlink">
    <!-- Generator: Sketch 61 (89581) - https://sketch.com -->
    <title>server_apply_background</title>
    <desc>Created with Sketch.</desc>
    <defs>
        <rect id="path-1" x="-1.13686838e-13" y="-1.26476607e-12" width="480" height="172"></rect>
    </defs>
    <g id="Symbols" stroke="none" stroke-width="1" fill="none" fill-rule="evenodd">
        <g id="server_apply_background">
            <mask id="mask-2" fill="white">
                <use xlink:href="#path-1"></use>
            </mask>
            <g id="矩形"></g>
            <path d="M210.175104,125.81228 C212.560998,125.839141 214.916916,126.021953 217.248785,126.363201 C221.984326,127.077784 225.299985,130.825871 224.703965,135.583257 C224.491673,137.277752 224.049727,138.116841 223.114234,138.896401 C223.108783,138.900943 222.824325,139.133668 222.751239,139.196733 C222.638944,139.29363 222.548125,139.380946 222.461187,139.477446 C221.557656,140.480357 220.783526,142.882335 220.099365,148.162696 L220.048221,148.564143 C219.351407,154.126052 219.500676,156.746956 220.14466,157.975658 C220.20544,158.091622 220.272261,158.199438 220.35763,158.321859 C220.413075,158.401367 220.631574,158.697742 220.636637,158.704743 C221.347951,159.688369 221.568794,160.607918 221.357759,162.29238 C220.728865,167.312156 216.783369,169.879974 211.852539,169.387719 C209.514476,169.143765 207.186272,168.739736 204.867492,168.17718 C202.573585,167.620658 200.287592,166.916522 198.014065,166.068212 C193.847021,164.533508 190.900928,160.681802 190.869694,156.628789 C190.857726,155.20236 191.062765,154.432961 191.629772,153.684703 C191.702008,153.589375 191.936701,153.300635 191.976898,153.248805 C192.089193,153.104011 192.180345,152.97063 192.273337,152.809331 C192.895064,151.730914 193.457208,149.62653 193.967681,145.701649 L194.018557,145.303063 C194.542496,141.121027 194.526718,138.836664 194.17903,137.598252 C194.128704,137.418998 194.073274,137.267253 194.000169,137.099231 C193.974,137.039087 193.817792,136.701373 193.771305,136.591171 C193.406369,135.726057 193.397515,134.929768 193.760877,133.551072 C194.790808,129.630784 198.596177,126.62467 203.007603,126.165961 C205.425755,125.90414 207.814803,125.785708 210.175104,125.81228 Z M125.938529,114.397722 C127.996983,115.473153 128.857394,116.432817 129.409125,117.99003 C129.41234,117.999103 129.574606,118.470554 129.620463,118.593242 C129.690921,118.781747 129.759306,118.938458 129.841222,119.094619 C130.696389,120.724871 133.411497,122.861214 139.877737,126.267715 L140.278332,126.47787 C147.034876,130.007798 150.444054,131.065504 152.313108,130.833464 C152.489509,130.811564 152.65838,130.778125 152.854606,130.728114 C152.98205,130.695633 153.462682,130.559564 153.47399,130.556475 C155.062609,130.12245 156.338206,130.279907 158.384471,131.34897 C164.482439,134.534828 165.892169,140.759884 162.938828,146.778504 C161.525009,149.627352 159.911922,152.387535 158.101334,155.060344 C156.310168,157.704481 154.334691,160.268349 152.181433,162.747813 C148.26046,167.301883 141.963889,169.205252 136.786042,167.316482 C134.963275,166.652982 134.079875,166.026898 133.394175,164.951859 C133.306817,164.8149 133.049715,164.379905 133.002653,164.30427 C132.871179,164.092976 132.744269,163.913925 132.582663,163.719257 C131.496351,162.410706 129.060482,160.685096 124.2502,158.14804 L123.843825,157.934731 C118.763536,155.280555 115.846053,154.21369 114.104416,154.065373 C113.852322,154.043905 113.632864,154.041998 113.384333,154.05476 C113.295369,154.059329 112.791462,154.096738 112.629145,154.103256 C111.354912,154.154422 110.336346,153.786784 108.751458,152.670035 C104.243325,149.498742 102.209143,143.242846 103.706011,137.430429 C104.51331,134.239377 105.489542,131.153456 106.636931,128.17298 C107.796762,125.160187 109.141118,122.259606 110.675957,119.464904 C113.820386,113.799714 120.159311,111.378394 125.938529,114.397722 Z M130.566936,152.267934 C129.597936,154.122672 130.124613,156.358217 131.716226,157.571043 C131.81706,157.667791 131.933122,157.752055 132.063216,157.820022 L141.023065,162.501058 C141.762237,162.887235 142.674512,162.601077 143.060689,161.861905 C143.42415,161.166214 143.192047,160.317186 142.547231,159.897749 L142.421536,159.824281 L137.259864,157.12678 C137.53665,156.839762 137.777804,156.508537 137.972062,156.136711 C138.127594,155.839011 138.244594,155.531501 138.324842,155.219983 L138.378165,154.985683 L143.540313,157.682859 C144.279485,158.069037 145.19176,157.782878 145.577937,157.043706 C145.941398,156.348016 145.709295,155.498987 145.064479,155.07955 L144.938784,155.006082 L135.978935,150.325046 C135.84884,150.257079 135.713384,150.209938 135.576605,150.182122 C133.671782,149.568673 131.535937,150.413195 130.566936,152.267934 Z M201.798097,151.097258 C201.757324,151.191528 201.72907,151.29309 201.715659,151.400139 L200.780611,158.863608 C200.704492,159.471183 201.135322,160.025426 201.742897,160.101545 C202.309966,160.172589 202.830578,159.802024 202.959361,159.258319 L202.980834,159.139259 L203.51945,154.840981 C203.787901,154.958737 204.0777,155.040217 204.383478,155.078526 C204.613027,155.107285 204.839851,155.110244 205.061029,155.089672 L205.280217,155.061339 L204.741012,159.35978 C204.664893,159.967354 205.095723,160.521598 205.703297,160.597716 C206.270367,160.668761 206.790979,160.298196 206.919761,159.754491 L206.941234,159.635431 L207.876282,152.171961 C207.889693,152.064913 207.887367,151.959519 207.87004,151.858512 C207.801658,150.379399 206.675653,149.119551 205.153923,148.928904 C203.632193,148.738257 202.230191,149.681387 201.798097,151.097258 Z M60.219399,115.989464 C61.4898289,116.810361 62.0513734,117.440856 62.3824655,118.38029 C62.4246463,118.499973 62.5431122,118.876592 62.5655071,118.942483 C62.6280697,119.126557 62.6928915,119.285211 62.7813645,119.461773 C63.392597,120.681585 65.0113646,122.483542 68.4090446,125.386432 C71.8067246,128.289321 73.8392808,129.606961 75.1395524,130.020288 C75.3277606,130.080116 75.4945887,130.119377 75.6861717,130.152439 C75.7547506,130.164274 76.1452453,130.222497 76.2700456,130.245479 C77.2497657,130.425889 77.9602416,130.882218 78.9688501,132.008414 C81.8387196,135.207813 82.2754308,140.337642 80.1013283,144.520396 C78.91877,146.819249 77.6262324,149.008683 76.2220749,151.088075 C74.8026919,153.190013 73.2627116,155.174437 71.5964682,157.045157 C68.1935603,160.831621 62.9343272,161.589527 59.0692062,158.287267 C57.6925196,157.111062 57.2078227,156.229677 57.0645465,154.944945 C57.0637117,154.93746 57.0239698,154.549326 57.0108623,154.447695 C56.9907233,154.291542 56.9665078,154.160037 56.9318877,154.026621 C56.5716684,152.638447 54.893504,150.54792 50.6056914,146.854562 L50.2949635,146.588013 C45.7762099,142.727307 43.3674865,141.331966 41.9025012,141.187276 C41.7642361,141.17362 41.6296542,141.170077 41.4712879,141.174483 C41.3684329,141.177344 40.9781182,141.198504 40.9689555,141.198917 C39.681657,141.256849 38.7380071,140.916818 37.3694719,139.747577 C33.291172,136.263184 33.3246377,131.264485 36.644855,127.175088 C38.2285457,125.242154 39.9482528,123.411284 41.8028597,121.68119 C43.6375723,119.969654 45.5984027,118.351192 47.679639,116.827838 C51.4764184,114.024023 56.6112578,113.654529 60.219399,115.989464 Z M111.525184,142.319649 C110.556441,144.173895 111.08258,146.408744 112.67371,147.622025 C112.774721,147.719081 112.89104,147.803599 113.021463,147.871737 L121.452375,152.276432 C122.191547,152.662609 123.103822,152.376451 123.489999,151.637279 C123.85346,150.941588 123.621357,150.09256 122.976541,149.673123 L122.850846,149.599655 L118.218111,147.178495 C118.494897,146.891478 118.736051,146.560252 118.93031,146.188426 C119.085842,145.890727 119.202841,145.583217 119.283089,145.271698 L119.336412,145.037399 L123.969623,147.458234 C124.708795,147.844411 125.62107,147.558252 126.007247,146.819081 C126.370708,146.12339 126.138605,145.274361 125.493789,144.854925 L125.368094,144.781457 L116.937182,140.376762 C116.806759,140.308623 116.670947,140.261416 116.533332,140.233349 C114.628893,139.620838 112.493926,140.465404 111.525184,142.319649 Z M210.285762,143.680095 C210.17532,144.156454 210.472663,144.632166 210.949896,144.742627 C211.414775,144.850228 211.740502,145.268489 211.730287,145.744714 C211.718371,146.300241 211.257583,146.740744 210.701087,146.728604 C209.634682,146.70534 209.442942,148.235795 210.482127,148.476326 C210.947005,148.583927 211.272732,149.002188 211.262517,149.478413 C211.250601,150.033941 210.789813,150.474443 210.233317,150.462303 C209.743583,150.451619 209.338075,150.839275 209.327589,151.328157 C209.317102,151.817038 209.705609,152.222016 210.195343,152.232699 C211.731306,152.266207 213.003111,151.050393 213.036,149.517102 C213.049235,148.900078 212.858142,148.318308 212.51891,147.843942 C213.106437,147.347837 213.485997,146.611975 213.50377,145.783403 C213.531963,144.468992 212.632936,143.314566 211.349843,143.017579 C210.87261,142.907118 210.396205,143.203737 210.285762,143.680095 Z M126.052328,141.591386 C125.68495,142.148204 125.832496,142.895017 126.381881,143.25944 C126.931267,143.623863 127.67445,143.467897 128.041829,142.911079 C128.399696,142.368677 129.083811,142.149547 129.680861,142.386078 C130.377334,142.661997 130.714195,143.456421 130.433262,144.160473 C129.894913,145.509639 131.737825,146.472461 132.537798,145.25998 C132.895665,144.717577 133.579781,144.498447 134.176831,144.734978 C134.873304,145.010897 135.210165,145.805321 134.929231,146.509374 C134.682001,147.128962 134.978449,147.82808 135.591367,148.070898 C136.204285,148.313715 136.901573,148.008282 137.148803,147.388694 C137.924197,145.445464 136.994439,143.252804 135.072131,142.49125 C134.298558,142.184787 133.47203,142.155466 132.710556,142.36549 C132.363902,141.383329 131.614954,140.553884 130.576161,140.14235 C128.928266,139.489509 127.040064,140.094322 126.052328,141.591386 Z M203.779654,135.282989 C203.738658,135.377527 203.710258,135.479414 203.696802,135.586825 L202.816786,142.611035 C202.740667,143.21861 203.171497,143.772853 203.779072,143.848972 C204.346141,143.920016 204.866753,143.549452 204.995536,143.005747 L205.017008,142.886686 L205.500593,139.027667 C205.769044,139.145423 206.058844,139.226903 206.364621,139.265212 C206.59417,139.293971 206.820994,139.29693 207.042172,139.276358 L207.26136,139.248025 L206.777187,143.107207 C206.701068,143.714782 207.131898,144.269025 207.739472,144.345144 C208.306542,144.416188 208.827154,144.045624 208.955936,143.501919 L208.977409,143.382858 L209.857425,136.358648 C209.870882,136.251237 209.868495,136.145493 209.851132,136.044113 C209.78225,134.565469 208.656424,133.306191 207.135066,133.11559 C205.613708,132.924989 204.21202,133.867612 203.779654,135.282989 Z M63.6838131,133.152205 C63.2793226,133.62564 63.304521,134.321455 63.7220929,134.764482 L63.8175647,134.855374 L66.9142063,137.500807 C66.6481597,137.676338 66.4013689,137.892236 66.183182,138.147612 C66.0195418,138.339144 65.8803478,138.543103 65.7653541,138.755533 L65.6584181,138.970641 L62.5620308,136.32491 C62.0547792,135.891528 61.2922445,135.95141 60.8588619,136.458662 C60.4543714,136.932097 60.4795698,137.627912 60.8971417,138.070939 L60.9926135,138.161831 L66.6237597,142.972936 C66.7032911,143.040886 66.789098,143.09671 66.8794517,143.140209 C68.2355398,143.972732 70.0620976,143.688547 71.1618932,142.401294 C72.2616888,141.114041 72.2572661,139.265513 71.2235528,138.055429 C71.1661934,137.973549 71.0976596,137.897508 71.0181282,137.829559 L65.386982,133.018453 C64.8797304,132.585071 64.1171957,132.644953 63.6838131,133.152205 Z M52.3983792,134.12763 C51.4434354,135.501836 51.75336,137.358517 53.090615,138.274642 C53.6287515,138.643309 54.2587745,138.806211 54.8829793,138.772624 C54.9681312,139.592448 55.3907675,140.362172 56.113404,140.857235 C57.2597639,141.642582 58.8230981,141.49419 59.8589064,140.501711 C60.2441645,140.132568 60.2686302,139.528873 59.913552,139.15332 C59.5584737,138.777767 58.9583125,138.77257 58.5730543,139.141713 C58.19777,139.501299 57.6313574,139.555063 57.2160191,139.270523 C56.7315174,138.938601 56.6192285,138.265906 56.9652147,137.768016 C57.6282231,136.813918 56.3891725,135.755306 55.5502654,136.55912 C55.1749811,136.918706 54.6085685,136.97247 54.1932302,136.687931 C53.7087285,136.356009 53.5964395,135.683313 53.9424258,135.185424 C54.2469045,134.747266 54.1480867,134.155273 53.72171,133.863171 C53.2953334,133.571069 52.7028579,133.689471 52.3983792,134.12763 Z M50.5257906,121.910332 C50.1213002,122.383767 50.1464986,123.079581 50.5640704,123.522609 L50.6595422,123.613501 L54.1118061,126.562768 C53.8457595,126.738299 53.5989687,126.954197 53.3807818,127.209573 C53.2171416,127.401105 53.0779476,127.605064 52.9629539,127.817494 L52.8560178,128.032602 L49.4040084,125.083037 C48.8967568,124.649655 48.1342221,124.709537 47.7008394,125.216789 C47.296349,125.690224 47.3215474,126.386038 47.7391193,126.829066 L47.8345911,126.919958 L53.8213595,132.034898 C53.9006176,132.102614 53.9861081,132.158287 54.0755038,132.20122 C55.4317496,133.03491 57.2592789,132.750998 58.359493,131.463255 C59.459707,130.175512 59.4548623,128.326067 58.4205608,127.116546 C58.363322,127.034988 58.2949861,126.959236 58.215728,126.89152 L52.2289596,121.77658 C51.721708,121.343198 50.9591732,121.40308 50.5257906,121.910332 Z M219.754039,78.0804492 C220.861242,78.7275085 221.360693,79.240315 221.676501,80.0237155 C221.716735,80.12352 221.831253,80.4381304 221.852702,80.4931088 C221.912623,80.6466973 221.973504,80.7786599 222.055095,80.9248931 C222.599346,81.9003358 223.959756,83.2997477 226.742108,85.4922776 L227.045686,85.7302432 C230.033402,88.0602399 231.804972,89.0991023 232.922146,89.3996575 C233.083851,89.4431614 233.22667,89.4700553 233.39023,89.49075 C233.448777,89.4981579 233.781808,89.5325728 233.888408,89.5472775 C234.725246,89.6627136 235.344336,90.0222456 236.241181,90.9380122 C238.792853,93.5394336 239.355573,97.8696315 237.670719,101.497071 C236.755169,103.490251 235.74233,105.394915 234.630787,107.210596 C233.507191,109.045966 232.277005,110.786364 230.935572,112.435238 C228.194734,115.77383 223.767361,116.617034 220.368604,113.966485 C219.158029,113.022407 218.71426,112.294065 218.544606,111.210892 C218.543617,111.20458 218.495364,110.877204 218.480441,110.791585 C218.457512,110.660036 218.432055,110.549527 218.397711,110.437797 C218.031859,109.247579 216.467923,107.486318 212.495169,104.388131 C208.521648,101.289346 206.428454,100.199015 205.18182,100.132391 C205.064163,100.126103 204.950006,100.128244 204.815997,100.138029 C204.728961,100.144384 204.399065,100.17723 204.391317,100.17793 C203.302839,100.276213 202.490564,100.02414 201.287156,99.0856515 C197.700944,96.2889122 197.541504,92.0518634 200.200903,88.4597346 C201.470056,86.7612964 202.858283,85.1441476 204.364588,83.6072379 C205.854736,82.0868146 207.455232,80.6404403 209.161315,79.2700574 C212.272774,76.7490863 216.609348,76.2397652 219.754039,78.0804492 Z M25.005454,52.0256413 C26.6088496,53.0588721 27.3160013,53.8548769 27.7296203,55.0438814 C27.7823149,55.1953595 27.9300722,55.6721147 27.9580353,55.7555149 C28.0361537,55.9885029 28.1172807,56.1892532 28.2282423,56.4125669 C28.9741227,57.9136745 30.9241775,60.1078434 34.9750219,63.5966942 L35.3174744,63.8904417 C39.6015057,67.5506069 42.1667473,69.2091067 43.8103054,69.7254776 C44.0482026,69.8002198 44.2591559,69.8490154 44.501482,69.8898068 C44.5882249,69.9044084 45.0822006,69.9759332 45.2400474,70.0043362 C46.4791919,70.2273089 47.3758918,70.8016481 48.6460668,72.2234463 C52.2602207,76.2625954 52.7830005,82.7632443 50.006368,88.0785532 C48.495937,90.9997892 46.846927,93.782957 45.0572647,96.4272744 C43.2481969,99.1002646 41.2871563,101.624984 39.1669487,104.006299 C34.8371255,108.826418 28.1751662,109.818032 23.3017528,105.654314 C21.5659306,104.171272 20.9575275,103.056757 20.7836816,101.428912 C20.7826686,101.419427 20.7346334,100.927613 20.7186362,100.798849 C20.6940572,100.601009 20.6641736,100.434438 20.6211303,100.265507 C20.1719621,98.5026697 18.0488378,95.852008 12.6076019,91.1695797 L12.2631894,90.8742721 C6.56563055,86.0064256 3.52466408,84.251624 1.67102621,84.0767763 C1.49608012,84.0602742 1.32573723,84.0565713 1.1252399,84.0630838 C0.995021775,84.0673135 0.500809029,84.0964246 0.489207851,84.097001 C-1.14068782,84.1779817 -2.33323737,83.7524426 -4.05878176,82.2781823 C-9.20098596,77.8848163 -9.12934943,71.5476507 -4.90242796,66.3439809 C-2.8863572,63.8842794 -0.698704685,61.5531714 1.65912378,59.3490281 C3.99165986,57.1685287 6.48329992,55.1052827 9.12680168,53.1619029 C13.9494616,49.5852044 20.4516795,49.0867179 25.005454,52.0256413 Z M222.978973,95.580503 C222.694927,95.9447305 222.733078,96.4578521 223.050975,96.7766661 L223.136253,96.8521229 L225.868238,98.9823539 C225.669345,99.1185865 225.488737,99.2863784 225.333791,99.4850629 C225.217582,99.6340762 225.121743,99.7928559 225.045789,99.9583145 L224.976445,100.125885 L222.244781,97.9952427 C221.850201,97.6875262 221.280878,97.7579428 220.973161,98.1525226 C220.689115,98.5167501 220.727266,99.0298718 221.045163,99.3486857 L221.130441,99.4241425 L226.111741,103.308853 C226.199628,103.377392 226.296183,103.427171 226.396948,103.459289 C227.511461,104.016428 228.858773,103.777532 229.607258,102.817763 C230.354924,101.859043 230.259387,100.496062 229.448982,99.5513793 C229.393562,99.460241 229.320992,99.3774176 229.231893,99.3079333 L224.250593,95.423223 C223.856013,95.1155066 223.28669,95.1859232 222.978973,95.580503 Z M214.069846,96.3103149 C213.410591,97.3798864 213.793217,98.8294093 214.924464,99.547915 C215.379699,99.8370551 215.892983,99.9659038 216.387244,99.9414266 C216.515056,100.581326 216.907756,101.183068 217.519069,101.57134 C218.488829,102.187278 219.722009,102.075826 220.473574,101.304318 C220.753111,101.017364 220.728361,100.546402 220.418293,100.252396 C220.108225,99.9583892 219.630256,99.9526723 219.350719,100.239627 C219.078419,100.519152 218.631625,100.559532 218.28027,100.336371 C217.870407,100.076049 217.731778,99.5508716 217.970633,99.1633546 C218.428348,98.4207613 217.364811,97.591353 216.756114,98.2162015 C216.483814,98.4957268 216.03702,98.5361071 215.685666,98.3129463 C215.275803,98.0526241 215.137173,97.5274466 215.376028,97.1399295 C215.586228,96.7989023 215.46423,96.3367296 215.103538,96.1076379 C214.742846,95.8785461 214.280046,95.9692878 214.069846,96.3103149 Z M152.251165,57.3044407 C154.351325,57.5647804 156.397771,57.9414706 158.390478,58.4359598 C160.404793,58.9358108 162.36211,59.5625422 164.266941,60.3194542 C168.130882,61.8749717 170.177723,65.7312202 168.708503,69.665416 C168.185193,71.0667058 167.640923,71.6932702 166.690915,72.170449 L166.62856,72.2011648 C166.538226,72.2456889 166.376053,72.3258249 166.322725,72.3537686 C166.208015,72.4138768 166.113428,72.4701155 166.020264,72.534955 C165.027818,73.2256679 163.852408,75.1959266 162.135058,79.7945479 C160.417377,84.3940575 160.012295,86.6569381 160.308309,87.8325452 C160.336247,87.9434989 160.370952,88.0487176 160.418397,88.1700871 C160.449212,88.2489136 160.574084,88.5451081 160.57695,88.5520854 C160.979656,89.5323455 160.980151,90.3599604 160.45994,91.7529532 C158.909685,95.9041377 155.048973,97.3032018 150.974629,95.8980698 C149.044826,95.2228148 147.155828,94.4131448 145.306951,93.4702918 C143.477908,92.5375528 141.685495,91.4806264 139.932871,90.3033552 C136.716485,88.1627338 135.003508,84.2920809 135.798904,80.8326231 C136.078012,79.6148971 136.407599,79.0003497 137.03932,78.4761759 C137.119801,78.4093966 137.377026,78.210304 137.421565,78.1741799 C137.545988,78.0732629 137.650197,77.9778429 137.761626,77.8590044 C138.53145,77.0379865 139.469553,75.2708669 140.761089,71.8124659 C142.052624,68.3540648 142.502472,66.4046066 142.459254,65.2799594 C142.452999,65.117172 142.436845,64.9768023 142.409028,64.8190317 C142.399071,64.7625562 142.335313,64.4435925 142.318305,64.3404064 C142.184792,63.5303648 142.338762,62.8501468 142.925924,61.7481218 C144.592729,58.6138865 148.423691,56.813376 152.251165,57.3044407 Z M211.684812,86.7726526 C211.400766,87.1368801 211.438916,87.6500018 211.756814,87.9688157 L211.842092,88.0442725 L214.879324,90.4125535 C214.680431,90.5487862 214.499823,90.7165781 214.344877,90.9152626 C214.228668,91.0642759 214.132829,91.2230555 214.056875,91.3885142 L213.987531,91.5560849 L210.95062,89.1873924 C210.55604,88.8796759 209.986716,88.9500925 209.679,89.3446723 C209.394954,89.7088998 209.433104,90.2220214 209.751002,90.5408354 L209.83628,90.6162922 L215.122827,94.7390524 C215.210411,94.8073551 215.306604,94.8570275 215.406207,94.8885739 C216.521074,95.4468884 217.86945,95.2082567 218.618344,94.2479627 C219.366419,93.2887179 219.270368,91.9247696 218.459502,90.9806493 C218.404154,90.8898774 218.331775,90.807381 218.242979,90.7381329 L212.956432,86.6153727 C212.561852,86.3076562 211.992528,86.3780728 211.684812,86.7726526 Z M85.6896368,61.0511818 C86.4625977,61.5512611 86.8046036,61.9348109 87.0069923,62.5056405 C87.0327765,62.5783636 87.1052445,62.8071905 87.118937,62.8472268 C87.1571886,62.9590726 87.1967797,63.0554875 87.2507643,63.1628062 C87.6237267,63.9042377 88.6096086,65.0004431 90.6777617,66.7674194 C92.7459147,68.5343958 93.9825777,69.3370752 94.7731395,69.5897285 C94.8875696,69.6262989 94.9889828,69.6503544 95.1054285,69.670678 L95.2265043,69.6899078 L95.3580746,69.7107126 C95.400255,69.7175025 95.437545,69.7236942 95.460302,69.727929 C96.0557988,69.838744 96.4880663,70.1167393 97.102346,70.8018467 C98.8501959,72.7481689 99.1222103,75.8634279 97.8067042,78.4002515 C97.0911926,79.7945127 96.308717,81.122195 95.4582797,82.382917 C94.598621,83.6573091 93.6655364,84.8601923 92.6555884,85.9938738 C90.5929643,88.2884821 87.3985258,88.7418172 85.0458435,86.7317464 C84.2078603,86.0157953 83.9122194,85.4800115 83.8234951,84.6997717 C83.8229782,84.6952254 83.7983265,84.4595094 83.7902304,84.3977847 C83.777791,84.3029473 83.762907,84.2230691 83.7416987,84.1420179 C83.5157747,83.2786083 82.4495451,81.9664035 79.6995307,79.6168625 C76.9489851,77.2668676 75.4836679,76.4165202 74.5933783,76.326762 C74.5093529,76.3182906 74.4275785,76.3159645 74.3313634,76.3184333 C74.2688741,76.3200368 74.0317528,76.3323767 74.0261862,76.3326152 C73.2441199,76.3661148 72.670331,76.1584294 71.8373096,75.4467175 C69.3548661,73.3257822 69.3686942,70.2907536 71.3806826,67.8121054 C72.3403919,66.6405418 73.3828754,65.5311262 74.5074531,64.4830739 C75.6199674,63.4462641 76.8092299,62.4661303 78.0717729,61.5439004 C80.3749857,59.8464419 83.4943501,59.6287778 85.6896368,61.0511818 Z M30.3758518,74.2717617 C29.8679815,74.8661972 29.9020287,75.741095 30.4307215,76.2945056 L30.5430414,76.4007229 L34.516841,79.7967746 C34.1828683,80.0146096 33.8737371,80.2835025 33.6012314,80.6024561 C33.3830517,80.857824 33.2002339,81.1313728 33.0523394,81.4170487 L32.9479598,81.6334849 L28.973624,78.2376435 C28.3395595,77.6959152 27.3863911,77.7707685 26.8446628,78.404833 C26.3367926,78.9992685 26.3708397,79.8741664 26.8995326,80.4275769 L27.0118524,80.5337942 L34.2439248,86.7126893 C34.355802,86.8082743 34.4776137,86.8846634 34.6054639,86.9428007 C36.3246463,87.9657712 38.5944301,87.620147 39.9533801,86.0295673 C41.3123301,84.4389877 41.2994055,82.1430766 40.0199726,80.6046368 C39.94323,80.4874464 39.8487626,80.3790522 39.7368854,80.2834673 L32.504813,74.1045721 C31.8707485,73.5628439 30.9175801,73.6376972 30.3758518,74.2717617 Z M146.352222,77.2450712 C146.282254,77.3251178 146.225294,77.4189255 146.185899,77.5244148 L143.840481,83.8048412 C143.665423,84.2736026 143.903516,84.7955216 144.372278,84.97058 C144.804981,85.1321723 145.282977,84.94173 145.491643,84.5427815 L145.538016,84.4387836 L146.885192,80.8306467 C147.074853,80.9794638 147.289127,81.1013648 147.525165,81.1895127 C147.702193,81.2556236 147.882421,81.2993718 148.06305,81.3221472 L148.243709,81.3379832 L146.896045,84.9459375 C146.720986,85.4146988 146.95908,85.9366178 147.427841,86.1116762 C147.860544,86.2732685 148.338541,86.0828262 148.547206,85.6838777 L148.59358,85.5798798 L150.938997,79.2994534 C150.977854,79.1954042 150.996355,79.088736 150.996543,78.9842565 C151.194391,77.7531996 150.561952,76.5386699 149.421121,76.1126281 C148.281537,75.6870518 147.009346,76.1881633 146.352222,77.2450712 Z M16.1128058,75.3575433 C14.9224022,77.0781 15.3381556,79.4231707 17.0414171,80.5954053 C17.7268413,81.0671344 18.5258693,81.2805872 19.3150279,81.2462096 C19.433212,82.2810238 19.9776569,83.2569757 20.8980788,83.8904371 C22.3581971,84.8953334 24.3338407,84.7281915 25.6314095,83.4899915 C26.1140267,83.0294558 26.1372638,82.2685617 25.683311,81.7904871 C25.2293582,81.3124124 24.4701182,81.2981942 23.9875009,81.7587299 C23.517378,82.207343 22.8015814,82.2679002 22.272565,81.9038156 C21.6554553,81.4791026 21.5048235,80.6294586 21.9361193,80.0060827 C22.7626052,78.8115166 21.1817476,77.4608728 20.1308392,78.4636981 C19.6607163,78.9123112 18.9449196,78.9728684 18.4159033,78.6087838 C17.7987936,78.1840708 17.6481617,77.3344268 18.0794576,76.7110509 C18.4590115,76.1624605 18.3264507,75.4147472 17.7833748,75.0409864 C17.2402989,74.6672256 16.4923597,74.808953 16.1128058,75.3575433 Z M154.60817,72.5930328 C154.420817,72.9770649 154.558862,73.4347009 154.916502,73.6151914 C155.264884,73.7910092 155.43754,74.205069 155.33016,74.6072134 C155.204898,75.076324 154.745567,75.3662295 154.304217,75.2547354 C153.458463,75.041081 152.986617,76.304564 153.765386,76.6975856 C154.113768,76.8734035 154.286424,77.2874633 154.179043,77.6896076 C154.053781,78.1587182 153.594451,78.4486237 153.153101,78.3371296 C152.764698,78.2390114 152.360473,78.4941373 152.250239,78.9069694 C152.140004,79.3198014 152.365504,79.7340085 152.753906,79.8321267 C153.972061,80.1398573 155.239842,79.3396999 155.585573,78.0449252 C155.724701,77.5238837 155.693506,76.9955949 155.521768,76.5314833 C156.093775,76.2174545 156.54986,75.6622116 156.736689,74.962531 C157.033066,73.8525874 156.556524,72.7097564 155.594969,72.2244881 C155.237328,72.0439976 154.795524,72.2090007 154.60817,72.5930328 Z M88.0774853,71.992511 C87.8499594,72.2588181 87.8555014,72.6457464 88.0745938,72.904765 L88.1555071,72.9860262 L90.111928,74.6572989 C89.9542038,74.7575575 89.808875,74.8823609 89.6815826,75.0313499 C89.5967211,75.1306759 89.5237282,75.2362419 89.4624483,75.3463804 L89.3792937,75.514809 L87.4231124,73.8432558 C87.1272156,73.5904493 86.6824037,73.6253808 86.4295971,73.9212776 C86.2020713,74.1875847 86.2076132,74.574513 86.4267056,74.8335316 L86.5076189,74.9147928 L90.0714337,77.9596238 C90.1312366,78.0107178 90.1971223,78.0500585 90.2658765,78.0777932 C91.0919628,78.5508681 92.1482806,78.401383 92.7718172,77.6715662 C93.3962414,76.9407104 93.3780655,75.8720084 92.779836,75.1296841 C92.7418943,75.0671194 92.6934845,75.0094456 92.6348153,74.9593201 L89.0710005,71.9144892 C88.7751038,71.6616827 88.3302919,71.6966142 88.0774853,71.992511 Z M81.2686158,72.3686766 C80.7162974,73.1743399 80.9380335,74.2923876 81.7638771,74.865906 C82.0962121,75.0967005 82.4803355,75.2059182 82.8573143,75.1973124 C82.9239501,75.6900367 83.193815,76.158972 83.640091,76.4688944 C84.3480442,76.9605423 85.2910098,76.9004834 85.8992879,76.3250028 C86.1255306,76.1109587 86.1291929,75.749739 85.9074678,75.5181958 C85.6857427,75.2866527 85.322593,75.2724669 85.0963502,75.4865109 C84.8759646,75.6950137 84.5343182,75.7167736 84.2778192,75.5386444 C83.9786073,75.3308526 83.89827,74.9257721 84.0983808,74.6338717 C84.4818502,74.0745074 83.7127843,73.4174375 83.2201364,73.8835225 C82.9997508,74.0920252 82.6581044,74.1137852 82.4016054,73.935656 C82.1023935,73.7278642 82.0220562,73.3227836 82.222167,73.0308833 C82.3982708,72.7740018 82.3275714,72.4175183 82.0642555,72.234655 C81.8009397,72.0517916 81.4447196,72.1117952 81.2686158,72.3686766 Z M13.5880301,59.9286821 C13.0801598,60.5231176 13.114207,61.3980155 13.6428998,61.951426 L13.7552196,62.0576433 L18.1827441,65.8413458 C17.8487715,66.0591809 17.5396403,66.3280737 17.2671345,66.6470273 C17.0489548,66.9023952 16.8661371,67.175944 16.7182426,67.4616199 L16.613863,67.6780561 L12.1858023,63.8945639 C11.5517378,63.3528356 10.5985694,63.4276889 10.0568411,64.0617534 C9.54897084,64.6561889 9.58301799,65.5310868 10.1117108,66.0844973 L10.2240307,66.1907146 L17.909828,72.7572605 C18.0214233,72.8526047 18.1429032,72.9288497 18.2699952,72.9865552 C19.9893419,74.0105262 22.2599718,73.6651413 23.6192833,72.0741385 C24.9785948,70.4831358 24.9653017,68.1864264 23.6852955,66.6483226 C23.6086572,66.5314716 23.5143839,66.4233827 23.4027886,66.3280385 L15.7169913,59.7614925 C15.0829268,59.2197643 14.1297584,59.2946176 13.5880301,59.9286821 Z M151.228255,64.189406 C151.157959,64.2696315 151.100744,64.3637194 151.061215,64.4695687 L148.851223,70.3873606 C148.676164,70.8561219 148.914258,71.3780409 149.383019,71.5530993 C149.815722,71.7146916 150.293719,71.5242493 150.502384,71.1253008 L150.548758,71.0213029 L151.760508,67.7758006 C151.950169,67.9246177 152.164443,68.0465187 152.40048,68.1346666 C152.577509,68.2007775 152.757737,68.2445257 152.938366,68.2673011 L153.119025,68.2831371 L151.906786,71.5284568 C151.731727,71.9972181 151.969821,72.5191371 152.438582,72.6941955 C152.871285,72.8557878 153.349282,72.6653455 153.557948,72.266397 L153.604321,72.1623991 L155.814313,66.2446073 C155.853304,66.1401981 155.871799,66.0331517 155.872183,65.9273929 C156.069015,64.6970268 155.436644,63.4835911 154.296437,63.057782 C153.157476,62.6324385 151.886054,63.1327694 151.228255,64.189406 Z M79.9104369,65.0147966 C79.682911,65.2811037 79.688453,65.668032 79.9075454,65.9270506 L79.9884587,66.0083118 L82.1656107,67.8681714 C82.0078864,67.9684299 81.8625576,68.0932334 81.7352653,68.2422224 C81.6504037,68.3415484 81.5774108,68.4471144 81.5161309,68.5572529 L81.4329763,68.7256815 L79.2560639,66.8655414 C78.9601672,66.6127349 78.5153553,66.6476664 78.2625487,66.9435632 C78.0350228,67.2098703 78.0405648,67.5967987 78.2596572,67.8558172 L78.3405705,67.9370784 L82.1251163,71.1704962 C82.1849192,71.2215903 82.2508049,71.260931 82.3195592,71.2886656 C83.1456454,71.7617406 84.2019632,71.6122555 84.8254998,70.8824387 C85.449924,70.1515829 85.4317481,69.0828809 84.8335186,68.3405566 C84.7955769,68.2779919 84.7471671,68.2203181 84.688498,68.1701926 L80.9039521,64.9367748 C80.6080554,64.6839683 80.1632434,64.7188998 79.9104369,65.0147966 Z M216.296197,13.273091 C217.296674,14.1762429 217.703113,14.8093511 217.866856,15.6787541 C217.887717,15.7895153 217.940892,16.1359726 217.951654,16.1968305 C217.981717,16.366844 218.017154,16.5149734 218.070865,16.6822108 C218.441938,17.8376019 219.615663,19.6490562 222.196788,22.6827378 C224.777913,25.7164194 226.377998,27.1651173 227.459043,27.716448 C227.615519,27.7962506 227.756061,27.854954 227.919065,27.9118591 C227.977413,27.9322288 228.310881,28.0402065 228.416872,28.0785375 C229.248927,28.3794479 229.808802,28.8821243 230.539656,30.0138025 C232.619887,33.2294396 232.315698,37.7763695 229.856544,41.113899 C228.515765,42.9500177 227.093504,44.6744329 225.58841,46.286359 C224.066997,47.9157634 222.455905,49.4248359 220.749674,50.8160795 C217.26965,53.6276173 212.57229,53.5210113 209.636064,50.0699663 C208.590232,48.8407662 208.284493,47.9996346 208.331046,46.8559293 C208.331317,46.8492652 208.348478,46.5042551 208.350611,46.4135207 C208.353888,46.2741113 208.350308,46.1556447 208.33789,46.0339881 C208.205611,44.7380227 206.964509,42.5966956 203.532398,38.562822 C200.099624,34.5281692 198.181195,32.9565659 196.920292,32.6159211 C196.801288,32.5837711 196.684151,32.5609978 196.545166,32.541693 C196.454899,32.5291551 196.110975,32.4905792 196.102912,32.4895999 C194.9702,32.3520112 194.191007,31.9168783 193.151368,30.6949562 C190.053195,27.0535706 190.750739,22.6899833 194.198999,19.6016152 C195.841406,18.1439313 197.589031,16.7953312 199.441072,15.5545246 C201.273246,14.327028 203.203191,13.1993108 205.225643,12.1723157 C208.918495,10.277126 213.455219,10.7049864 216.296197,13.273091 Z M215.913374,30.056133 C215.480849,30.4241355 215.401384,31.0530234 215.709547,31.5139299 L215.787558,31.6171158 L218.138393,34.3794312 C217.873199,34.5011128 217.619054,34.6615212 217.384472,34.8611088 C217.208536,35.0107995 217.05259,35.1748819 216.917024,35.3497803 L216.788264,35.5281515 L214.438119,32.7652491 C214.041809,32.2994524 213.342933,32.2431226 212.877136,32.6394329 C212.444611,33.0074353 212.365146,33.6363233 212.673309,34.0972298 L212.75132,34.2004157 L217.02284,39.2208752 C217.07989,39.2879279 217.14321,39.3464955 217.211196,39.3967093 C218.296335,40.3493573 219.995709,40.3478333 221.18893,39.3326144 C222.38215,38.3173956 222.655828,36.6402026 221.889016,35.4164589 C221.850597,35.3413441 221.802927,35.2694614 221.745877,35.2024087 L217.474357,30.1819492 C217.078047,29.7161525 216.379171,29.6598227 215.913374,30.056133 Z M134.296197,0.273090997 C135.296674,1.17624292 135.703113,1.80935106 135.866856,2.67875415 C135.887717,2.7895153 135.940892,3.13597256 135.951654,3.19683048 C135.981717,3.36684402 136.017154,3.51497343 136.070865,3.68221081 C136.441938,4.83760189 137.615663,6.6490562 140.196788,9.68273778 C142.777913,12.7164194 144.377998,14.1651173 145.459043,14.716448 C145.615519,14.7962506 145.756061,14.854954 145.919065,14.9118591 C145.977413,14.9322288 146.310881,15.0402065 146.416872,15.0785375 C147.248927,15.3794479 147.808802,15.8821243 148.539656,17.0138025 C150.619887,20.2294396 150.315698,24.7763695 147.856544,28.113899 C146.515765,29.9500177 145.093504,31.6744329 143.58841,33.286359 C142.066997,34.9157634 140.455905,36.4248359 138.749674,37.8160795 C135.26965,40.6276173 130.57229,40.5210113 127.636064,37.0699663 C126.590232,35.8407662 126.284493,34.9996346 126.331046,33.8559293 C126.331317,33.8492652 126.348478,33.5042551 126.350611,33.4135207 C126.353888,33.2741113 126.350308,33.1556447 126.33789,33.0339881 C126.205611,31.7380227 124.964509,29.5966956 121.532398,25.562822 C118.099624,21.5281692 116.181195,19.9565659 114.920292,19.6159211 C114.801288,19.5837711 114.684151,19.5609978 114.545166,19.541693 C114.454899,19.5291551 114.110975,19.4905792 114.102912,19.4895999 C112.9702,19.3520112 112.191007,18.9168783 111.151368,17.6949562 C108.053195,14.0535706 108.750739,9.68998329 112.198999,6.60161525 C113.841406,5.14393128 115.589031,3.79533122 117.441072,2.55452457 C119.273246,1.32702804 121.203191,0.199310802 123.225643,-0.827684259 C126.918495,-2.72287397 131.455219,-2.29501357 134.296197,0.273090997 Z M70.8699947,-1.12887658 C75.7131041,-0.750681353 80.0666293,3.07640563 81.5436646,8.1535815 C82.3655516,10.9344727 83.0121141,13.7115787 83.4815217,16.4856612 C83.9560191,19.2898235 84.2401868,22.0918381 84.3323529,24.8991815 C84.4940658,30.6048799 80.7760408,35.2872893 75.0374983,35.5952345 C72.9935326,35.704919 71.9099311,35.3641665 70.7918451,34.4319176 C70.7853303,34.4264856 70.4504449,34.1421007 70.3605438,34.0697246 C70.2224146,33.9585219 70.1001437,33.8704813 69.9678617,33.7889366 C68.558709,32.9202691 65.4444236,32.5222065 58.7367291,32.8821589 C52.0277389,33.2421808 48.9676344,33.9720502 47.654811,34.9874848 C47.5309069,35.0833214 47.4178975,35.1845203 47.2915951,35.3105653 C47.2095647,35.3924284 46.9063001,35.7114469 46.8991152,35.7188674 C45.8896815,36.7613979 44.851781,37.2150789 42.8199177,37.324114 C36.7648687,37.6490437 32.8986548,33.5648204 32.4332386,27.6771234 C32.2249848,24.8831096 32.2076573,22.0667757 32.3793366,19.2279378 C32.5491743,16.4195522 32.8948259,13.5892018 33.4131972,10.7429554 C34.3395581,5.53046019 38.2582244,1.25959093 43.032772,0.365022993 C44.7129321,0.0490412844 45.6640614,0.126672597 46.6670452,0.633339813 C46.7948244,0.697888751 47.1852314,0.912045942 47.2549016,0.948222947 C47.4495332,1.04928754 47.6262158,1.12796772 47.8362223,1.20289672 C49.287092,1.72055791 52.0167871,1.93170224 57.0613202,1.66099943 C62.1058534,1.39029661 64.7972763,0.888240937 66.1844154,0.218284786 C66.3851972,0.121311813 66.552445,0.0241754281 66.7351433,-0.097137674 C66.8005418,-0.140562814 67.1657882,-0.395270343 67.2859258,-0.473123146 C68.2290419,-1.08429101 69.1665139,-1.26323288 70.8699947,-1.12887658 Z M205.660743,29.4249102 C204.595025,30.5277757 204.587624,32.2311571 205.644214,33.229519 C206.069406,33.6312785 206.608424,33.8610911 207.17238,33.9142343 C207.122832,34.6594771 207.383095,35.404859 207.954064,35.9443617 C208.859824,36.800206 210.282123,36.8757683 211.361669,36.1253971 C211.763194,35.8463043 211.877715,35.309149 211.617459,34.9256271 C211.357202,34.5421052 210.820721,34.4574487 210.419195,34.7365415 C210.028064,35.008409 209.51275,34.9810319 209.184583,34.6709505 C208.80177,34.3092333 208.804451,33.6920802 209.190572,33.2925004 C209.93049,32.5267914 208.983676,31.4139689 208.109345,32.0216988 C207.718215,32.2935663 207.2029,32.2661892 206.874734,31.9561078 C206.49192,31.5943907 206.494601,30.9772375 206.880723,30.5776577 C207.220521,30.2260149 207.222881,29.6829007 206.885993,29.3645783 C206.549105,29.0462559 206.000542,29.0732674 205.660743,29.4249102 Z M205.858735,18.2385825 C205.42621,18.6065849 205.346745,19.2354729 205.654908,19.6963794 L205.732919,19.7995653 L208.355501,22.8812739 C208.090307,23.0029555 207.836162,23.1633639 207.60158,23.3629515 C207.425644,23.5126422 207.269699,23.6767246 207.134132,23.851623 L207.005372,24.0299942 L204.38348,20.9476985 C203.98717,20.4819019 203.288294,20.425572 202.822497,20.8218824 C202.389972,21.1898848 202.310507,21.8187728 202.61867,22.2796792 L202.696681,22.3828651 L207.239948,27.7227179 C207.297036,27.7898148 207.360402,27.8484154 207.428304,27.898552 C208.513443,28.8512 210.212818,28.849676 211.406038,27.8344571 C212.599259,26.8192383 212.872936,25.1420453 212.106201,23.9184501 C212.067768,23.8432815 212.020073,23.7713483 211.962985,23.7042514 L207.419718,18.3643987 C207.023408,17.898602 206.324532,17.8422722 205.858735,18.2385825 Z M133.913374,17.056133 C133.480849,17.4241355 133.401384,18.0530234 133.709547,18.5139299 L133.787558,18.6171158 L136.138393,21.3794312 C135.873199,21.5011128 135.619054,21.6615212 135.384472,21.8611088 C135.208536,22.0107995 135.05259,22.1748819 134.917024,22.3497803 L134.788264,22.5281515 L132.438119,19.7652491 C132.041809,19.2994524 131.342933,19.2431226 130.877136,19.6394329 C130.444611,20.0074353 130.365146,20.6363233 130.673309,21.0972298 L130.75132,21.2004157 L135.02284,26.2208752 C135.07989,26.2879279 135.14321,26.3464955 135.211196,26.3967093 C136.296335,27.3493573 137.995709,27.3478333 139.18893,26.3326144 C140.38215,25.3173956 140.655828,23.6402026 139.889016,22.4164589 C139.850597,22.3413441 139.802927,22.2694614 139.745877,22.2024087 L135.474357,17.1819492 C135.078047,16.7161525 134.379171,16.6598227 133.913374,17.056133 Z M62.5695006,21.8310904 C61.9644142,21.7994413 61.4503834,22.2778899 61.4213807,22.8997352 C61.3931289,23.5054817 60.9554082,24.0065965 60.372671,24.1003273 C59.6928946,24.2096665 59.0539618,23.7316257 58.9455745,23.0325934 C58.7378737,21.6930481 56.8299414,21.7954327 56.7667874,23.1495128 C56.7385356,23.7552593 56.3008149,24.2563742 55.7180777,24.350105 C55.0383013,24.4594441 54.3993685,23.9814033 54.2909813,23.282371 C54.1955971,22.6672007 53.6333162,22.2465098 53.0350917,22.3427317 C52.4368672,22.4389535 52.0292345,23.0156509 52.1246187,23.6308212 C52.4237743,25.5601943 54.187269,26.8796168 56.0634943,26.5778339 C56.8185225,26.4563908 57.4853484,26.087168 57.9884664,25.5566067 C58.7232282,26.180793 59.7041981,26.4911361 60.7180876,26.3280563 C62.3264789,26.0693534 63.5346155,24.6862449 63.6125924,23.0143466 C63.6415951,22.3925013 63.1745869,21.8627395 62.5695006,21.8310904 Z M123.660743,16.4249102 C122.595025,17.5277757 122.587624,19.2311571 123.644214,20.229519 C124.069406,20.6312785 124.608424,20.8610911 125.17238,20.9142343 C125.122832,21.6594771 125.383095,22.404859 125.954064,22.9443617 C126.859824,23.800206 128.282123,23.8757683 129.361669,23.1253971 C129.763194,22.8463043 129.877715,22.309149 129.617459,21.9256271 C129.357202,21.5421052 128.820721,21.4574487 128.419195,21.7365415 C128.028064,22.008409 127.51275,21.9810319 127.184583,21.6709505 C126.80177,21.3092333 126.804451,20.6920802 127.190572,20.2925004 C127.93049,19.5267914 126.983676,18.4139689 126.109345,19.0216988 C125.718215,19.2935663 125.2029,19.2661892 124.874734,18.9561078 C124.49192,18.5943907 124.494601,17.9772375 124.880723,17.5776577 C125.220521,17.2260149 125.222881,16.6829007 124.885993,16.3645783 C124.549105,16.0462559 124.000542,16.0732674 123.660743,16.4249102 Z M51.2264911,12.8363058 L41.9939959,13.3317456 C41.2167414,13.3734551 40.6204644,14.0373566 40.6621739,14.814611 C40.7014299,15.5461446 41.2918317,16.117366 42.009157,16.1472638 L42.1450393,16.146433 L47.4677473,15.8602765 C47.3835237,16.2227168 47.3482991,16.6037845 47.3693036,16.9952024 C47.3861033,17.3082656 47.4379583,17.6108962 47.5207371,17.8992795 L47.5885548,18.1128359 L42.2658741,18.3981829 C41.4886197,18.4398924 40.8923427,19.1037939 40.9340522,19.8810483 C40.9733082,20.6125819 41.56371,21.1838033 42.2810353,21.2137011 L42.4169176,21.2128703 L51.6494128,20.7174305 C51.7776455,20.7105492 51.9009522,20.6867325 52.017225,20.6486025 C53.8303161,20.2518566 55.1411055,18.5481707 55.0356925,16.583804 C54.9299898,14.6140397 53.4365197,13.0572773 51.5846064,12.8625523 C51.4694078,12.8390627 51.3493659,12.829712 51.2264911,12.8363058 Z M70.9400626,11.7784241 L62.2551666,12.2444783 C61.4779122,12.2861878 60.8816352,12.9500893 60.9233447,13.7273437 C60.9626007,14.4588773 61.5530025,15.0300987 62.2703278,15.0599965 L62.4062101,15.0591657 L67.1813188,14.8023948 C67.0970952,15.1648351 67.0618706,15.5459028 67.0828751,15.9373207 C67.0996749,16.2503839 67.1515298,16.5530145 67.2343086,16.8413978 L67.3021263,17.0549542 L62.5270449,17.3109156 C61.7497904,17.3526251 61.1535134,18.0165266 61.1952229,18.793781 C61.2344789,19.5253146 61.8248807,20.096536 62.542206,20.1264338 L62.6780883,20.125603 L71.3629844,19.6595488 C71.4912171,19.6526675 71.6145237,19.6288508 71.7307966,19.5907208 C73.5438876,19.1939749 74.8546771,17.490289 74.749264,15.5259223 C74.6435613,13.556158 73.1500913,11.9993956 71.2981779,11.8046706 C71.1829793,11.781181 71.0629374,11.7718303 70.9400626,11.7784241 Z M123.858735,5.23858249 C123.42621,5.60658492 123.346745,6.23547289 123.654908,6.69637935 L123.732919,6.79956525 L126.355501,9.88127388 C126.090307,10.0029555 125.836162,10.1633639 125.60158,10.3629515 C125.425644,10.5126422 125.269699,10.6767246 125.134132,10.851623 L125.005372,11.0299942 L122.38348,7.94769853 C121.98717,7.48190187 121.288294,7.42557205 120.822497,7.82188236 C120.389972,8.18988479 120.310507,8.81877276 120.61867,9.27967922 L120.696681,9.38286512 L125.239948,14.7227179 C125.297036,14.7898148 125.360402,14.8484154 125.428304,14.898552 C126.513443,15.8512 128.212818,15.849676 129.406038,14.8344571 C130.599259,13.8192383 130.872936,12.1420453 130.106201,10.9184501 C130.067768,10.8432815 130.020073,10.7713483 129.962985,10.7042514 L125.419718,5.36439866 C125.023408,4.898602 124.324532,4.84227218 123.858735,5.23858249 Z" id="形状结合" fill="#FFFFFF" fill-rule="nonzero" opacity="0.02" mask="url(#mask-2)"></path>
            <path d="M355.731409,115.824512 C357.215257,117.464791 357.716218,118.629898 357.741328,120.164128 L357.741589,120.397137 C357.741459,120.406762 357.730241,120.90523 357.730726,121.036207 C357.731473,121.237447 357.741296,121.408147 357.764001,121.583021 C358.001038,123.40863 359.807265,126.353679 364.691762,131.790423 L364.994672,132.12641 C370.10869,137.77956 372.939851,139.953441 374.773456,140.383675 C374.946511,140.424281 375.116503,140.451452 375.317898,140.472561 C375.4487,140.486271 375.946699,140.525245 375.958376,140.526267 C377.598949,140.669829 378.740876,141.259696 380.289691,142.971791 C384.905234,148.073915 384.06971,154.401677 379.213192,159.023391 C376.899509,161.205521 374.429649,163.23541 371.80482,165.11488 C369.208148,166.974188 366.466415,168.694315 363.587184,170.273646 C358.330698,173.186194 351.764741,172.788914 347.562649,169.222406 C346.082892,167.968202 345.471289,167.074715 345.200753,165.828639 C345.166288,165.66989 345.075913,165.172744 345.057986,165.085485 C345.007907,164.841718 344.950932,164.629776 344.866825,164.391159 C344.301461,162.787182 342.614783,160.324195 338.982188,156.277007 L338.67495,155.936059 C334.829687,151.685419 332.46291,149.673387 330.880669,148.930547 C330.651647,148.823024 330.446457,148.745162 330.208911,148.670983 C330.123879,148.64443 329.638247,148.504845 329.483735,148.454694 C328.27077,148.060989 327.442794,147.36307 326.343281,145.766177 C323.213952,141.228814 323.474431,134.655664 326.893301,129.722499 C328.756691,127.009138 330.742095,124.452949 332.851494,122.054997 C334.983766,119.631043 337.250225,117.376309 339.658654,115.286918 C344.571901,111.06296 351.357128,110.989084 355.731409,115.824512 Z M270.709784,129.212295 C272.249925,129.539639 272.987674,130.004613 273.634268,130.908601 C273.638035,130.913869 273.830682,131.188399 273.883182,131.259198 C273.963846,131.367979 274.037302,131.456676 274.119477,131.542623 C274.99486,132.458186 277.229914,133.36986 282.284203,134.444106 C287.339468,135.518561 289.756948,135.595378 290.932728,135.115233 C291.043698,135.069917 291.147633,135.018511 291.266349,134.951603 C291.343452,134.908148 291.631731,134.735535 291.638534,134.731546 C292.594272,134.171122 293.454907,134.04658 294.985928,134.371986 C299.548445,135.34171 301.61439,139.096355 300.797799,143.490626 C300.400916,145.573419 299.857786,147.634456 299.169797,149.674254 C298.489189,151.692172 297.673629,153.691087 296.726616,155.667183 C295.009356,159.290699 291.254973,161.629737 287.531298,161.33146 C286.220705,161.227362 285.529426,160.981031 284.884324,160.410914 C284.802139,160.338282 284.55438,160.103991 284.509763,160.063671 C284.385121,159.951033 284.269395,159.858327 284.128171,159.761719 C283.186143,159.117296 281.302041,158.44397 277.751949,157.671136 L277.365174,157.587949 C273.564088,156.78006 271.465481,156.610303 270.302695,156.82323 C270.134388,156.854051 269.99096,156.891675 269.831282,156.943883 C269.774124,156.962572 269.452493,157.075844 269.347872,157.108772 C268.526562,157.367268 267.794776,157.31111 266.555764,156.87335 C263.032424,155.631538 260.553685,151.967606 260.458719,147.96382 C260.397135,145.768282 260.465055,143.610462 260.663988,141.490168 C260.865079,139.346884 261.207144,137.243112 261.692901,135.173723 C262.699186,130.972964 266.385757,128.29326 270.709784,129.212295 Z M350.566804,146.453836 C349.031206,147.842986 348.76674,150.11903 349.83454,151.84186 C349.897358,151.979523 349.9821,152.110005 350.089022,152.2282 L357.108766,159.987982 C357.668243,160.606441 358.62315,160.654255 359.241609,160.094777 C359.821415,159.570267 359.899677,158.698212 359.446199,158.081659 L359.348405,157.961934 L355.308123,153.495791 C355.669544,153.324725 356.011905,153.098726 356.323217,152.817104 C356.57229,152.591784 356.787922,152.343131 356.969849,152.07729 L357.099971,151.874783 L361.140116,156.341095 C361.699594,156.959554 362.654501,157.007368 363.27296,156.447891 C363.852766,155.92338 363.931028,155.051325 363.47755,154.434772 L363.379756,154.315047 L356.360013,146.555264 C356.25309,146.43707 356.131725,146.339718 356.001086,146.263902 C354.393479,145.028904 352.102402,145.064685 350.566804,146.453836 Z M283.814253,144.808177 C282.46994,144.759489 281.244835,145.679694 280.955925,147.039009 C280.667014,148.398323 281.41196,149.737245 282.659637,150.240212 C282.743132,150.285679 282.834526,150.31999 282.932274,150.340766 L289.640024,151.766441 C290.183857,151.882029 290.718422,151.534867 290.834009,150.991034 C290.94134,150.486047 290.649668,149.98905 290.17203,149.828081 L290.058602,149.797049 L286.195847,148.976323 C286.323351,148.742463 286.419542,148.486454 286.477742,148.212624 C286.521392,148.007253 286.541443,147.802346 286.539725,147.60072 L286.530819,147.400292 L290.393464,148.221535 C290.937297,148.337122 291.471862,147.989961 291.587449,147.446128 C291.69478,146.94114 291.403108,146.444144 290.92547,146.283175 L290.812042,146.252143 L284.104292,144.826467 C284.006544,144.805691 283.909096,144.799866 283.814253,144.808177 Z M269.615293,141.790308 C268.27098,141.74162 267.045875,142.661824 266.756965,144.021139 C266.468054,145.380454 267.213,146.719376 268.460677,147.222342 C268.544172,147.26781 268.635566,147.302121 268.733314,147.322896 L275.046648,148.664742 C275.590481,148.780329 276.125046,148.433168 276.240633,147.889335 C276.347964,147.384347 276.056292,146.887351 275.578654,146.726382 L275.465226,146.69535 L271.996887,145.958453 C272.124391,145.724594 272.220582,145.468584 272.278782,145.194755 C272.322432,144.989383 272.342483,144.784477 272.340765,144.582851 L272.331859,144.382423 L275.800088,145.119836 C276.343921,145.235423 276.878486,144.888261 276.994073,144.344429 C277.101404,143.839441 276.809732,143.342444 276.332094,143.181476 L276.218666,143.150443 L269.905332,141.808597 C269.807584,141.787822 269.710136,141.781996 269.615293,141.790308 Z M349.870826,134.695021 C349.331982,135.088609 349.220147,135.849816 349.621035,136.395225 C350.021923,136.940633 350.783726,137.063708 351.32257,136.67012 C351.847464,136.286722 352.574276,136.328438 353.063898,136.770067 C353.635053,137.285236 353.687733,138.160531 353.181563,138.725093 C352.211595,139.806954 353.644192,141.390579 354.817535,140.533533 C355.342428,140.150135 356.069241,140.191851 356.558863,140.63348 C357.130018,141.148649 357.182698,142.023944 356.676527,142.588506 C356.231081,143.085338 356.277441,143.855625 356.780076,144.30899 C357.28271,144.762355 358.051282,144.727119 358.496728,144.230287 C359.893791,142.672062 359.748391,140.256193 358.171967,138.834293 C357.537584,138.262093 356.758937,137.933129 355.961399,137.854595 C355.962877,136.797893 355.528882,135.739258 354.677002,134.97088 C353.325615,133.751958 351.319566,133.636817 349.870826,134.695021 Z M335.7646,130.091146 C334.229219,131.4801 333.964611,133.755695 335.032093,135.478637 C335.094935,135.616496 335.179757,135.747163 335.286818,135.86551 L341.895389,143.170773 C342.454867,143.789232 343.409773,143.837046 344.028233,143.277568 C344.608038,142.753058 344.6863,141.881003 344.232823,141.26445 L344.135028,141.144725 L340.505919,137.133101 C340.86734,136.962036 341.209701,136.736036 341.521012,136.454414 C341.770086,136.229094 341.985718,135.980441 342.167645,135.7146 L342.297766,135.512093 L345.92674,139.523886 C346.486217,140.142345 347.441124,140.190159 348.059584,139.630682 C348.639389,139.106171 348.717651,138.234116 348.264173,137.617563 L348.166379,137.497838 L341.557808,130.192575 C341.450748,130.074228 341.329207,129.976776 341.198199,129.900687 C339.590626,128.666225 337.29998,128.702192 335.7646,130.091146 Z M276.065675,140.974911 C275.928899,141.39815 276.161613,141.852183 276.585456,141.989023 C277.009298,142.125863 277.463768,141.89369 277.600543,141.470451 C277.733778,141.058168 278.138284,140.795862 278.569677,140.842006 C279.072908,140.895834 279.437392,141.346887 279.383775,141.849462 C279.281032,142.812537 280.655245,143.104615 280.953076,142.183003 C281.08631,141.770721 281.490816,141.508415 281.92221,141.554559 C282.42544,141.608387 282.789924,142.05944 282.736308,142.562014 C282.689124,143.004295 283.009881,143.401236 283.452739,143.448606 C283.895598,143.495977 284.292855,143.175838 284.340039,142.733557 C284.488023,141.346421 283.482024,140.101486 282.093078,139.952917 C281.53414,139.89313 280.991555,140.02095 280.535099,140.291128 C280.129857,139.721094 279.491115,139.320649 278.740545,139.240365 C277.549873,139.113004 276.43341,139.836986 276.065675,140.974911 Z M292.484211,66.9485658 C295.337823,67.1560603 297.849579,69.0185563 298.592971,71.5265207 C298.855207,72.4090061 298.865736,72.9227839 298.648427,73.4881018 C298.620742,73.5601228 298.527047,73.7811085 298.511424,73.8204315 C298.467779,73.930285 298.435184,74.029284 298.406436,74.1459255 C298.20783,74.951765 298.244315,76.4256369 298.667098,79.1127759 C299.089882,81.799915 299.507743,83.2137826 299.944204,83.9197033 C300.007379,84.0218819 300.0688,84.1060889 300.144069,84.1972328 L300.223567,84.2905555 L300.310016,84.3918975 C300.337653,84.4244782 300.361963,84.4534251 300.376501,84.4714371 C300.75695,84.9427705 300.904685,85.4350213 300.926061,86.3549425 C300.98887,88.9701297 299.170341,91.5140996 296.521571,92.5865027 C295.071484,93.1807826 293.613797,93.6809392 292.147999,94.0860342 C290.666308,94.4955218 289.175312,94.8029392 287.670899,95.007805 C284.611894,95.4104615 281.889883,93.678235 281.408934,90.6214087 C281.237629,89.5326222 281.361297,88.9333108 281.801111,88.2827651 C281.803674,88.2789745 281.93818,88.0838394 281.972156,88.0316745 C282.024357,87.9515254 282.064976,87.8811538 282.101552,87.8057795 C282.491183,87.002844 282.534067,85.3126108 281.971893,81.7395333 C281.40961,78.1657656 280.848995,76.56703 280.230859,75.9200528 C280.172519,75.8589912 280.111895,75.8040624 280.037181,75.7433893 C279.996743,75.7105512 279.85931,75.6045398 279.812084,75.5681255 L279.796072,75.5557707 C279.180039,75.0728067 278.879061,74.5419784 278.70877,73.4596386 C278.201294,70.2342145 280.184863,67.937033 283.325037,67.3616153 C284.815903,67.0953048 286.329263,66.9300287 287.86511,66.8647488 C289.384483,66.8001691 290.925327,66.8285485 292.484211,66.9485658 Z M347.811602,51.8517661 C349.798062,52.2985907 351.723351,52.8502978 353.587325,53.5082545 C355.47151,54.1733455 357.290495,54.9529615 359.04832,55.8506542 C362.612362,57.6906488 364.244839,61.5324686 362.508314,65.1120451 C361.889795,66.3870258 361.316512,66.9274672 360.367805,67.287891 C360.362277,67.2899911 360.074949,67.3961912 360.000256,67.4260487 C359.885493,67.4719234 359.7903,67.5160622 359.695743,67.5684694 C358.688461,68.1267443 357.398392,69.8774045 355.368594,74.0615166 C353.338405,78.2464371 352.76035,80.347386 352.944372,81.4872571 C352.96174,81.594838 352.986063,81.6976429 353.021208,81.8169362 C353.044034,81.8944143 353.138493,82.1864103 353.140646,82.1932814 C353.443159,83.1586374 353.373896,83.9412309 352.75904,85.2086625 C350.926738,88.9856688 347.116826,89.9396693 343.338903,88.2217676 C341.550316,87.3988993 339.812078,86.4528343 338.123431,85.3846725 C336.452898,84.3279688 334.82786,83.1573405 333.251012,81.8767225 C330.355532,79.5453579 329.043546,75.7218175 330.095686,72.5267454 C330.465205,71.4019996 330.832174,70.8524089 331.480461,70.417138 C331.563052,70.3616849 331.825814,70.1980111 331.871451,70.1681096 C331.99894,70.0845763 332.106637,70.0043093 332.22321,69.9025889 C333.028578,69.1998341 334.074592,67.6185771 335.601104,64.4719083 C337.127617,61.3252396 337.722072,59.5249226 337.775507,58.45739 C337.783241,58.3028697 337.779621,58.1686005 337.766314,58.0167637 C337.76155,57.9624123 337.727454,57.6547262 337.719884,57.5555342 C337.66046,56.7768478 337.865018,56.148383 338.519382,55.162471 C340.377453,52.3581707 344.192741,51.0217426 347.811602,51.8517661 Z M292.969412,81.2725644 C292.616993,81.3280126 292.366944,81.6357214 292.374308,81.9827508 L292.382816,82.0782102 L292.782916,84.619992 C292.597891,84.5936376 292.406329,84.5939919 292.212748,84.6244491 C292.083695,84.6447539 291.959603,84.6775159 291.841438,84.721367 L291.668758,84.7952892 L291.269022,82.25345 C291.208533,81.868993 290.847833,81.6063651 290.463376,81.666854 C290.110958,81.7223022 289.860909,82.030011 289.868273,82.3770405 L289.87678,82.4724998 L290.605316,87.1029433 C290.617541,87.1806448 290.642029,87.25337 290.676242,87.3191411 C290.996401,88.2156438 291.896225,88.788766 292.844472,88.6395726 C293.794068,88.4901668 294.475017,87.6662959 294.503034,86.7133326 C294.514877,86.641127 294.515586,86.5658324 294.503593,86.4896039 L293.775057,81.8591604 C293.714568,81.4747034 293.353868,81.2120755 292.969412,81.2725644 Z M287.551138,77.1319711 C286.607699,77.3850952 286.049346,78.3787952 286.304022,79.3514623 C286.406509,79.7428817 286.627383,80.0755883 286.919426,80.3141218 C286.649741,80.7318388 286.549945,81.2635984 286.687569,81.7892159 C286.905889,82.6230332 287.661447,83.1904162 288.497766,83.148576 C288.808827,83.1330139 289.046437,82.8609213 289.028484,82.5408402 C289.010532,82.220759 288.743814,81.9738975 288.432754,81.9894596 C288.129747,82.0046187 287.856,81.7990499 287.7769,81.496949 C287.684628,81.1445414 287.886925,80.7845133 288.228743,80.6928038 C288.883764,80.5170622 288.726547,79.5178194 288.049207,79.551706 C287.7462,79.5668652 287.472453,79.3612963 287.393353,79.0591955 C287.301082,78.7067879 287.503379,78.3467598 287.845197,78.2550502 C288.146007,78.174343 288.324035,77.857507 288.242833,77.5473772 C288.161631,77.2372475 287.851948,77.0512638 287.551138,77.1319711 Z M339.699084,70.6071633 C339.634281,70.6743058 339.578831,70.7526821 339.53589,70.8411978 L336.764626,76.5537286 C336.546224,77.0039318 336.734135,77.5459439 337.184338,77.7643466 C337.599911,77.9659491 338.093711,77.821343 338.339,77.443806 L338.394956,77.3446346 L339.989241,74.0576656 C340.165382,74.2209346 340.367944,74.3609919 340.594637,74.4709652 C340.764657,74.5534451 340.939566,74.6147901 341.116488,74.656035 L341.293975,74.6906181 L339.69922,77.9773594 C339.480818,78.4275626 339.668729,78.9695747 340.118933,79.1879774 C340.534505,79.3895798 341.028305,79.2449738 341.273594,78.8674368 L341.32955,78.7682653 L344.100814,73.0557345 C344.142469,72.969871 344.169343,72.880668 344.181177,72.7908785 C344.509003,71.6109168 343.977819,70.3397976 342.861473,69.7982355 C341.747605,69.2578759 340.423883,69.6246472 339.699084,70.6071633 Z M291.299856,70.6611666 C290.947437,70.7166148 290.697389,71.0243236 290.704753,71.371353 L290.71326,71.4668124 L291.158484,74.2953887 C290.973459,74.2690343 290.781897,74.2693886 290.588316,74.2998458 C290.459262,74.3201506 290.335171,74.3529127 290.217006,74.3967637 L290.044326,74.4706859 L289.599467,71.6420522 C289.538978,71.2575952 289.178278,70.9949673 288.793821,71.0554562 C288.441402,71.1109044 288.191354,71.4186132 288.198718,71.7656427 L288.207225,71.861102 L288.980884,76.77834 C288.993109,76.8560416 289.017597,76.9287667 289.05181,76.9945379 C289.371969,77.8910405 290.271793,78.4641627 291.22004,78.3149693 C292.169636,78.1655636 292.850585,77.3416926 292.878602,76.3887294 C292.890445,76.3165237 292.891154,76.2412292 292.879161,76.1650006 L292.105502,71.2477626 C292.045013,70.8633056 291.684313,70.6006777 291.299856,70.6611666 Z M348.263805,66.9741236 C348.048872,67.3228724 348.150148,67.7772087 348.490012,67.9889121 C348.821077,68.1951349 348.95995,68.6113305 348.82273,68.9860511 C348.662659,69.4231714 348.185942,69.6523506 347.757954,69.4979372 C346.937806,69.2020371 346.373659,70.3649381 347.113719,70.8259265 C347.444785,71.0321493 347.583657,71.4483449 347.446437,71.8230655 C347.286366,72.2601858 346.809649,72.489365 346.381661,72.3349516 C346.005017,72.199063 345.585492,72.4007479 345.444624,72.7854274 C345.303757,73.1701069 345.494891,73.5921108 345.871534,73.7279994 C347.052809,74.15419 348.368576,73.521641 348.810383,72.3151617 C348.988174,71.8296519 348.998039,71.3189162 348.863933,70.8547473 C349.453969,70.6144823 349.947929,70.1301141 350.186675,69.4781473 C350.565413,68.4438948 350.182115,67.2951689 349.268354,66.7259812 C348.92849,66.5142777 348.478738,66.6253749 348.263805,66.9741236 Z M345.527547,58.5921351 C345.462977,58.6591527 345.407717,58.7373386 345.364896,58.8256073 L342.755549,64.2043717 C342.537146,64.6545749 342.725057,65.1965871 343.175261,65.4149897 C343.590833,65.6165922 344.084633,65.4719862 344.329922,65.0944491 L344.385879,64.9952777 L345.818247,62.0420751 C345.994387,62.2053441 346.19695,62.3454015 346.423643,62.4553747 C346.593662,62.5378546 346.768571,62.5991996 346.945493,62.6404445 L347.12298,62.6750277 L345.690143,65.6280025 C345.47174,66.0782057 345.659651,66.6202178 346.109855,66.8386205 C346.525427,67.0402229 347.019227,66.8956169 347.264517,66.5180799 L347.320473,66.4189085 L349.92982,61.0401441 C349.971367,60.9545004 349.998211,60.8655344 350.00992,60.7762304 C350.338292,59.5960032 349.807121,58.3243513 348.690478,57.7826451 C347.576298,57.2421337 346.252145,57.6092628 345.527547,58.5921351 Z M313.501522,10.2040999 C314.853834,13.2895069 316.004911,16.3961613 316.952772,19.5252084 C317.910911,22.6881842 318.650883,25.8764867 319.171881,29.0989779 C320.201459,35.6521715 316.638886,41.5925753 310.116205,42.7857894 C307.792943,43.2107908 306.502234,42.9763001 305.084508,42.0650438 C305.076247,42.0597341 304.650851,41.7808489 304.537239,41.710555 C304.36268,41.6025515 304.209699,41.5189301 304.046222,41.4442584 C302.304756,40.6488081 298.68127,40.6448882 291.057008,42.0396179 C283.431273,43.4346169 280.036744,44.7229216 278.684396,46.0851573 C278.556761,46.2137249 278.44239,46.3468822 278.316482,46.5106206 C278.234707,46.6169647 277.934812,47.0289885 277.927686,47.0385914 C276.926604,48.3877425 275.805784,49.0622998 273.496279,49.4847847 C266.613842,50.7438099 261.584132,46.6007824 260.180004,39.8821668 C259.528106,36.6919976 259.091436,33.4482112 258.86777,30.150876 C258.646504,26.8889112 258.623221,23.5759464 258.795277,20.2194287 C259.084092,14.0757986 262.937227,8.58045833 268.269709,6.85187375 C270.14603,6.24222141 271.24617,6.19276957 272.469162,6.63028205 C272.62497,6.68602074 273.103521,6.87584597 273.188619,6.90736927 C273.42635,6.99543323 273.640224,7.06031713 273.891685,7.11600936 C275.628948,7.50076973 278.784571,7.34541232 284.518411,6.29650351 C290.25225,5.2475947 293.258509,4.27574008 294.747052,3.30087308 C294.962511,3.15976571 295.139564,3.02336843 295.330723,2.85684635 C295.39915,2.79723824 295.779508,2.45029014 295.905493,2.34300215 C296.894514,1.50075929 297.941047,1.15755693 299.910714,1.06359138 C305.510048,0.792073915 311.05947,4.56752325 313.501522,10.2040999 Z M293.383788,27.8106225 C292.70903,27.8643188 292.203331,28.4472077 292.254277,29.1125412 C292.303904,29.7606501 291.885796,30.3566223 291.252556,30.5403965 C290.513868,30.7547734 289.74196,30.3387511 289.528452,29.6111847 C289.119309,28.21696 287.018704,28.60123 287.12964,30.0500067 C287.179267,30.6981156 286.76116,31.2940877 286.12792,31.4778619 C285.389232,31.6922388 284.617324,31.2762165 284.403815,30.5486502 C284.215921,29.9083689 283.536618,29.5422563 282.886549,29.7309146 C282.23648,29.919573 281.861813,30.5915613 282.049707,31.2318425 C282.639004,33.2399713 284.769518,34.3882189 286.808345,33.7965253 C287.628807,33.5584168 288.318421,33.0696006 288.805064,32.4328806 C289.702692,32.990452 290.831224,33.178804 291.932981,32.8590599 C293.680762,32.3518315 294.834765,30.706911 294.697791,28.9180897 C294.646845,28.2527562 294.058546,27.7569262 293.383788,27.8106225 Z M279.67625,19.8730212 L269.383263,21.755949 C268.562905,21.9060195 268.01953,22.6927067 268.169601,23.5130641 C268.310844,24.2851651 269.01601,24.8119114 269.782419,24.7460952 L269.926716,24.7267258 L275.850882,23.6429487 C275.806046,24.0402877 275.817949,24.4503427 275.89349,24.8632826 C275.953928,25.1936671 276.05181,25.5079034 276.182049,25.802533 L276.285716,26.0197749 L270.361479,27.1033473 C269.541121,27.2534177 268.997746,28.0401049 269.147817,28.8604623 C269.28906,29.6325633 269.994226,30.1593096 270.760635,30.0934934 L270.904932,30.074124 L281.19792,28.1911962 C281.354699,28.1625161 281.501362,28.1105845 281.634597,28.0394296 C283.530935,27.3228271 284.706683,25.3561209 284.334067,23.3192219 C283.961451,21.2823228 282.165595,19.8592211 280.138691,19.8600549 C279.988579,19.840988 279.83303,19.8443411 279.67625,19.8730212 Z M301.380592,15.9025794 L291.690503,17.6752171 C290.870146,17.8252876 290.326771,18.6119748 290.476841,19.4323322 C290.618084,20.2044332 291.32325,20.7311795 292.08966,20.6653633 L292.233956,20.6459939 L297.555224,19.6725068 C297.510388,20.0698459 297.522291,20.4799009 297.597832,20.8928407 C297.65827,21.2232253 297.756152,21.5374615 297.886391,21.8320912 L297.990058,22.0493331 L292.668719,23.0226154 C291.848362,23.1726858 291.304987,23.959373 291.455057,24.7797304 C291.5963,25.5518314 292.301466,26.0785778 293.067876,26.0127615 L293.212172,25.9933921 L302.902262,24.2207544 C303.059244,24.1920372 303.206083,24.1400084 303.339745,24.0686832 C305.235611,23.351828 306.410972,21.3853905 306.038409,19.34878 C305.665846,17.3121695 303.870446,15.8891825 301.843615,15.8896871 C301.693323,15.8705375 301.537574,15.8738622 301.380592,15.9025794 Z" id="形状结合" fill="#FFFFFF" fill-rule="nonzero" opacity="0.04" mask="url(#mask-2)"></path>
            <path d="M434.042866,116.528858 C435.739297,116.72508 436.582538,117.159053 437.370929,118.087116 C437.375523,118.092523 437.610933,118.374762 437.674688,118.447248 C437.772644,118.55862 437.860817,118.648607 437.958137,118.734626 C438.969567,119.628611 441.378774,120.379941 446.665382,121.014025 L447.067296,121.061362 C452.63556,121.705429 455.254931,121.531326 456.477474,120.875725 C456.592857,120.813849 456.700035,120.746009 456.821641,120.659484 C456.900621,120.603288 457.194911,120.38199 457.201864,120.376861 C458.178704,119.656256 459.096118,119.426707 460.782505,119.621767 C465.808016,120.203056 468.413114,124.124037 467.967614,129.059312 C467.745831,131.399582 467.363887,133.73151 466.823333,136.055519 C466.288577,138.354597 465.606139,140.647162 464.779416,142.928627 C463.284275,147.110029 459.460665,150.092495 455.408129,150.162142 C453.981878,150.187629 453.210571,149.989891 452.456972,149.430002 C452.360964,149.358672 452.070012,149.126727 452.017803,149.087023 C451.871952,148.976105 451.737713,148.886221 451.57554,148.794763 C450.491279,148.183285 448.381662,147.641111 444.452118,147.16786 L444.053068,147.120764 C439.866255,146.636486 437.582143,146.673914 436.347082,147.033323 C436.168313,147.085346 436.0171,147.142212 435.849779,147.216906 C435.789885,147.243644 435.453667,147.403046 435.343911,147.450575 C434.482295,147.823694 433.686125,147.840095 432.304047,147.489817 C428.374174,146.497087 425.332128,142.720381 424.831628,138.313501 C424.5469,135.897939 424.40583,133.510121 424.410031,131.149674 C424.414277,128.763632 424.574753,126.406087 424.893884,124.071089 C425.563552,119.328988 429.280046,115.977954 434.042866,116.528858 Z M450.476941,133.207772 C448.998541,133.290169 447.749423,134.428065 447.573207,135.951533 C447.396991,137.475002 448.353367,138.868002 449.77327,139.286657 C449.867921,139.326535 449.969747,139.353825 450.076918,139.366221 L457.548914,140.230489 C458.157183,140.300846 458.707318,139.864782 458.777675,139.256513 C458.843341,138.688796 458.467859,138.171719 457.922958,138.048096 L457.803699,138.027752 L453.50051,137.529899 C453.615716,137.260344 453.694446,136.969785 453.729855,136.663658 C453.756436,136.433847 453.757246,136.207005 453.734578,135.986032 L453.704169,135.767122 L458.007527,136.265563 C458.615796,136.33592 459.165931,135.899857 459.236288,135.291588 C459.301955,134.72387 458.926473,134.206794 458.381571,134.083171 L458.262313,134.062827 L450.790316,133.198559 C450.683145,133.186163 450.577779,133.189488 450.476941,133.207772 Z M434.644475,131.376655 C433.16655,131.459548 431.917999,132.597259 431.741826,134.120356 C431.565653,135.643452 432.521519,137.036143 433.94093,137.455075 C434.035853,137.495172 434.138004,137.522605 434.245537,137.535043 L441.277773,138.348445 C441.886042,138.418802 442.436177,137.982738 442.506534,137.374469 C442.5722,136.806752 442.196718,136.289675 441.651817,136.166052 L441.532558,136.145709 L437.669129,135.698721 C437.784335,135.429166 437.863065,135.138607 437.898474,134.83248 C437.925056,134.60267 437.925865,134.375828 437.903197,134.154854 L437.872789,133.935945 L441.736386,134.38352 C442.344655,134.453877 442.89479,134.017813 442.965147,133.409544 C443.030813,132.841826 442.655331,132.32475 442.11043,132.201127 L441.991171,132.180783 L434.958936,131.367381 C434.851402,131.354943 434.745686,131.358333 434.644475,131.376655 Z M444.348708,127.631874 C443.034089,127.61614 441.888235,128.526068 441.603423,129.811918 C441.49749,130.290177 441.798611,130.763749 442.275995,130.869672 C442.753379,130.975594 443.226251,130.673756 443.332184,130.195497 C443.435374,129.72962 443.850529,129.399943 444.32683,129.405644 C444.882445,129.412294 445.327295,129.868887 445.32043,130.425472 C445.307274,131.49205 446.839478,131.669276 447.070149,130.627858 C447.173339,130.161981 447.588494,129.832304 448.064795,129.838005 C448.62041,129.844655 449.06526,130.301248 449.058395,130.857834 C449.052353,131.347647 449.443835,131.749463 449.932794,131.755315 C450.421753,131.761167 450.82303,131.36884 450.829072,130.879027 C450.84802,129.342815 449.620207,128.08259 448.086673,128.064235 C447.469551,128.056849 446.889618,128.253447 446.418489,128.597159 C445.916838,128.014361 445.177411,127.641793 444.348708,127.631874 Z M403.436199,84.5673883 C403.712914,85.6342671 403.648308,86.2427849 403.274062,86.9331373 C403.271882,86.9371598 403.157055,87.144487 403.128331,87.1997178 C403.084199,87.2845776 403.050639,87.3585764 403.021592,87.4371596 C402.712158,88.2742787 402.834385,89.960632 403.742483,93.4618148 C404.650756,96.9636739 405.364677,98.5000861 406.042986,99.0836685 C406.107005,99.1387469 406.172699,99.1874989 406.252976,99.2405931 C406.305114,99.2750765 406.50654,99.4007995 406.51124,99.4037929 C407.171453,99.8243498 407.522786,100.323281 407.797863,101.383843 C408.617604,104.544367 406.867622,107.024115 403.79857,107.903157 C402.340799,108.313653 400.850784,108.625791 399.328633,108.840604 C397.82281,109.053112 396.286547,109.1752 394.723391,109.207847 C391.863149,109.279754 389.181662,107.671202 388.197128,105.247731 C387.850045,104.395041 387.789439,103.884742 387.950556,103.300919 C387.971083,103.226541 388.04277,102.997468 388.054482,102.956808 C388.087201,102.843221 388.109982,102.741514 388.127212,102.622624 C388.24625,101.801252 388.066141,100.337971 387.383205,97.7049009 C386.700269,95.0718304 386.146458,93.7054764 385.643207,93.0455067 C385.570364,92.9499792 385.501021,92.8721664 385.417218,92.7888009 L385.328994,92.7036797 L385.23307,92.6112555 C385.202387,92.5815266 385.175369,92.5550896 385.159142,92.538582 C384.734523,92.1066155 384.539466,91.6311268 384.428441,90.71768 C384.110782,88.1210972 385.672434,85.41184 388.203939,84.0861271 C389.589127,83.3532054 390.991062,82.7132163 392.410343,82.167044 C393.845014,81.6149495 395.298904,81.1635303 396.776152,80.8128645 C399.781279,80.1136785 402.659307,81.5720691 403.436199,84.5673883 Z M466.357711,49.4393106 C469.265972,50.6079444 472.053949,51.9221796 474.721068,53.3840731 C477.417106,54.8618181 479.984232,56.4989399 482.42767,58.30186 C487.376664,61.9877858 488.866782,68.2662685 485.296195,73.3212563 C484.024416,75.121752 483.011738,75.8090326 481.474177,76.1291744 C481.465218,76.1310398 481.000314,76.2234699 480.878876,76.2509415 C480.692291,76.2931505 480.535947,76.3374779 480.37843,76.3946158 C478.700458,77.0032858 476.283182,79.3679611 472.109577,85.2766588 C467.935166,91.186498 466.511066,94.261058 466.495986,96.0506002 C466.494563,96.2194969 466.504964,96.3827809 466.52757,96.5739424 C466.542252,96.698097 466.610421,97.1680632 466.61192,97.1791053 C466.822416,98.7304568 466.514293,99.9113581 465.250044,101.701193 C461.482522,107.034986 455.435623,107.565428 450.129418,104.014179 C447.619772,102.318276 445.218678,100.446099 442.924698,98.3991474 C440.655325,96.3741536 438.484715,94.1858935 436.41595,91.8410475 C432.611969,87.5661975 431.604998,81.3938999 434.034165,76.7604114 C434.887983,75.1290968 435.588958,74.3774667 436.688575,73.8694579 C436.828665,73.804738 437.271058,73.6183464 437.348274,73.5837168 C437.563986,73.4869751 437.748721,73.3904025 437.952525,73.2631604 C439.360541,72.3840839 441.362419,70.2191344 444.501185,65.7754881 C447.639952,61.3318418 449.011157,58.7214176 449.368982,57.1005388 C449.420776,56.8659243 449.450039,56.6595342 449.469106,56.4238923 C449.475931,56.3395421 449.503714,55.860291 449.517881,55.7066251 C449.629092,54.500301 450.103258,53.5883179 451.354738,52.2390051 C454.909564,48.4002808 461.063694,47.2858248 466.357711,49.4393106 Z M394.823791,96.7747177 C393.893301,97.0160576 393.295982,97.9024345 393.361074,98.8535848 C393.356332,98.9266015 393.362972,99.001606 393.382346,99.0763007 L394.632062,103.894598 C394.729771,104.271319 395.114374,104.497503 395.491095,104.399793 C395.836423,104.310226 396.055257,103.979589 396.01407,103.634934 L395.99629,103.54076 L395.277221,100.769116 C395.463935,100.777293 395.654549,100.75825 395.844234,100.709052 C395.970691,100.676253 396.090995,100.63154 396.204317,100.57637 L396.368961,100.485953 L397.087672,103.257689 C397.185382,103.63441 397.569984,103.860594 397.946705,103.762884 C398.292033,103.673317 398.510867,103.34268 398.46968,102.998025 L398.4519,102.903851 L397.202184,98.0855538 C397.182437,98.0094157 397.15097,97.9394267 397.110503,97.8773073 C396.704406,97.0163178 395.752958,96.5337208 394.823791,96.7747177 Z M397.061488,91.6985738 C396.75343,91.7444101 396.5435,92.0383869 396.592595,92.3551895 C396.641691,92.671992 396.931221,92.8916536 397.239279,92.8458174 C397.539362,92.8011678 397.831859,92.9790479 397.940056,93.2719902 C398.06627,93.6137141 397.900064,93.9917615 397.568824,94.1163829 C396.934075,94.3551929 397.188032,95.3343297 397.858834,95.2345203 C398.158917,95.1898707 398.451414,95.3677509 398.559611,95.6606932 C398.685825,96.002417 398.519619,96.3804645 398.188379,96.5050858 C397.896878,96.6147565 397.750611,96.9474501 397.861684,97.2481779 C397.972756,97.5489056 398.299107,97.7037879 398.590608,97.5941172 C399.50485,97.2501546 399.963589,96.2067198 399.61523,95.2635405 C399.475044,94.8839875 399.222762,94.5744178 398.908841,94.3655152 C399.136485,93.9234794 399.183924,93.3845202 398.995675,92.8748375 C398.697045,92.0662985 397.889735,91.5753381 397.061488,91.6985738 Z M392.199793,86.6578581 C391.269304,86.899198 390.671984,87.7855749 390.737076,88.7367252 C390.732334,88.8097418 390.738975,88.8847464 390.758348,88.9594411 L391.935175,93.4967145 C392.032885,93.8734356 392.417487,94.0996191 392.794208,94.0019094 C393.139536,93.9123422 393.35837,93.5817055 393.317183,93.2370502 L393.299403,93.1428763 L392.653224,90.6522564 C392.839937,90.6604332 393.030551,90.6413909 393.220237,90.5921924 C393.346694,90.5593934 393.466997,90.5146807 393.580319,90.4595102 L393.744963,90.3690932 L394.390786,92.8598057 C394.488496,93.2365269 394.873098,93.4627104 395.249819,93.3650007 C395.595147,93.2754334 395.813981,92.9447968 395.772794,92.6001414 L395.755014,92.5059675 L394.578187,87.9686942 C394.558439,87.8925561 394.526972,87.822567 394.486506,87.7604476 C394.080408,86.8994582 393.12896,86.4168612 392.199793,86.6578581 Z M450.265609,76.9317811 C450.156951,77.0156522 450.058804,77.1169437 449.975475,77.2349146 L444.436516,85.0765849 C443.987444,85.7123505 444.138788,86.5917857 444.774554,87.0408584 C445.370584,87.461864 446.180777,87.3551591 446.649748,86.8163218 L446.738827,86.7028208 L449.92807,82.1868044 C450.158511,82.4800499 450.434757,82.7452413 450.754922,82.97139 C451.010996,83.1522678 451.281217,83.2983167 451.559964,83.4105079 L451.770536,83.4883181 L448.580676,88.0038096 C448.131604,88.6395752 448.282948,89.5190104 448.918714,89.9680831 C449.514744,90.3890887 450.324937,90.2823838 450.793907,89.7435465 L450.882987,89.6300455 L456.421946,81.7883752 C456.505704,81.6697963 456.568576,81.5427407 456.611862,81.4122089 C457.408198,79.7121521 456.899604,77.6357019 455.314592,76.5161292 C453.729008,75.3961535 451.601036,75.6115032 450.265609,76.9317811 Z M464.22505,73.6830572 C463.814912,74.1527239 463.86257,74.8656094 464.331496,75.2753315 C464.788283,75.6744464 464.902301,76.3397004 464.604667,76.8691751 C464.25747,77.4868194 463.475901,77.7065748 462.858983,77.3600124 C461.676793,76.6959 460.542029,78.3024191 461.563125,79.194597 C462.019912,79.5937119 462.133931,80.2589659 461.836296,80.7884406 C461.489099,81.4060849 460.70753,81.6258403 460.090612,81.2792779 C459.547705,80.9742921 458.8599,81.1676837 458.554355,81.7112301 C458.248811,82.2547765 458.441231,82.9426478 458.984138,83.2476335 C460.68687,84.2041675 462.844051,83.5976289 463.802336,81.8928918 C464.187968,81.2068737 464.323224,80.4382717 464.227772,79.7018407 C465.184915,79.49537 466.052861,78.8948456 466.570707,77.9736263 C467.392196,76.5122429 467.077497,74.6761003 465.816737,73.574518 C465.347811,73.1647958 464.635188,73.2133905 464.22505,73.6830572 Z M461.990473,60.332539 C461.881815,60.4164101 461.783669,60.5177017 461.70034,60.6356725 L456.487072,68.0162528 C456.037999,68.6520184 456.189343,69.5314536 456.825109,69.9805262 C457.421139,70.4015318 458.231332,70.294827 458.700303,69.7559896 L458.789383,69.6424887 L461.652934,65.5875624 C461.883376,65.8808078 462.159621,66.1459992 462.479786,66.3721479 C462.735861,66.5530258 463.006082,66.6990746 463.284829,66.8112658 L463.4954,66.889076 L460.631231,70.9434775 C460.182159,71.5792431 460.333503,72.4586783 460.969269,72.9077509 C461.565299,73.3287565 462.375492,73.2220517 462.844462,72.6832143 L462.933542,72.5697134 L468.146811,65.1891332 C468.230569,65.0705542 468.29344,64.9434987 468.336946,64.8124984 C469.132969,63.1125286 468.624323,61.036357 467.039456,59.9168871 C465.454015,58.7970122 463.326283,59.0122224 461.990473,60.332539 Z M397.036342,2.90282286 C398.494822,3.85672188 399.13789,4.58662817 399.513662,5.67083904 C399.561535,5.80896651 399.695746,6.24353198 399.721149,6.31957178 C399.792115,6.53199764 399.865835,6.7151612 399.966691,6.91910687 C400.663477,8.32810423 402.517345,10.414272 406.413733,13.7802428 C410.31012,17.1462135 412.643512,18.6772933 414.138799,19.1619607 C414.355235,19.232114 414.547166,19.2784385 414.767649,19.3177864 C414.846572,19.3318713 415.296027,19.4015165 415.439644,19.4288118 C416.567085,19.6430882 417.382743,20.1733806 418.537815,21.4771827 C421.824461,25.1811738 422.296888,31.0924864 419.76763,35.8956999 C418.391751,38.5356408 416.889842,41.0488281 415.260017,43.4345317 C413.61252,45.8461038 411.826811,48.1215263 409.89634,50.2651525 C405.954015,54.6037957 399.891503,55.4419265 395.459064,51.6128772 C393.880309,50.2490387 393.327257,49.2306705 393.169887,47.7499976 C393.16897,47.7413701 393.125508,47.294063 393.111016,47.1769197 C393.08875,46.996934 393.061642,46.8453084 393.02256,46.6914144 C392.606233,45.0520364 390.603037,42.5555823 385.422027,38.0798651 C380.240016,33.6032833 377.473789,31.9802185 375.78717,31.803872 C375.627987,31.7872285 375.472986,31.7822574 375.290541,31.7862836 C375.172048,31.7888984 374.722327,31.8106871 374.71177,31.8111013 C373.228615,31.8693066 372.143676,31.4714212 370.574268,30.115658 C365.897361,26.0754193 365.965737,20.3182512 369.814621,15.6301497 C371.650372,13.4143205 373.642188,11.3169474 375.788791,9.33653748 C377.912367,7.37737137 380.18066,5.52624044 382.587078,3.78545019 C386.977232,0.581206612 392.89414,0.189616389 397.036342,2.90282286 Z M400.820893,24.208767 C400.379899,24.7192531 400.403079,25.4731904 400.85282,25.9556008 L400.955708,26.0546308 L404.650915,29.2461743 C404.355622,29.4296411 404.083715,29.6593556 403.845774,29.9347918 C403.655421,30.1551408 403.497178,30.3927459 403.370525,30.6422079 L403.281449,30.8314433 L399.586869,27.639174 C399.03992,27.166681 398.213499,27.2270399 397.741006,27.7739893 C397.300012,28.2844754 397.323192,29.0384127 397.772933,29.5208231 L397.875821,29.6198531 L404.609807,35.4371397 C404.723096,35.5350063 404.848375,35.6100124 404.97998,35.661245 C406.528492,36.5525676 408.495618,36.2963997 409.655551,34.9536819 C410.81439,33.6122308 410.783175,31.6312343 409.680221,30.2293531 C409.608746,30.1049774 409.515444,29.9903252 409.400743,29.8912384 L402.666757,24.0739518 C402.119807,23.6014588 401.293386,23.6618176 400.820893,24.208767 Z M388.053729,24.735905 C387.02232,26.2286568 387.444263,28.3258205 388.996164,29.4200512 C389.620679,29.8603901 390.341652,30.0746503 391.048584,30.0683254 C391.176241,30.9917408 391.6849,31.8759254 392.523529,32.4672345 C393.853894,33.4052621 395.621985,33.317362 396.759596,32.2566397 C397.182719,31.862115 397.187615,31.1865137 396.770532,30.747642 C396.353449,30.3087703 395.672328,30.27282 395.249206,30.6673447 C394.837037,31.0516556 394.196439,31.0835028 393.714434,30.7436454 C393.152163,30.347194 392.999289,29.5873693 393.372979,29.0465295 C394.089076,28.0101262 392.643199,26.7610763 391.721841,27.6201614 C391.309672,28.0044723 390.669074,28.0363195 390.187069,27.6964621 C389.624799,27.3000107 389.471924,26.5401861 389.845614,25.9993463 C390.174474,25.5233903 390.039939,24.8547208 389.545124,24.5058311 C389.050308,24.1569414 388.382588,24.259949 388.053729,24.735905 Z M465.296197,-6.726909 C466.296674,-5.82375708 466.703113,-5.19064894 466.866856,-4.32124585 C466.887717,-4.2104847 466.940892,-3.86402744 466.951654,-3.80316952 C466.981717,-3.63315598 467.017154,-3.48502657 467.070865,-3.31778919 C467.441938,-2.16239811 468.615663,-0.350943802 471.196788,2.68273778 C473.777913,5.71641936 475.377998,7.16511725 476.459043,7.71644804 C476.615519,7.79625055 476.756061,7.85495403 476.919065,7.91185913 C476.977413,7.93222884 477.310881,8.04020646 477.416872,8.07853752 C478.248927,8.37944787 478.808802,8.88212432 479.539656,10.0138025 C481.619887,13.2294396 481.315698,17.7763695 478.856544,21.113899 C477.515765,22.9500177 476.093504,24.6744329 474.58841,26.286359 C473.066997,27.9157634 471.455905,29.4248359 469.749674,30.8160795 C466.26965,33.6276173 461.57229,33.5210113 458.636064,30.0699663 C457.590232,28.8407662 457.284493,27.9996346 457.331046,26.8559293 C457.331317,26.8492652 457.348478,26.5042551 457.350611,26.4135207 C457.353888,26.2741113 457.350308,26.1556447 457.33789,26.0339881 C457.205611,24.7380227 455.964509,22.5966956 452.532398,18.562822 C449.099624,14.5281692 447.181195,12.9565659 445.920292,12.6159211 C445.801288,12.5837711 445.684151,12.5609978 445.545166,12.541693 C445.454899,12.5291551 445.110975,12.4905792 445.102912,12.4895999 C443.9702,12.3520112 443.191007,11.9168783 442.151368,10.6949562 C439.053195,7.05357058 439.750739,2.68998329 443.198999,-0.398384754 C444.841406,-1.85606872 446.589031,-3.20466878 448.441072,-4.44547543 C450.273246,-5.67297196 452.203191,-6.8006892 454.225643,-7.82768426 C457.918495,-9.72287397 462.455219,-9.29501357 465.296197,-6.726909 Z M385.466482,10.9445575 C385.025488,11.4550436 385.048668,12.2089809 385.498409,12.6913913 L385.601297,12.7904213 L389.711488,16.3404569 C389.416196,16.5239237 389.144288,16.7536383 388.906347,17.0290744 C388.715994,17.2494234 388.557752,17.4870285 388.431098,17.7364906 L388.342023,17.9257259 L384.232458,14.3749645 C383.685509,13.9024715 382.859088,13.9628304 382.386595,14.5097798 C381.945601,15.0202659 381.968781,15.7742032 382.418522,16.2566136 L382.52141,16.3556436 L389.670381,22.5314224 C389.783669,22.6292889 389.908948,22.7042951 390.040554,22.7555276 C391.589065,23.6468503 393.556191,23.3906824 394.716124,22.0479645 C395.874963,20.7065134 395.843748,18.7255169 394.740794,17.3236357 C394.669319,17.19926 394.576018,17.0846079 394.461316,16.985521 L387.312346,10.8097422 C386.765396,10.3372493 385.938975,10.3976081 385.466482,10.9445575 Z M464.913374,10.056133 C464.480849,10.4241355 464.401384,11.0530234 464.709547,11.5139299 L464.787558,11.6171158 L467.138393,14.3794312 C466.873199,14.5011128 466.619054,14.6615212 466.384472,14.8611088 C466.208536,15.0107995 466.05259,15.1748819 465.917024,15.3497803 L465.788264,15.5281515 L463.438119,12.7652491 C463.041809,12.2994524 462.342933,12.2431226 461.877136,12.6394329 C461.444611,13.0074353 461.365146,13.6363233 461.673309,14.0972298 L461.75132,14.2004157 L466.02284,19.2208752 C466.07989,19.2879279 466.14321,19.3464955 466.211196,19.3967093 C467.296335,20.3493573 468.995709,20.3478333 470.18893,19.3326144 C471.38215,18.3173956 471.655828,16.6402026 470.889016,15.4164589 C470.850597,15.3413441 470.802927,15.2694614 470.745877,15.2024087 L466.474357,10.1819492 C466.078047,9.71615255 465.379171,9.65982273 464.913374,10.056133 Z M454.660743,9.4249102 C453.595025,10.5277757 453.587624,12.2311571 454.644214,13.229519 C455.069406,13.6312785 455.608424,13.8610911 456.17238,13.9142343 C456.122832,14.6594771 456.383095,15.404859 456.954064,15.9443617 C457.859824,16.800206 459.282123,16.8757683 460.361669,16.1253971 C460.763194,15.8463043 460.877715,15.309149 460.617459,14.9256271 C460.357202,14.5421052 459.820721,14.4574487 459.419195,14.7365415 C459.028064,15.008409 458.51275,14.9810319 458.184583,14.6709505 C457.80177,14.3092333 457.804451,13.6920802 458.190572,13.2925004 C458.93049,12.5267914 457.983676,11.4139689 457.109345,12.0216988 C456.718215,12.2935663 456.2029,12.2661892 455.874734,11.9561078 C455.49192,11.5943907 455.494601,10.9772375 455.880723,10.5776577 C456.220521,10.2260149 456.222881,9.68290073 455.885993,9.36457831 C455.549105,9.04625589 455.000542,9.0732674 454.660743,9.4249102 Z M454.858735,-1.76141751 C454.42621,-1.39341508 454.346745,-0.764527106 454.654908,-0.303620649 L454.732919,-0.200434747 L457.355501,2.88127388 C457.090307,3.00295547 456.836162,3.16336392 456.60158,3.36295152 C456.425644,3.51264223 456.269699,3.6767246 456.134132,3.85162297 L456.005372,4.02999423 L453.38348,0.947698528 C452.98717,0.481901866 452.288294,0.425572049 451.822497,0.82188236 C451.389972,1.18988479 451.310507,1.81877276 451.61867,2.27967922 L451.696681,2.38286512 L456.239948,7.72271787 C456.297036,7.78981477 456.360402,7.84841535 456.428304,7.89855204 C457.513443,8.85120005 459.212818,8.84967601 460.406038,7.83445714 C461.599259,6.81923827 461.872936,5.14204527 461.106201,3.91845007 C461.067768,3.84328154 461.020073,3.77134831 460.962985,3.70425141 L456.419718,-1.63560134 C456.023408,-2.101398 455.324532,-2.15772782 454.858735,-1.76141751 Z" id="形状结合" fill="#FFFFFF" fill-rule="nonzero" opacity="0.06" mask="url(#mask-2)"></path>
        </g>
    </g>
</svg>