<?xml version="1.0" encoding="UTF-8"?>
<svg width="24px" height="24px" viewBox="0 0 24 24" version="1.1" xmlns="http://www.w3.org/2000/svg" xmlns:xlink="http://www.w3.org/1999/xlink">
    <title>设置页-服务器助力-亮色</title>
    <g id="规范" stroke="none" stroke-width="1" fill="none" fill-rule="evenodd">
        <g id="规范🌞备份" transform="translate(-1028.000000, -579.000000)">
            <g id="设置页-服务器助力-亮色" transform="translate(1028.000000, 579.000000)">
                <rect id="矩形" x="0" y="0" width="24" height="24"></rect>
                <g id="服务器助力面状" transform="translate(3.000000, 3.000000)">
                    <rect id="矩形" x="0" y="0" width="18" height="18"></rect>
                    <path d="M6.52198396,0 L11.478016,0 C12.4099966,0 13.165516,0.755519485 13.165516,1.6875 C13.165516,1.78873583 13.1564061,1.88976629 13.1382965,1.98936918 L12.375,6.1875 L5.625,6.1875 L4.86170349,1.98936918 C4.69498574,1.07242159 5.3031672,0.19393727 6.22011478,0.0272195267 C6.31971767,0.00910991164 6.42074813,0 6.52198396,0 Z" id="矩形" fill="#BBBEC4"></path>
                    <rect id="矩形备份" fill="#66686B" x="7.875" y="0" width="2.25" height="3.9375"></rect>
                    <circle id="椭圆形" fill="#BBBEC4" cx="9" cy="10.6875" r="7.3125"></circle>
                    <path d="M6.1875,7.875 C7.125,8.25 8.0625,8.4375 9,8.4375 C9.9375,8.4375 10.875,8.25 11.8125,7.875 C11.4375,8.8125 11.25,9.75 11.25,10.6875 C11.25,11.625 11.4375,12.5625 11.8125,13.5 C10.875,13.125 9.9375,12.9375 9,12.9375 C8.0625,12.9375 7.125,13.125 6.1875,13.5 C6.5625,12.5625 6.75,11.625 6.75,10.6875 C6.75,9.75 6.5625,8.8125 6.1875,7.875 Z" id="矩形" fill="#66686B" transform="translate(9.000000, 10.687500) rotate(45.000000) translate(-9.000000, -10.687500) "></path>
                </g>
            </g>
        </g>
    </g>
</svg>