<?xml version="1.0" encoding="UTF-8"?>
<svg width="24px" height="24px" viewBox="0 0 24 24" version="1.1" xmlns="http://www.w3.org/2000/svg" xmlns:xlink="http://www.w3.org/1999/xlink">
    <!-- Generator: Sketch 61 (89581) - https://sketch.com -->
    <title>图标标识/个人设置/用户动态暗夜</title>
    <desc>Created with Sketch.</desc>
    <g id="图标标识/个人设置/用户动态暗夜" stroke="none" stroke-width="1" fill="none" fill-rule="evenodd">
        <path d="M10.9244916,14.5006423 C11.408309,13.1867761 10.4549161,11.6167717 8.80901457,11.0120132 L4.97648667,9.60090124 C4.59940909,9.46335858 4.269738,9.3969385 3.99937733,9.3969385 C3.08155556,9.3969385 2.79933844,10.1439851 3.39936843,11.3558822 L3.85472326,12.2713186 C4.63736382,13.8436872 6.34965976,15.5251564 7.66116519,16.0089772 L7.66116536,16.0089773 C7.94045748,16.1126506 8.23600587,16.1656589 8.53391852,16.1655103 C9.56790723,16.1655103 10.547372,15.5275446 10.924476,14.5006434 L10.9244916,14.5006423 Z M9.52287536,10.9574507 C9.75530063,11.0428383 9.99245091,11.0831358 10.234349,11.0831358 C11.3584961,11.0831358 12.5134611,10.1961619 13.0115027,8.83958437 L14.4249772,5.00231038 C14.8660902,3.81178829 14.5720148,3.1097945 13.7822868,3.1097945 C13.4811011,3.1097945 13.1040006,3.21176462 12.669998,3.42758452 L11.7545616,3.88293935 C10.1821929,4.66557991 8.50072378,6.37787584 8.01690291,7.68938128 C7.53308555,9.00560996 8.21136993,10.473654 9.52287536,10.9574398 L9.52287536,10.9574507 Z M20.6006578,12.702957 L20.145303,11.7875206 C19.3626624,10.2127666 17.6503665,8.53368281 16.338861,8.04750646 C16.0495335,7.93840383 15.7554354,7.89097378 15.4637454,7.89097378 C14.4273485,7.89097378 13.4478836,8.52893917 13.0707973,9.55584036 C12.5869799,10.8697065 13.5403728,12.4397109 15.1862743,13.0444694 L19.0235483,14.4579439 C19.4006259,14.5954866 19.7279117,14.6619067 20.0006577,14.6619067 C20.9160941,14.6619067 21.2006966,13.9148601 20.6006666,12.702963 L20.6006578,12.702957 Z" id="形状" fill-opacity="0.5" fill="#999BA1"></path>
        <path d="M14.4724241,13.1037721 C14.2399988,13.016022 14.0028485,12.975702 13.7609504,12.975702 C12.6368034,12.975702 11.4818384,13.8626758 10.9837968,15.2192534 L9.57032229,19.0517813 C9.13157178,20.2423245 9.42328462,20.9443323 10.215398,20.9443323 C10.5165837,20.9443323 10.8936842,20.8423622 11.3276868,20.6265423 L12.2431233,20.1711875 C13.8154919,19.3885469 15.496961,17.676251 15.9807819,16.3647456 C16.4645782,15.0556272 15.7863149,13.5875919 14.4724258,13.1037886 L14.4724241,13.1037721 Z" id="路径" fill-opacity="0.7" fill="#E6EAF0"></path>
    </g>
</svg>