<?xml version="1.0" standalone="no"?><!DOCTYPE svg PUBLIC "-//W3C//DTD SVG 1.1//EN" "http://www.w3.org/Graphics/SVG/1.1/DTD/svg11.dtd"><svg t="1600329215934" class="icon" viewBox="0 0 1024 1024" version="1.1" xmlns="http://www.w3.org/2000/svg" p-id="4650" xmlns:xlink="http://www.w3.org/1999/xlink" width="200" height="200"><defs><style type="text/css"></style></defs><path d="M399.957333 475.52H704c26.538667 0 48 17.493333 48 39.082667 0 21.546667-21.461333 38.997333-48 38.997333H404.138667l78.08 94.08c13.738667 16.554667 8.362667 38.997333-11.946667 50.133333-20.352 11.178667-47.957333 6.826667-61.610667-9.770666l-129.109333-155.690667a31.402667 31.402667 0 0 1 0.042667-40.704l129.109333-155.733333c13.738667-16.597333 41.258667-20.949333 61.610667-9.770667 20.309333 11.136 25.685333 33.578667 12.032 50.090667l-82.346667 99.242666v0.042667zM896 512a384 384 0 1 0-768 0 384 384 0 1 0 768 0z" fill="#ea4335" p-id="4651"></path></svg>