<?xml version="1.0" encoding="UTF-8"?>
<svg width="24px" height="24px" viewBox="0 0 24 24" version="1.1" xmlns="http://www.w3.org/2000/svg" xmlns:xlink="http://www.w3.org/1999/xlink">
    <title>设置页-账单-亮色</title>
    <g id="规范" stroke="none" stroke-width="1" fill="none" fill-rule="evenodd">
        <g id="规范🌞备份" transform="translate(-1082.000000, -579.000000)">
            <g id="设置页-账单-亮色" transform="translate(1082.000000, 579.000000)">
                <rect id="图标占位" opacity="0.2" x="0" y="0" width="24" height="24"></rect>
                <rect id="矩形" fill="#BBBEC4" x="5" y="4" width="14" height="16" rx="2"></rect>
                <path d="M15.2669652,7.21746643 L15.2779135,7.22832395 C15.5720237,7.51999514 15.5740009,7.99486476 15.2823297,8.28897493 L15.2776459,8.29365633 L13.076,10.474 L13.102,10.5 L14.75,10.5002631 C15.1642136,10.5002631 15.5,10.8360496 15.5,11.2502631 C15.5,11.6644767 15.1642136,12.0002631 14.75,12.0002631 L12.75,12 L12.75,13 L14.75,13.0002631 C15.1642136,13.0002631 15.5,13.3360496 15.5,13.7502631 C15.5,14.1644767 15.1642136,14.5002631 14.75,14.5002631 L12.75,14.5 L12.75,16.2502631 C12.75,16.6644767 12.4142136,17.0002631 12,17.0002631 C11.5857864,17.0002631 11.25,16.6644767 11.25,16.2502631 L11.25,14.5 L9.25,14.5002631 C8.83578644,14.5002631 8.5,14.1644767 8.5,13.7502631 C8.5,13.3360496 8.83578644,13.0002631 9.25,13.0002631 L11.25,13 L11.25,12 L9.25,12.0002631 C8.83578644,12.0002631 8.5,11.6644767 8.5,11.2502631 C8.5,10.8360496 8.83578644,10.5002631 9.25,10.5002631 L10.948,10.5 L8.72231161,8.29517747 C8.42806659,8.00364232 8.42586981,7.52877366 8.71740497,7.23452865 L8.72206524,7.22986622 L8.73301376,7.21900849 C9.02529762,6.9291484 9.49658442,6.92903941 9.78900231,7.21876428 L11.999,9.407 L14.2109979,7.21720122 C14.5034191,6.92749624 14.9746896,6.9276146 15.2669652,7.21746643 Z" id="形状结合" fill="#646363"></path>
            </g>
        </g>
    </g>
</svg>