<?xml version="1.0" encoding="UTF-8"?>
<svg width="24px" height="24px" viewBox="0 0 24 24" version="1.1" xmlns="http://www.w3.org/2000/svg" xmlns:xlink="http://www.w3.org/1999/xlink">
    <!-- Generator: Sketch 61 (89581) - https://sketch.com -->
    <title>图标标识/个人设置/连接诊断</title>
    <desc>Created with Sketch.</desc>
    <g id="图标标识/个人设置/连接诊断" stroke="none" stroke-width="1" fill="none" fill-rule="evenodd">
        <g>
            <rect id="矩形" x="0" y="0" width="24" height="24"></rect>
            <path d="M15.1706743,16.0000889 C15.0601428,16.3128427 15,16.6493978 15,17 C15,17.3506022 15.0601428,17.6871573 15.1706743,17.9999111 L8.82932572,17.9999111 C8.93985718,17.6871573 9,17.3506022 9,17 C9,16.6493978 8.93985718,16.3128427 8.82932572,16.0000889 Z M9.60345569,8.30488285 C10.0118013,8.84623396 10.5993251,9.2448339 11.2778584,9.41251403 L8.23166619,14.9950499 C7.78317797,14.4961758 7.16982442,14.1484941 6.47737304,14.0377722 Z M14.3965443,8.30488285 L17.5231148,14.0376943 C16.8304637,14.1483308 16.2169274,14.4960587 15.7683338,14.9950499 L12.7221416,9.41251403 C13.4006749,9.2448339 13.9881987,8.84623396 14.3965443,8.30488285 Z" id="形状结合" fill-opacity="0.5" fill="#999BA1"></path>
        </g>
        <path d="M6,14 C7.65685425,14 9,15.3431458 9,17 C9,18.6568542 7.65685425,20 6,20 C4.34314575,20 3,18.6568542 3,17 C3,15.3431458 4.34314575,14 6,14 Z M18,14 C19.6568542,14 21,15.3431458 21,17 C21,18.6568542 19.6568542,20 18,20 C16.3431458,20 15,18.6568542 15,17 C15,15.3431458 16.3431458,14 18,14 Z M12,3.5 C13.6568542,3.5 15,4.84314575 15,6.5 C15,8.15685425 13.6568542,9.5 12,9.5 C10.3431458,9.5 9,8.15685425 9,6.5 C9,4.84314575 10.3431458,3.5 12,3.5 Z" id="形状结合" fill-opacity="0.7" fill="#E6EAF0"></path>
    </g>
</svg>