<?xml version="1.0" encoding="UTF-8"?>
<svg width="24px" height="24px" viewBox="0 0 24 24" version="1.1" xmlns="http://www.w3.org/2000/svg" xmlns:xlink="http://www.w3.org/1999/xlink">
    <!-- Generator: Sketch 61 (89581) - https://sketch.com -->
    <title>图标标识/个人设置/通知暗夜</title>
    <desc>Created with Sketch.</desc>
    <g id="图标标识/个人设置/通知暗夜" stroke="none" stroke-width="1" fill="none" fill-rule="evenodd">
        <g id="1.图标占位">
            <rect id="图标占位" x="0" y="0" width="24" height="24"></rect>
        </g>
        <path d="M11.9375,21 C13.10625,21 14.0625,20.04375 14.0625,18.875 L9.8125,18.875 C9.8125,20.04375 10.76875,21 11.9375,21 Z" id="Path" fill-opacity="0.7" fill="#E6EAF0"></path>
        <path d="M18.3125,15.6875 C17.728125,15.6875 17.25,15.209375 17.25,14.625 L17.25,10.375 C17.25,7.793125 15.411875,5.646875 12.97875,5.16875 C12.97875,5.12625 13,5.105 13,5.0625 C13,4.478125 12.521875,4 11.9375,4 C11.353125,4 10.875,4.478125 10.875,5.0625 C10.875,5.105 10.89625,5.12625 10.89625,5.16875 C8.463125,5.646875 6.625,7.793125 6.625,10.375 L6.625,14.625 C6.625,15.209375 6.146875,15.6875 5.5625,15.6875 C4.978125,15.6875 4.5,16.165625 4.5,16.75 C4.5,17.334375 4.978125,17.8125 5.5625,17.8125 L18.3125,17.8125 C18.896875,17.8125 19.375,17.334375 19.375,16.75 C19.375,16.165625 18.896875,15.6875 18.3125,15.6875 Z" id="Path" fill-opacity="0.5" fill="#999BA1"></path>
    </g>
</svg>