<?xml version="1.0" encoding="UTF-8"?>
<svg width="24px" height="24px" viewBox="0 0 24 24" version="1.1" xmlns="http://www.w3.org/2000/svg" xmlns:xlink="http://www.w3.org/1999/xlink">
    <!-- Generator: Sketch 61 (89581) - https://sketch.com -->
    <title>图标标识/个人设置/授权</title>
    <desc>Created with Sketch.</desc>
    <g id="图标标识/个人设置/授权" stroke="none" stroke-width="1" fill="none" fill-rule="evenodd">
        <rect id="矩形" x="0" y="0" width="24" height="24"></rect>
        <path d="M9.02172798,17.2175144 L11.021728,17.2175144 L11.021728,17.2175144 L11.021728,19.2175144 L9.02172798,19.2175144 C8.46944323,19.2175144 8.02172798,18.7697992 8.02172798,18.2175144 C8.02172798,17.6652297 8.46944323,17.2175144 9.02172798,17.2175144 Z" id="矩形备份-9" fill-opacity="0.7" fill="#E6EAF0" transform="translate(9.521728, 18.217514) rotate(-135.000000) translate(-9.521728, -18.217514) "></path>
        <path d="M11.8501551,14.3890873 L13.8501551,14.3890873 L13.8501551,14.3890873 L13.8501551,16.3890873 L11.8501551,16.3890873 C11.2978704,16.3890873 10.8501551,15.941372 10.8501551,15.3890873 C10.8501551,14.8368025 11.2978704,14.3890873 11.8501551,14.3890873 Z" id="矩形备份-9" fill-opacity="0.7" fill="#E6EAF0" transform="translate(12.350155, 15.389087) rotate(-135.000000) translate(-12.350155, -15.389087) "></path>
        <path d="M11.9966017,2.20710678 C12.5488865,2.20710678 12.9966017,2.65482203 12.9966017,3.20710678 L12.9977881,12.3073659 C15.2794373,12.7710945 16.9966017,14.788568 16.9966017,17.2071068 C16.9966017,19.9685305 14.7580255,22.2071068 11.9966017,22.2071068 C9.23517797,22.2071068 6.99660172,19.9685305 6.99660172,17.2071068 C6.99660172,14.7882153 8.71426708,12.770506 10.9964137,12.3071631 L10.9966017,3.20710678 C10.9966017,2.65482203 11.444317,2.20710678 11.9966017,2.20710678 Z" id="形状结合" fill-opacity="0.5" fill="#999BA1" transform="translate(11.996602, 12.207107) rotate(-135.000000) translate(-11.996602, -12.207107) "></path>
        <circle id="椭圆形" fill-opacity="0.7" fill="#E6EAF0" transform="translate(15.538427, 8.671573) rotate(-135.000000) translate(-15.538427, -8.671573) " cx="15.5384271" cy="8.67157288" r="2"></circle>
    </g>
</svg>