<?xml version="1.0" encoding="UTF-8"?>
<svg width="24px" height="24px" viewBox="0 0 24 24" version="1.1" xmlns="http://www.w3.org/2000/svg" xmlns:xlink="http://www.w3.org/1999/xlink">
    <!-- Generator: Sketch 61 (89581) - https://sketch.com -->
    <title>图标标识/个人设置/连接诊断</title>
    <desc>Created with Sketch.</desc>
    <g id="图标标识/个人设置/连接诊断" stroke="none" stroke-width="1" fill="none" fill-rule="evenodd">
        <g>
            <rect id="矩形" x="0" y="0" width="24" height="24"></rect>
            <path d="M19.6845422,18 L12,3.91167265 L4.31545781,18 L19.6845422,18 Z M12,8.087 L16.316,16 L7.683,16 L12,8.087 Z" id="三角形" fill="#BBBEC4"></path>
            <path d="M6,14 C7.65685425,14 9,15.3431458 9,17 C9,18.6568542 7.65685425,20 6,20 C4.34314575,20 3,18.6568542 3,17 C3,15.3431458 4.34314575,14 6,14 Z M18,14 C19.6568542,14 21,15.3431458 21,17 C21,18.6568542 19.6568542,20 18,20 C16.3431458,20 15,18.6568542 15,17 C15,15.3431458 16.3431458,14 18,14 Z M12,3.5 C13.6568542,3.5 15,4.84314575 15,6.5 C15,8.15685425 13.6568542,9.5 12,9.5 C10.3431458,9.5 9,8.15685425 9,6.5 C9,4.84314575 10.3431458,3.5 12,3.5 Z" id="形状结合" fill="#66686B"></path>
        </g>
    </g>
</svg>