<?xml version="1.0" encoding="UTF-8"?>
<svg width="24px" height="24px" viewBox="0 0 24 24" version="1.1" xmlns="http://www.w3.org/2000/svg" xmlns:xlink="http://www.w3.org/1999/xlink">
    <!-- Generator: Sketch 61 (89581) - https://sketch.com -->
    <title>图标标识/个人设置/tts</title>
    <desc>Created with Sketch.</desc>
    <g id="图标标识/个人设置/tts" stroke="none" stroke-width="1" fill="none" fill-rule="evenodd">
        <rect id="矩形" x="0" y="0" width="24" height="24"></rect>
        <path d="M5.26295981,8.55998077 L8.21013762,8.55998077 L8.21013762,17.5199133 C8.21013762,18.2281755 8.77546586,18.7999037 9.4741281,18.7999037 C10.1751478,18.7963939 10.7405911,18.2252605 10.7370811,17.5242408 L10.737052,8.55998075 L13.6842299,8.55998075 C14.3852496,8.55647097 14.9506928,7.98533757 14.9471991,7.28431785 C14.9471991,6.57172819 14.3828906,6 13.6842308,6 L5.26296923,6 C4.56194952,6.00350975 3.99650628,6.57464317 3.9999839,7.27566289 C3.9999839,7.98825258 4.56430007,8.55998077 5.26295981,8.55998077 Z" id="路径" fill-opacity="0.5" fill="#999BA1"></path>
        <path d="M19.7370008,10.2666429 L14.6842389,10.2666429 L14.6842389,10.2666429 C13.9832192,10.2701527 13.417776,10.8412861 13.4212697,11.5423058 C13.4212697,11.5437483 13.4212697,11.5451908 13.4212697,11.5466333 C13.4212697,12.2548955 13.9855782,12.8266237 14.684238,12.8266237 L15.947161,12.8266237 L15.947161,17.5199133 C15.947161,18.2281755 16.5124892,18.7999037 17.2100839,18.7999037 L17.210084,18.7999037 C17.9111062,18.796983 18.4770294,18.2263255 18.4741095,17.5253033 C18.474102,17.5235068 18.4740907,17.5217104 18.4740756,17.519914 L18.4740756,12.8266244 L19.7369985,12.8266244 L19.7369986,12.8266244 C20.4380183,12.8231146 21.0034615,12.2519812 20.9999678,11.5509615 C20.9999678,11.549519 20.9999678,11.5480765 20.9999678,11.5466341 C20.9999678,10.8383719 20.4356592,10.2666429 19.7369995,10.2666429 L19.7370008,10.2666429 Z" id="路径" fill-opacity="0.7" fill="#E6EAF0"></path>
    </g>
</svg>