<?xml version="1.0" encoding="UTF-8"?>
<svg width="24px" height="24px" viewBox="0 0 24 24" version="1.1" xmlns="http://www.w3.org/2000/svg" xmlns:xlink="http://www.w3.org/1999/xlink">
    <!-- Generator: Sketch 61 (89581) - https://sketch.com -->
    <title>图标标识/个人设置/声音暗夜</title>
    <desc>Created with Sketch.</desc>
    <g id="图标标识/个人设置/声音暗夜" stroke="none" stroke-width="1" fill="none" fill-rule="evenodd">
        <g id="1.图标占位">
            <rect id="图标占位" x="0" y="0" width="24" height="24"></rect>
        </g>
        <path d="M12.7536119,3.8426947 C12.9124738,4.02482867 13,4.25833296 13,4.50001435 L13.0004611,11.7166879 C11.23431,12.4881393 10,14.2503482 10,16.3008457 C10,17.8187144 10.6763542,19.1786121 11.7441234,20.0955997 C11.5999638,20.0587046 11.4651146,19.9885187 11.350148,19.8902222 L7.7250751,16.7907849 C7.54396334,16.6359343 7.313509,16.5508457 7.07522312,16.5508457 L4,16.5508457 C3.44771525,16.5508457 3,16.1031304 3,15.5508457 L3,8.14654396 C3,7.59425921 3.44771525,7.14654396 4,7.14654396 L7.06960686,7.14654396 C7.31128825,7.14654396 7.54479254,7.05901778 7.72692651,6.90015585 L11.3426804,3.74640246 C11.7588887,3.38337484 12.3905843,3.42648634 12.7536119,3.8426947 Z M19.2803301,6.55520032 C20.2067553,7.62790315 21,9.64858976 21,11.8008457 C21,13.3712321 20.577689,14.8715731 19.9894705,15.9847305 C19.9370929,15.1375667 19.6737979,14.3487601 19.2518812,13.6686641 C19.405497,13.0880775 19.5,12.450579 19.5,11.8008457 C19.5,10.132049 18.8765781,8.54396365 18.2196699,7.78333315 C17.9267767,7.44419363 17.9267767,6.89433984 18.2196699,6.55520032 C18.5125631,6.2160608 18.9874369,6.2160608 19.2803301,6.55520032 Z M15.5945786,8.62363923 C16.3756028,9.55298003 16.8468653,10.5681879 16.968481,11.7034451 C16.3768064,11.4497095 15.7272895,11.3070807 15.0451619,11.3010454 C14.8940545,10.7851574 14.6183217,10.3008011 14.2178102,9.82423235 C13.8923438,9.43695983 13.9367012,8.85425149 14.3168853,8.52271685 C14.6970694,8.19118221 15.2691122,8.2363667 15.5945786,8.62363923 Z" id="形状结合" fill-opacity="0.5" fill="#999BA1"></path>
        <path d="M15,12.3 C15.4016616,12.3 15.7272727,12.6256111 15.7272727,13.0272727 L15.727465,13.1084133 C16.0926949,13.1913116 16.4347217,13.3352938 16.7422365,13.5290509 L16.7999082,13.4715729 C17.0839258,13.1875552 17.5444095,13.1875552 17.8284271,13.4715729 C18.1124448,13.7555905 18.1124448,14.2160742 17.8284271,14.5000918 L17.7709491,14.5577635 C17.9647062,14.8652783 18.1086884,15.2073051 18.1915867,15.572535 L18.2727273,15.5727273 C18.6743889,15.5727273 19,15.8983384 19,16.3 C19,16.7016616 18.6743889,17.0272727 18.2727273,17.0272727 L18.1915867,17.027465 C18.1086884,17.3926949 17.9647062,17.7347217 17.7709491,18.0422365 L17.8284271,18.0999082 C18.1124448,18.3839258 18.1124448,18.8444095 17.8284271,19.1284271 C17.5444095,19.4124448 17.0839258,19.4124448 16.7999082,19.1284271 L16.7422365,19.0709491 C16.4347217,19.2647062 16.0926949,19.4086884 15.727465,19.4915867 L15.7272727,19.5727273 C15.7272727,19.9743889 15.4016616,20.3 15,20.3 C14.5983384,20.3 14.2727273,19.9743889 14.2727273,19.5727273 L14.272535,19.4915867 C13.9073051,19.4086884 13.5652783,19.2647062 13.2577635,19.0709491 L13.2000918,19.1284271 C12.9160742,19.4124448 12.4555905,19.4124448 12.1715729,19.1284271 C11.8875552,18.8444095 11.8875552,18.3839258 12.1715729,18.0999082 L12.2290509,18.0422365 C12.0352938,17.7347217 11.8913116,17.3926949 11.8084133,17.027465 L11.7272727,17.0272727 C11.3256111,17.0272727 11,16.7016616 11,16.3 C11,15.8983384 11.3256111,15.5727273 11.7272727,15.5727273 L11.8084133,15.572535 C11.8913116,15.2073051 12.0352938,14.8652783 12.2290509,14.5577635 L12.1715729,14.5000918 C11.8875552,14.2160742 11.8875552,13.7555905 12.1715729,13.4715729 C12.4555905,13.1875552 12.9160742,13.1875552 13.2000918,13.4715729 L13.2577635,13.5290509 C13.5652783,13.3352938 13.9073051,13.1913116 14.272535,13.1084133 L14.2727273,13.0272727 C14.2727273,12.6256111 14.5983384,12.3 15,12.3 Z M15,14.9909091 C14.2770091,14.9909091 13.6909091,15.5770091 13.6909091,16.3 C13.6909091,17.0229909 14.2770091,17.6090909 15,17.6090909 C15.7229909,17.6090909 16.3090909,17.0229909 16.3090909,16.3 C16.3090909,15.5770091 15.7229909,14.9909091 15,14.9909091 Z" id="设置" fill-opacity="0.7" fill="#E6EAF0"></path>
    </g>
</svg>