<?xml version="1.0" encoding="UTF-8"?>
<svg width="24px" height="24px" viewBox="0 0 24 24" version="1.1" xmlns="http://www.w3.org/2000/svg" xmlns:xlink="http://www.w3.org/1999/xlink">
    <title>高级设置-暗夜</title>
    <g id="页面-1" stroke="none" stroke-width="1" fill="none" fill-rule="evenodd">
        <g id="高级设置-暗夜">
            <rect id="图标占位" x="0" y="0" width="24" height="24"></rect>
            <path d="M12.6666667,2.83333333 C13.2189514,2.83333333 13.6666667,3.28104858 13.6666667,3.83333333 L13.6666627,4.68584613 C14.5038453,4.87581245 15.287836,5.20582691 15.9927022,5.64995672 L16.5961941,5.04678332 C16.9867184,4.65625903 17.6198833,4.65625903 18.0104076,5.04678332 L18.9532167,5.98959236 C19.343741,6.38011665 19.343741,7.01328163 18.9532167,7.40380592 L18.3500866,8.00736659 C18.7941946,8.71221495 19.1241937,9.49618193 19.3141539,10.3333373 L20.1666667,10.3333333 C20.7189514,10.3333333 21.1666667,10.7810486 21.1666667,11.3333333 L21.1666667,12.6666667 C21.1666667,13.2189514 20.7189514,13.6666667 20.1666667,13.6666667 L19.3141539,13.6666627 C19.1241875,14.5038453 18.7941731,15.287836 18.3500433,15.9927022 L18.9532167,16.5961941 C19.343741,16.9867184 19.343741,17.6198833 18.9532167,18.0104076 L18.0104076,18.9532167 C17.6198833,19.343741 16.9867184,19.343741 16.5961941,18.9532167 L15.9927022,18.3500433 C15.287836,18.7941731 14.5038453,19.1241875 13.6666627,19.3141539 L13.6666667,20.1666667 C13.6666667,20.7189514 13.2189514,21.1666667 12.6666667,21.1666667 L11.3333333,21.1666667 C10.7810486,21.1666667 10.3333333,20.7189514 10.3333333,20.1666667 L10.3333373,19.3141539 C9.49618193,19.1241937 8.71221495,18.7941946 8.00736659,18.3500866 L7.40380592,18.9532167 C7.01328163,19.343741 6.38011665,19.343741 5.98959236,18.9532167 L5.04678332,18.0104076 C4.65625903,17.6198833 4.65625903,16.9867184 5.04678332,16.5961941 L5.64995672,15.9927022 C5.20582691,15.287836 4.87581245,14.5038453 4.68584613,13.6666627 L3.83333333,13.6666667 C3.28104858,13.6666667 2.83333333,13.2189514 2.83333333,12.6666667 L2.83333333,11.3333333 C2.83333333,10.7810486 3.28104858,10.3333333 3.83333333,10.3333333 L4.68584613,10.3333373 C4.87580628,9.49618193 5.20580544,8.71221495 5.64991339,8.00736659 L5.04678332,7.40380592 C4.65625903,7.01328163 4.65625903,6.38011665 5.04678332,5.98959236 L5.98959236,5.04678332 C6.38011665,4.65625903 7.01328163,4.65625903 7.40380592,5.04678332 L8.00736659,5.64991339 C8.71221495,5.20580544 9.49618193,4.87580628 10.3333373,4.68584613 L10.3333333,3.83333333 C10.3333333,3.28104858 10.7810486,2.83333333 11.3333333,2.83333333 L12.6666667,2.83333333 Z" id="形状结合" fill-opacity="0.5" fill="#999BA1"></path>
            <circle id="椭圆形" fill-opacity="0.7" fill="#E6EAF0" cx="12" cy="12" r="3"></circle>
        </g>
    </g>
</svg>