<?xml version="1.0" encoding="UTF-8"?>
<svg width="24px" height="24px" viewBox="0 0 24 24" version="1.1" xmlns="http://www.w3.org/2000/svg" xmlns:xlink="http://www.w3.org/1999/xlink">
    <!-- Generator: Sketch 61 (89581) - https://sketch.com -->
    <title>图标标识/个人设置/tts</title>
    <desc>Created with Sketch.</desc>
    <g id="图标标识/个人设置/tts" stroke="none" stroke-width="1" fill="none" fill-rule="evenodd">
        <g id="1.图标占位">
            <rect id="图标占位" x="0" y="0" width="24" height="24"></rect>
        </g>
        <path d="M20.2111156,9.69964285 C19.8168752,3.73440466 17.5969167,4.45483674 17.5969167,4.45483674 C17.5969167,4.45483674 14.6119487,8.1285431 7.66110935,8.45004139 L7.66110935,13.6056786 C7.66110935,13.6056786 10.6155753,13.7558655 12.536315,14.2955994 C14.4570639,14.8353334 15.7477229,15.1380538 17.4995208,16.632873 C17.4995208,16.632873 20.6510932,16.3794327 20.2110927,9.69846493 L20.2111156,9.69964285 Z M5,8.5380415 L6.89962888,8.5380415 L6.89962888,13.5681182 L5,13.5681182 L5,8.5380415 L5,8.5380415 Z" id="形状" fill="#BBBEC4"></path>
        <path d="M11.7538165,16.8487803 C11.0110957,15.9558726 10.7834687,14.8048313 10.7834687,14.8048313 L9,14.8048313 C9,16.6328867 10.6614419,18.9408361 11.012269,19.4043033 C11.3642694,19.8689438 11.8042699,19.6600903 12.8156844,19.4043033 C13.8247523,19.1485163 13.003418,18.1277152 13.003418,18.1277152 C13.003418,18.1277152 12.4977107,17.7428614 11.7538165,16.8487803 L11.7538165,16.8487803 Z" id="路径" fill="#66686B"></path>
    </g>
</svg>