<?xml version="1.0" encoding="UTF-8"?>
<svg width="24px" height="24px" viewBox="0 0 24 24" version="1.1" xmlns="http://www.w3.org/2000/svg" xmlns:xlink="http://www.w3.org/1999/xlink">
    <!-- Generator: Sketch 61 (89581) - https://sketch.com -->
    <title>图标标识/个人设置/外观暗夜</title>
    <desc>Created with Sketch.</desc>
    <g id="图标标识/个人设置/外观暗夜" stroke="none" stroke-width="1" fill="none" fill-rule="evenodd">
        <g id="1.图标占位">
            <rect id="图标占位" x="0" y="0" width="24" height="24"></rect>
        </g>
        <path d="M3.5,13.0625111 C3.5,18.3431423 6.71937875,20.5000198 12,20.5000198 C12.8818859,20.5000198 13.5937617,19.788144 13.5937617,18.9062679 C13.5937617,18.4918924 13.4343866,18.120017 13.1793863,17.8331417 C12.935011,17.5568914 12.7756358,17.1850159 12.7756358,16.7812655 C12.7756358,15.8993894 13.4875116,15.1875136 14.3693876,15.1875136 L16.2500148,15.1875136 C19.1825182,15.1875136 20.5000198,14.9325133 20.5000198,12 C20.5000198,7.30375443 17.280641,3.5 12,3.5 C6.71937875,3.5 3.5,7.78187998 3.5,13.0625111 Z" id="路径" fill-opacity="0.5" fill="#999BA1"></path>
        <path d="M7.21875433,9.87500742 C8.10063035,9.87500742 8.81250618,10.5868832 8.81250618,11.4687593 C8.81250618,12.3506353 8.10063035,13.0625111 7.21875433,13.0625111 C6.3368783,13.0625111 5.62500247,12.3506353 5.62500247,11.4687593 C5.62500247,10.5868832 6.3368783,9.87500742 7.21875433,9.87500742 Z M16.7812655,9.87500742 C17.6631415,9.87500742 18.3750173,10.5868832 18.3750173,11.4687593 C18.3750173,12.3506353 17.6631415,13.0625111 16.7812655,13.0625111 C15.8993894,13.0625111 15.1875136,12.3506353 15.1875136,11.4687593 C15.1875136,10.5868832 15.8993894,9.87500742 16.7812655,9.87500742 Z M9.3437568,5.62500247 C10.2256328,5.62500247 10.9375087,6.3368783 10.9375087,7.21875433 C10.9375087,8.10063035 10.2256328,8.81250618 9.3437568,8.81250618 C8.46188077,8.81250618 7.75000495,8.10063035 7.75000495,7.21875433 C7.75000495,6.3368783 8.46188077,5.62500247 9.3437568,5.62500247 Z M14.656263,5.62500247 C15.538139,5.62500247 16.2500148,6.3368783 16.2500148,7.21875433 C16.2500148,8.10063035 15.538139,8.81250618 14.656263,8.81250618 C13.774387,8.81250618 13.0625111,8.10063035 13.0625111,7.21875433 C13.0625111,6.3368783 13.774387,5.62500247 14.656263,5.62500247 Z" id="形状结合" fill-opacity="0.7" fill="#E6EAF0"></path>
    </g>
</svg>