<?xml version="1.0" encoding="UTF-8"?>
<svg width="24px" height="24px" viewBox="0 0 24 24" version="1.1" xmlns="http://www.w3.org/2000/svg" xmlns:xlink="http://www.w3.org/1999/xlink">
    <title>è®¾ç½®é¡µä¼šå‘˜</title>
    <defs>
        <path d="M8.5,0 C9.76782478,0 10.9708192,0.277571793 12.051528,0.775260182 L10.09375,5.8649817 L13.8125,6.3962317 L5.84375,15.4274817 L7.4375,9.5837317 L3.71875,9.0524817 L7.50594245,0.0575088375 C7.83201949,0.0195269653 8.16372936,0 8.5,0 Z" id="path-1"></path>
    </defs>
    <g id="è§„èŒƒ" stroke="none" stroke-width="1" fill="none" fill-rule="evenodd">
        <g id="è§„èŒƒðŸŒžå¤‡ä»½" transform="translate(-974.000000, -579.000000)">
            <g id="è®¾ç½®é¡µä¼šå‘˜" transform="translate(974.000000, 579.000000)">
                <rect id="çŸ©å½¢" opacity="0.2" x="0" y="0" width="24" height="24"></rect>
                <g id="ä¼šå‘˜å¤‡ä»½-2" transform="translate(3.500000, 3.500000)">
                    <path d="M16.535003,5.72005554 C16.8363293,6.59113308 17,7.52645288 17,8.5 C17,13.1944204 13.1944204,17 8.5,17 C7.89719375,17 7.3090435,16.9372502 6.74172493,16.8179263 Z M5.58551026,0.512818339 L1.4481961,10.3380475 L5.42459375,10.9055 L4.09719808,15.7723149 C1.64104516,14.2821215 0,11.5827041 0,8.5 C0,4.82944408 2.32659371,1.70229323 5.58551026,0.512818339 Z M10.4295,0.55196875 L7.88816507,7.15982876 L10.66325,7.55596875 L9.1853125,9.231 L9.45011705,8.2613178 L5.98878125,7.766875 L9.027,0.55196875 L10.4295,0.55196875 Z M13.446144,1.58648137 C14.6975919,2.48339951 15.6954365,3.71167843 16.3113802,5.14302054 L12.2989688,4.5698125 Z" id="å½¢çŠ¶ç»“åˆ" fill="#9CA5B3"></path>
                    <mask id="mask-2" fill="white">
                        <use xlink:href="#path-1"></use>
                    </mask>
                    <use id="å½¢çŠ¶ç»“åˆ" fill="#FFBB00" xlink:href="#path-1"></use>
                </g>
            </g>
        </g>
    </g>
</svg>