<?xml version="1.0" encoding="UTF-8"?>
<svg width="24px" height="24px" viewBox="0 0 24 24" version="1.1" xmlns="http://www.w3.org/2000/svg" xmlns:xlink="http://www.w3.org/1999/xlink">
    <!-- Generator: Sketch 61 (89581) - https://sketch.com -->
    <title>图标标识/个人设置/更新记录</title>
    <desc>Created with Sketch.</desc>
    <g id="图标标识/个人设置/更新记录" stroke="none" stroke-width="1" fill="none" fill-rule="evenodd">
        <g id="1.图标占位">
            <rect id="图标占位" x="0" y="0" width="24" height="24"></rect>
        </g>
        <path d="M12,3.5 L12,3.5 C16.6944069,3.5 20.5,7.3055732 20.5,12 C20.5,16.6944069 16.6944268,20.5 12,20.5 C7.30559312,20.5 3.5,16.6944268 3.5,12 L3.5,12 C3.5,7.3055944 7.3055732,3.5 12,3.5 L12,3.5 Z" id="路径" fill="#BBBEC4"></path>
        <path d="M12.7819991,11.5951878 L12.7819991,7.26124706 C12.7819991,6.8211453 12.4252265,6.46437268 11.9851247,6.46437268 C11.545023,6.46437268 11.1882503,6.8211453 11.1882503,7.26124706 L11.1882503,12.3070556 C11.1867541,12.3353693 11.1867541,12.3637422 11.1882503,12.3920557 C11.1829317,12.8350618 11.5377455,13.1984982 11.9807499,13.2038174 C12.0356997,13.2044771 12.0905719,13.1994886 12.144502,13.1889305 L16.1382547,13.1889305 C16.5783564,13.1889305 16.9351291,12.8321579 16.9351291,12.3920561 C16.9351291,11.9519543 16.5783564,11.5951817 16.1382547,11.5951817 L12.7819991,11.5951878 Z" id="路径" fill="#66686B"></path>
    </g>
</svg>