<?xml version="1.0" encoding="UTF-8"?>
<svg width="24px" height="24px" viewBox="0 0 24 24" version="1.1" xmlns="http://www.w3.org/2000/svg" xmlns:xlink="http://www.w3.org/1999/xlink">
    <!-- Generator: Sketch 61 (89581) - https://sketch.com -->
    <title>图标标识/个人设置/账号</title>
    <desc>Created with Sketch.</desc>
    <g id="图标标识/个人设置/账号" stroke="none" stroke-width="1" fill="none" fill-rule="evenodd">
        <g id="1.图标占位">
            <rect id="图标占位" x="0" y="0" width="24" height="24"></rect>
        </g>
        <circle id="椭圆形" fill="#BBBEC4" cx="12" cy="12" r="8.5"></circle>
        <path d="M15.8460936,13.7601435 C15.3741891,13.0903637 13.7451488,12.6697798 13.079311,12.2302697 C13.6427951,11.6698417 14.0737581,10.7298367 14.0220426,9.7498763 C13.970327,8.65004948 13.1310265,7.75946314 12.0137549,7.75 L11.9932841,7.75 C10.8760125,7.7605146 10.0259379,8.65004948 9.97422238,9.74041316 C9.92250682,10.7308882 10.3534698,11.6603785 10.916954,12.2302697 C10.2511161,12.6697798 8.62207589,13.0998268 8.15017138,13.7601435 C7.55651982,14.6002598 7.781698,15.0597476 7.84311023,15.3099951 C7.84311023,15.8304676 9.70810271,16.25 12.0029808,16.25 C14.22675,16.25 16.0303303,15.8599085 16.1531547,15.3604651 C16.1434581,15.3604651 16.5216281,14.7096116 15.8460936,13.7601435 L15.8460936,13.7601435 Z" id="路径" fill="#66686B"></path>
    </g>
</svg>