<?xml version="1.0" encoding="UTF-8"?>
<svg width="24px" height="24px" viewBox="0 0 24 24" version="1.1" xmlns="http://www.w3.org/2000/svg" xmlns:xlink="http://www.w3.org/1999/xlink">
    <title>设置页-兑换码-暗色</title>
    <g id="规范" stroke="none" stroke-width="1" fill="none" fill-rule="evenodd">
        <g id="规范🌞备份" transform="translate(-1110.000000, -606.000000)">
            <g id="设置页-兑换码-暗色" transform="translate(1110.000000, 606.000000)">
                <rect id="矩形" opacity="0.2" x="0" y="0" width="24" height="24"></rect>
                <g id="编组-2" transform="translate(4.000000, 3.000000)">
                    <path d="M7.5,9.32178638 L7.5,17.3217864 L2,17.3217864 C1.44771525,17.3217864 1,16.8740711 1,16.3217864 L1,10.3217864 C1,9.76950163 1.44771525,9.32178638 2,9.32178638 L7.5,9.32178638 Z M14,9.32178638 C14.5522847,9.32178638 15,9.76950163 15,10.3217864 L15,16.3217864 C15,16.8740711 14.5522847,17.3217864 14,17.3217864 L8.5,17.3217864 L8.5,9.32178638 L14,9.32178638 Z M15,4.32178638 C15.5522847,4.32178638 16,4.76950163 16,5.32178638 L16,7.32178638 C16,7.87407113 15.5522847,8.32178638 15,8.32178638 L8.5,8.32178638 L8.5,4.32178638 L15,4.32178638 Z M7.5,8.32178638 L1,8.32178638 C0.44771525,8.32178638 6.76353751e-17,7.87407113 0,7.32178638 L0,5.32178638 C-6.76353751e-17,4.76950163 0.44771525,4.32178638 1,4.32178638 L7.5,4.32178638 L7.5,8.32178638 Z" id="形状结合" fill-opacity="0.5" fill="#999BA1"></path>
                    <path d="M9.73786613,0.287446225 C10.7627789,-0.304287436 12.0733298,0.046873611 12.6650634,1.07178638 C13.2567971,2.09669914 12.905636,3.40725001 11.8807233,3.99898367 C11.2526848,4.36158183 9.95946915,4.41139721 8.00107625,4.14842978 C6.04053067,4.41139721 4.747315,4.36158183 4.11927655,3.99898367 C3.09436379,3.40725001 2.74320274,2.09669914 3.3349364,1.07178638 C3.92667006,0.046873611 5.23722093,-0.304287436 6.2621337,0.287446225 C6.79666512,0.596058087 7.37589938,1.43525262 7.99983646,2.80502984 C8.62410045,1.43525262 9.2033347,0.596058087 9.73786613,0.287446225 Z" id="形状结合" fill-opacity="0.7" fill="#E6EAF0"></path>
                </g>
            </g>
        </g>
    </g>
</svg>