<?xml version="1.0" encoding="UTF-8"?>
<svg width="24px" height="24px" viewBox="0 0 24 24" version="1.1" xmlns="http://www.w3.org/2000/svg" xmlns:xlink="http://www.w3.org/1999/xlink">
    <!-- Generator: Sketch 61 (89581) - https://sketch.com -->
    <title>图标标识/个人设置/隐私</title>
    <desc>Created with Sketch.</desc>
    <g id="图标标识/个人设置/隐私" stroke="none" stroke-width="1" fill="none" fill-rule="evenodd">
        <g id="1.图标占位">
            <rect id="图标占位" x="0" y="0" width="24" height="24"></rect>
        </g>
        <path d="M19.6208398,5.89318026 C19.3826309,5.70261036 19.0841704,5.59981782 18.7770382,5.60256715 L18.6887543,5.60256715 C18.6709374,5.60256715 18.474751,5.61732408 18.1682598,5.61732408 C17.3411597,5.62126329 16.5159029,5.54028393 15.7059206,5.37570397 C14.4803563,5.11991722 13.0634102,3.9155551 12.6492168,3.67531231 C12.440014,3.56080994 12.2046196,3.50048168 11.9651669,3.5 C11.7261404,3.5031778 11.4914713,3.56333778 11.2813173,3.67531231 C11.0711632,3.78728683 9.75606826,5.07407236 8.31650068,5.37570397 C7.50060059,5.53961198 6.66970735,5.62057831 5.8369451,5.61732408 C5.51383815,5.61732408 5.31765177,5.60256715 5.29983484,5.60256715 L5.22876733,5.60256715 C4.92114669,5.59612567 4.62155342,5.69935735 4.3853661,5.89318026 C4.14346651,6.07927792 4.00149745,6.36393095 4,6.66585303 L4,9.33567651 C4,19.1724482 11.45268,20.43997 11.7573695,20.4836505 C11.8280249,20.4955703 11.8997162,20.5005139 11.9713728,20.4984074 C12.043341,20.5023671 12.1155331,20.4989381 12.1867774,20.4881759 C12.510485,20.4409538 20,19.1657584 20,9.34177604 L20,6.66585303 C19.9932789,6.3665154 19.8549922,6.08470734 19.6208398,5.89318026 L19.6208398,5.89318026 Z" id="路径" fill="#BBBEC4"></path>
        <path d="M8.42287638,10.2082014 C8.42287638,9.76637363 8.78104858,9.40820143 9.22287638,9.40820143 C9.66470418,9.40820143 10.0228764,9.76637363 10.0228764,10.2082014 L10.0228764,12.5957014 L15.0926681,12.5957014 C15.53277,12.5957014 15.8895431,12.9524745 15.8895431,13.3925764 C15.8895431,13.8326783 15.53277,14.1894514 15.0926681,14.1894514 L9.42287638,14.1894514 C8.87059163,14.1894514 8.42287638,13.7417362 8.42287638,13.1894514 L8.42287638,10.2082014 Z" id="形状结合" fill="#66686B" transform="translate(12.156210, 11.798826) rotate(-45.000000) translate(-12.156210, -11.798826) "></path>
    </g>
</svg>