<?xml version="1.0" encoding="UTF-8"?>
<svg width="190px" height="390px" viewBox="0 0 190 390" version="1.1" xmlns="http://www.w3.org/2000/svg" xmlns:xlink="http://www.w3.org/1999/xlink">
    <!-- Generator: Sketch 61 (89581) - https://sketch.com -->
    <title>用户列表加载</title>
    <desc>Created with Sketch.</desc>
    <g id="用户列表加载" stroke="none" stroke-width="1" fill="none" fill-rule="evenodd">
        <rect id="加载背景" x="0" y="0" width="190" height="390"></rect>
        <path d="M32,358 C40.836556,358 48,365.163444 48,374 C48,382.836556 40.836556,390 32,390 C23.163444,390 16,382.836556 16,374 C16,365.163444 23.163444,358 32,358 Z M144,367 C147.865993,367 151,370.134007 151,374 C151,377.865993 147.865993,381 144,381 L65,381 C61.1340068,381 58,377.865993 58,374 C58,370.134007 61.1340068,367 65,367 L144,367 Z M32,314 C40.836556,314 48,321.163444 48,330 C48,338.836556 40.836556,346 32,346 C23.163444,346 16,338.836556 16,330 C16,321.163444 23.163444,314 32,314 Z M124,323 C127.865993,323 131,326.134007 131,330 C131,333.865993 127.865993,337 124,337 L65,337 C61.1340068,337 58,333.865993 58,330 C58,326.134007 61.1340068,323 65,323 L124,323 Z M32,270 C40.836556,270 48,277.163444 48,286 C48,294.836556 40.836556,302 32,302 C23.163444,302 16,294.836556 16,286 C16,277.163444 23.163444,270 32,270 Z M164,279 C167.865993,279 171,282.134007 171,286 C171,289.865993 167.865993,293 164,293 L65,293 C61.1340068,293 58,289.865993 58,286 C58,282.134007 61.1340068,279 65,279 L164,279 Z M32,226 C40.836556,226 48,233.163444 48,242 C48,250.836556 40.836556,258 32,258 C23.163444,258 16,250.836556 16,242 C16,233.163444 23.163444,226 32,226 Z M130,235 C133.865993,235 137,238.134007 137,242 C137,245.865993 133.865993,249 130,249 L65,249 C61.1340068,249 58,245.865993 58,242 C58,238.134007 61.1340068,235 65,235 L130,235 Z M32,182 C40.836556,182 48,189.163444 48,198 C48,206.836556 40.836556,214 32,214 C23.163444,214 16,206.836556 16,198 C16,189.163444 23.163444,182 32,182 Z M139,191 C142.865993,191 146,194.134007 146,198 C146,201.865993 142.865993,205 139,205 L65,205 C61.1340068,205 58,201.865993 58,198 C58,194.134007 61.1340068,191 65,191 L139,191 Z M32,138 C40.836556,138 48,145.163444 48,154 C48,162.836556 40.836556,170 32,170 C23.163444,170 16,162.836556 16,154 C16,145.163444 23.163444,138 32,138 Z M101,147 C104.865993,147 108,150.134007 108,154 C108,157.865993 104.865993,161 101,161 L65,161 C61.1340068,161 58,157.865993 58,154 C58,150.134007 61.1340068,147 65,147 L101,147 Z M32,94 C40.836556,94 48,101.163444 48,110 C48,118.836556 40.836556,126 32,126 C23.163444,126 16,118.836556 16,110 C16,101.163444 23.163444,94 32,94 Z M131,103 C134.865993,103 138,106.134007 138,110 C138,113.865993 134.865993,117 131,117 L65,117 C61.1340068,117 58,113.865993 58,110 C58,106.134007 61.1340068,103 65,103 L131,103 Z M32,50 C40.836556,50 48,57.163444 48,66 C48,74.836556 40.836556,82 32,82 C23.163444,82 16,74.836556 16,66 C16,57.163444 23.163444,50 32,50 Z M115,59 C118.865993,59 122,62.1340068 122,66 C122,69.8659932 118.865993,73 115,73 L65,73 C61.1340068,73 58,69.8659932 58,66 C58,62.1340068 61.1340068,59 65,59 L115,59 Z M131,24 C134.313708,24 137,26.6862915 137,30 C137,33.3137085 134.313708,36 131,36 L22,36 C18.6862915,36 16,33.3137085 16,30 C16,26.6862915 18.6862915,24 22,24 L131,24 Z" id="用户加载" fill-opacity="0.2" fill="#BBBEC4"></path>
    </g>
</svg>