<?xml version="1.0" encoding="UTF-8"?>
<svg width="200px" height="400px" viewBox="0 0 200 400" version="1.1" xmlns="http://www.w3.org/2000/svg" xmlns:xlink="http://www.w3.org/1999/xlink">
    <!-- Generator: Sketch 61 (89581) - https://sketch.com -->
    <title>频道加载</title>
    <desc>Created with Sketch.</desc>
    <g id="频道加载" stroke="none" stroke-width="1" fill="none" fill-rule="evenodd">
        <rect id="矩形" x="0" y="0" width="200" height="400"></rect>
        <path d="M28,372 C31.8659932,372 35,375.134007 35,379 C35,382.865993 31.8659932,386 28,386 C24.1340068,386 21,382.865993 21,379 C21,375.134007 24.1340068,372 28,372 Z M28,332 C31.8659932,332 35,335.134007 35,339 C35,342.865993 31.8659932,346 28,346 C24.1340068,346 21,342.865993 21,339 C21,335.134007 24.1340068,332 28,332 Z M28,292 C31.8659932,292 35,295.134007 35,299 C35,302.865993 31.8659932,306 28,306 C24.1340068,306 21,302.865993 21,299 C21,295.134007 24.1340068,292 28,292 Z M16,260 C19.3137085,260 22,262.686292 22,266 C22,269.313708 19.3137085,272 16,272 C12.6862915,272 10,269.313708 10,266 C10,262.686292 12.6862915,260 16,260 Z M28,212 C31.8659932,212 35,215.134007 35,219 C35,222.865993 31.8659932,226 28,226 C24.1340068,226 21,222.865993 21,219 C21,215.134007 24.1340068,212 28,212 Z M28,172 C31.8659932,172 35,175.134007 35,179 C35,182.865993 31.8659932,186 28,186 C24.1340068,186 21,182.865993 21,179 C21,175.134007 24.1340068,172 28,172 Z M28,132 C31.8659932,132 35,135.134007 35,139 C35,142.865993 31.8659932,146 28,146 C24.1340068,146 21,142.865993 21,139 C21,135.134007 24.1340068,132 28,132 Z M28,92 C31.8659932,92 35,95.1340068 35,99 C35,102.865993 31.8659932,106 28,106 C24.1340068,106 21,102.865993 21,99 C21,95.1340068 24.1340068,92 28,92 Z M28,52 C31.8659932,52 35,55.1340068 35,59 C35,62.8659932 31.8659932,66 28,66 C24.1340068,66 21,62.8659932 21,59 C21,55.1340068 24.1340068,52 28,52 Z M16,20 C19.3137085,20 22,22.6862915 22,26 C22,29.3137085 19.3137085,32 16,32 C12.6862915,32 10,29.3137085 10,26 C10,22.6862915 12.6862915,20 16,20 Z" id="圆" fill-opacity="0.2" fill="#BBBEC4"></path>
        <path d="M172,372 C175.865993,372 179,375.134007 179,379 C179,382.865993 175.865993,386 172,386 L57,386 C53.1340068,386 50,382.865993 50,379 C50,375.134007 53.1340068,372 57,372 L172,372 Z M182,332 C185.865993,332 189,335.134007 189,339 C189,342.865993 185.865993,346 182,346 L57,346 C53.1340068,346 50,342.865993 50,339 C50,335.134007 53.1340068,332 57,332 L182,332 Z M161,292 C164.865993,292 168,295.134007 168,299 C168,302.865993 164.865993,306 161,306 L57,306 C53.1340068,306 50,302.865993 50,299 C50,295.134007 53.1340068,292 57,292 L161,292 Z M93,260 C96.3137085,260 99,262.686292 99,266 C99,269.313708 96.3137085,272 93,272 L34,272 C30.6862915,272 28,269.313708 28,266 C28,262.686292 30.6862915,260 34,260 L93,260 Z M161,212 C164.865993,212 168,215.134007 168,219 C168,222.865993 164.865993,226 161,226 L57,226 C53.1340068,226 50,222.865993 50,219 C50,215.134007 53.1340068,212 57,212 L161,212 Z M128,172 C131.865993,172 135,175.134007 135,179 C135,182.865993 131.865993,186 128,186 L57,186 C53.1340068,186 50,182.865993 50,179 C50,175.134007 53.1340068,172 57,172 L128,172 Z M88,132 C91.8659932,132 95,135.134007 95,139 C95,142.865993 91.8659932,146 88,146 L57,146 C53.1340068,146 50,142.865993 50,139 C50,135.134007 53.1340068,132 57,132 L88,132 Z M88,92 C91.8659932,92 95,95.1340068 95,99 C95,102.865993 91.8659932,106 88,106 L57,106 C53.1340068,106 50,102.865993 50,99 C50,95.1340068 53.1340068,92 57,92 L88,92 Z M147,52 C150.865993,52 154,55.1340068 154,59 C154,62.8659932 150.865993,66 147,66 L57,66 C53.1340068,66 50,62.8659932 50,59 C50,55.1340068 53.1340068,52 57,52 L147,52 Z M93,20 C96.3137085,20 99,22.6862915 99,26 C99,29.3137085 96.3137085,32 93,32 L34,32 C30.6862915,32 28,29.3137085 28,26 C28,22.6862915 30.6862915,20 34,20 L93,20 Z" id="条" fill-opacity="0.2" fill="#BBBEC4"></path>
    </g>
</svg>