<?xml version="1.0" encoding="UTF-8"?>
<svg width="502px" height="578px" viewBox="0 0 502 578" version="1.1" xmlns="http://www.w3.org/2000/svg" xmlns:xlink="http://www.w3.org/1999/xlink">
    <!-- Generator: Sketch 61 (89581) - https://sketch.com -->
    <title>文字频道加载</title>
    <desc>Created with Sketch.</desc>
    <g id="文字频道加载" stroke="none" stroke-width="1" fill="none" fill-rule="evenodd">
        <rect id="矩形" x="0" y="0" width="502" height="578"></rect>
        <path d="M277,360 C280.313708,360 283,362.686292 283,366 L283,572 C283,575.313708 280.313708,578 277,578 L85,578 C81.6862915,578 79,575.313708 79,572 L79,366 C79,362.686292 81.6862915,360 85,360 L277,360 Z M44,312 C55.045695,312 64,320.954305 64,332 C64,343.045695 55.045695,352 44,352 C32.954305,352 24,343.045695 24,332 C24,320.954305 32.954305,312 44,312 Z M313,336 C317.418278,336 321,339.581722 321,344 C321,348.418278 317.418278,352 313,352 L87,352 C82.581722,352 79,348.418278 79,344 C79,339.581722 82.581722,336 87,336 L313,336 Z M162,314 C165.865993,314 169,317.134007 169,321 C169,324.865993 165.865993,328 162,328 L86,328 C82.1340068,328 79,324.865993 79,321 C79,317.134007 82.1340068,314 86,314 L162,314 Z M275,272 C279.418278,272 283,275.581722 283,280 C283,284.418278 279.418278,288 275,288 L87,288 C82.581722,288 79,284.418278 79,280 C79,275.581722 82.581722,272 87,272 L275,272 Z M44,224 C55.045695,224 64,232.954305 64,244 C64,255.045695 55.045695,264 44,264 C32.954305,264 24,255.045695 24,244 C24,232.954305 32.954305,224 44,224 Z M259,248 C263.418278,248 267,251.581722 267,256 C267,260.418278 263.418278,264 259,264 L87,264 C82.581722,264 79,260.418278 79,256 C79,251.581722 82.581722,248 87,248 L259,248 Z M162,226 C165.865993,226 169,229.134007 169,233 C169,236.865993 165.865993,240 162,240 L86,240 C82.1340068,240 79,236.865993 79,233 C79,229.134007 82.1340068,226 86,226 L162,226 Z M197,184 C201.418278,184 205,187.581722 205,192 C205,196.418278 201.418278,200 197,200 L87,200 C82.581722,200 79,196.418278 79,192 C79,187.581722 82.581722,184 87,184 L197,184 Z M136,160 C140.418278,160 144,163.581722 144,168 C144,172.418278 140.418278,176 136,176 L87,176 C82.581722,176 79,172.418278 79,168 C79,163.581722 82.581722,160 87,160 L136,160 Z M44,112 C55.045695,112 64,120.954305 64,132 C64,143.045695 55.045695,152 44,152 C32.954305,152 24,143.045695 24,132 C24,120.954305 32.954305,112 44,112 Z M283,136 C287.418278,136 291,139.581722 291,144 C291,148.418278 287.418278,152 283,152 L87,152 C82.581722,152 79,148.418278 79,144 C79,139.581722 82.581722,136 87,136 L283,136 Z M162,114 C165.865993,114 169,117.134007 169,121 C169,124.865993 165.865993,128 162,128 L86,128 C82.1340068,128 79,124.865993 79,121 C79,117.134007 82.1340068,114 86,114 L162,114 Z M322,72 C326.418278,72 330,75.581722 330,80 C330,84.418278 326.418278,88 322,88 L87,88 C82.581722,88 79,84.418278 79,80 C79,75.581722 82.581722,72 87,72 L322,72 Z M44,24 C55.045695,24 64,32.954305 64,44 C64,55.045695 55.045695,64 44,64 C32.954305,64 24,55.045695 24,44 C24,32.954305 32.954305,24 44,24 Z M494,48 C498.418278,48 502,51.581722 502,56 C502,60.418278 498.418278,64 494,64 L87,64 C82.581722,64 79,60.418278 79,56 C79,51.581722 82.581722,48 87,48 L494,48 Z M162,26 C165.865993,26 169,29.1340068 169,33 C169,36.8659932 165.865993,40 162,40 L86,40 C82.1340068,40 79,36.8659932 79,33 C79,29.1340068 82.1340068,26 86,26 L162,26 Z" id="形状结合" fill-opacity="0.2" fill="#BBBEC4"></path>
    </g>
</svg>