<?xml version="1.0" encoding="UTF-8"?>
<svg width="24px" height="24px" viewBox="0 0 24 24" version="1.1" xmlns="http://www.w3.org/2000/svg" xmlns:xlink="http://www.w3.org/1999/xlink">
    <title>反馈-暗色</title>
    <g id="反馈-暗色" stroke="none" stroke-width="1" fill="none" fill-rule="evenodd">
        <g id="反馈">
            <rect id="矩形备份-5" opacity="0.2" x="0" y="0" width="24" height="24"></rect>
            <path d="M7.35916501,18.2805907 C12,17.845715 12.8997034,14.6369267 14.6678556,14.7556564 C16.5531038,14.7556564 19.212841,13.5627027 21.1070055,11.70841 L21.1056975,17.9999986 C21.1056975,19.6568529 19.7625518,20.9999986 18.1056975,20.9999986 L6.10569755,20.9999986 C4.4488433,20.9999986 3.10569755,19.6568529 3.10569755,17.9999986 L3.10569755,5.99999861 C3.10569755,4.34314436 4.4488433,2.99999861 6.10569755,2.99999861 L14.6337842,2.9995679 C9.18184451,9.44025451 6.75697143,14.5339288 7.35916501,18.2805907 Z" id="形状结合" fill="#BBBEC4" fill-rule="nonzero"></path>
            <path d="M8.828581,16.4842954 L9.14572395,15.5171517 C9.35715193,14.8785786 11.8514498,9.95714519 13.2428772,8.25714321 C15.0364569,6.10167252 17.1784867,4.26190475 19.5800325,2.81428588 C20.0771763,2.50666703 21.1819426,1.90190461 22.8943313,0.999998611 C22.7126893,2.75174484 22.4145788,3.91841151 22,4.49999861 C20.4243013,6.7104541 18.2324642,7.48037348 17.9900403,7.59714512 C18.2382212,7.60007316 20.2688394,7.09003399 21.4622974,6.79682793 C21.4284674,7.67615413 20.1871758,8.95094201 19.5800325,9.42808514 C18.9728892,9.90522828 15.2710317,10.5328665 15.0124572,10.5742962 C15.6424579,10.8385817 17.2754935,11.0077639 18.8093923,10.7349177 C17.2697974,12.2449716 15.8422512,12.8552412 14.5267535,12.5657262 C14.1587104,12.4639487 13.1251271,12.4290241 13,12.5657262 C12.4857142,13.1371546 12.1424639,14.0000141 11.5381781,14.5428722 C10.9910349,15.1000154 10.3896045,15.600016 9.74531856,16.0428739 L8.82817491,16.4857319 L8.828581,16.4842954 Z" id="路径" fill="#66CCCC" fill-rule="nonzero"></path>
        </g>
    </g>
</svg>