<?xml version="1.0" encoding="UTF-8"?>
<svg width="44px" height="44px" viewBox="0 0 44 44" version="1.1" xmlns="http://www.w3.org/2000/svg" xmlns:xlink="http://www.w3.org/1999/xlink">
    <title>身份标识</title>
    <g id="会员" stroke="none" stroke-width="1" fill="none" fill-rule="evenodd">
        <g id="身份标识">
            <circle id="椭圆形" fill="#8B72E6" cx="22" cy="22" r="22"></circle>
            <g id="图标背景" transform="translate(6.000000, 6.000000)" fill="#FFFFFF">
                <g id="编组" fill-opacity="0.01" opacity="0.2">
                    <g id="1.图标占位">
                        <rect id="图标占位" x="0" y="0" width="32" height="32"></rect>
                    </g>
                </g>
                <path d="M16,5 C17.1045695,5 18,5.8954305 18,7 C18,7.84203303 17.4796398,8.56252943 16.7429498,8.85745891 L20,17 L26.3005422,13.4008675 C26.1118411,13.1500208 26,12.8380714 26,12.5 C26,11.6715729 26.6715729,11 27.5,11 C28.3284271,11 29,11.6715729 29,12.5 C29,13.3284271 28.3284271,14 27.5,14 C27.274278,14 27.0602008,13.9501423 26.8681805,13.8608387 L25.2609055,24.3041144 C25.1108034,25.2797777 24.2713042,26 23.2841621,26 L8.71583791,26 C7.72869575,26 6.88919658,25.2797777 6.73909452,24.3041144 L5.13281425,13.8603756 C4.94053859,13.9499699 4.72611187,14 4.5,14 C3.67157288,14 3,13.3284271 3,12.5 C3,11.6715729 3.67157288,11 4.5,11 C5.32842712,11 6,11.6715729 6,12.5 C6,12.8380714 5.88815893,13.1500208 5.69945779,13.4008675 L12,17 L15.2570502,8.85745891 C14.5203602,8.56252943 14,7.84203303 14,7 C14,5.8954305 14.8954305,5 16,5 Z" id="形状结合"></path>
            </g>
        </g>
    </g>
</svg>