<?xml version="1.0" encoding="UTF-8"?>
<svg width="32px" height="32px" viewBox="0 0 32 32" version="1.1" xmlns="http://www.w3.org/2000/svg" xmlns:xlink="http://www.w3.org/1999/xlink">
    <title>画板备份</title>
    <defs>
        <path d="M16,0 C18.3866835,0 20.651314,0.522571208 22.6857147,1.45953685 L19,11.0399656 L26,12.0399656 L11,29.0399656 L14,18.0399656 L7,17.0399656 L14.1290613,0.108225316 C14.7427799,0.0367475189 15.3670985,0 16,0 Z" id="path-1"></path>
    </defs>
    <g id="画板备份" stroke="none" stroke-width="1" fill="none" fill-rule="evenodd">
        <g id="会员备份-2">
            <path d="M31.1245415,10.7666721 C31.6918525,12.4064871 32,14.1672577 32,16 C32,24.836556 24.836556,32 16,32 C14.8657776,32 13.7591201,31.8819809 12.6916377,31.6575531 Z M10.5133476,0.96550733 L2.72601618,19.4598541 L10.211,20.528 L7.71289527,29.6893803 C3.08925888,26.8843762 0,21.8029556 0,16 C0,9.09092626 4.37920683,3.20467109 10.5133476,0.96550733 Z M19.632,1.039 L14.8483107,13.4773247 L20.072,14.223 L17.29,17.376 L17.7884556,15.5507159 L11.273,14.62 L16.992,1.039 L19.632,1.039 Z M25.3119815,2.98745959 C27.6668307,4.67562553 29.5444987,6.98715606 30.7036692,9.68073508 L23.151,8.602 Z" id="形状结合" fill="#9CA5B3"></path>
            <mask id="mask-2" fill="white">
                <use xlink:href="#path-1"></use>
            </mask>
            <use id="形状结合" fill="#FFBB00" xlink:href="#path-1"></use>
        </g>
    </g>
</svg>