<?xml version="1.0" encoding="UTF-8"?>
<svg width="16px" height="16px" viewBox="0 0 16 16" version="1.1" xmlns="http://www.w3.org/2000/svg" xmlns:xlink="http://www.w3.org/1999/xlink">
    <!-- Generator: Sketch 61 (89581) - https://sketch.com -->
    <title>语音3</title>
    <desc>Created with Sketch.</desc>
    <g id="语音3" stroke="none" stroke-width="1" fill="none" fill-rule="evenodd">
        <rect id="矩形" x="0" y="0" width="16" height="16"></rect>
        <path d="M5.44654591,1.50990331e-14 L6.91312245,1.40977778 C6.47332471,1.83288889 6.07382716,2.29511111 5.72689507,2.79111111 C5.3782108,3.28888889 5.07683546,3.82044444 4.8350343,4.37333333 C4.33040582,5.52 4.07283503,6.74133333 4.07283503,8 C4.07283503,9.25866319 4.33040582,10.4782222 4.8350343,11.6266667 C5.07683546,12.1795556 5.37645862,12.7111111 5.72689507,13.2088889 C6.07382716,13.7031111 6.47507689,14.1671111 6.91312245,14.5902222 L6.91312245,14.5902222 L5.44654591,16 C3.31939324,13.9519965 2.00175218,11.1253299 2,8 C2,4.87467014 3.31764448,2.04800347 5.44654591,1.50990331e-14 L5.44654591,1.50990331e-14 Z M8.7995265,3.00088889 L10.266103,4.41066667 C9.78250074,4.87822222 9.40052501,5.42044444 9.13419331,6.02488889 C8.85734851,6.65067014 8.71892612,7.31378125 8.71892612,8.00178125 C8.71892612,8.68799653 8.8591007,9.35110764 9.13419331,9.97688542 C9.40052501,10.5813299 9.78074856,11.1235521 10.266103,11.5911076 L10.266103,11.5911076 L8.7995265,13.0008889 C7.46786799,11.7208889 6.64434233,9.952 6.64434233,8.00000347 C6.64434233,6.04800694 7.46786799,4.27911111 8.7995265,3.00088889 L8.7995265,3.00088889 Z M14,8 L11.9201562,6 C11.3874928,6.512 11.0580826,7.21777778 11.0580826,8 C11.0580826,8.78044444 11.3874928,9.488 11.9201562,10 L14,8 Z" id="形状" fill="#FFFFFF" fill-rule="nonzero" transform="translate(8.000000, 8.000000) scale(-1, 1) translate(-8.000000, -8.000000) "></path>
    </g>
</svg>