<?xml version="1.0" encoding="UTF-8"?>
<svg width="16px" height="16px" viewBox="0 0 16 16" version="1.1" xmlns="http://www.w3.org/2000/svg" xmlns:xlink="http://www.w3.org/1999/xlink">
    <!-- Generator: Sketch 61 (89581) - https://sketch.com -->
    <title>语音2</title>
    <desc>Created with Sketch.</desc>
    <g id="语音2" stroke="none" stroke-width="1" fill="none" fill-rule="evenodd">
        <rect id="矩形" x="0" y="0" width="16" height="16"></rect>
        <path d="M4.15518417,13.0008889 L5.62176071,11.5911076 C5.13640623,11.1235521 4.75618268,10.5813299 4.48985098,9.97688542 C4.21475837,9.35110764 4.07458379,8.68799653 4.07458379,8.00178125 C4.07458379,7.31378125 4.21300618,6.65067014 4.48985098,6.02488889 C4.75618268,5.42044444 5.13815841,4.87822222 5.62176071,4.41066667 L4.15518417,3.00088889 C2.82352566,4.27911111 2,6.04800694 2,8.00000347 C2,9.952 2.82352566,11.7208889 4.15518417,13.0008889 L4.15518417,13.0008889 Z M9.35565767,8 L7.27581391,6 C6.74315051,6.512 6.41374025,7.21777778 6.41374025,8 C6.41374025,8.78044444 6.74315051,9.488 7.27581391,10 L9.35565767,8 Z" id="形状" fill="#FFFFFF" fill-rule="nonzero" transform="translate(5.677829, 8.000889) scale(-1, 1) translate(-5.677829, -8.000889) "></path>
    </g>
</svg>