<?xml version="1.0" encoding="UTF-8"?>
<svg width="14px" height="14px" viewBox="0 0 14 14" version="1.1" xmlns="http://www.w3.org/2000/svg" xmlns:xlink="http://www.w3.org/1999/xlink">
    <title>管理员</title>
    <g id="页面-1" stroke="none" stroke-width="1" fill="none" fill-rule="evenodd">
        <g id="语音频道悬浮" transform="translate(-505.000000, -174.000000)">
            <g id="语音成员" transform="translate(325.000000, 109.000000)">
                <g id="编组-3备份-10" transform="translate(168.000000, 0.000000)">
                    <g id="编组-5" transform="translate(6.000000, 13.000000)">
                        <g id="编组-7" transform="translate(0.000000, 47.000000)">
                            <g id="管理员" transform="translate(6.000000, 5.000000)">
                                <circle id="椭圆形" fill="#FF9900" cx="7" cy="7" r="7"></circle>
                                <path d="M10.5193013,8.61058882 C10.0874933,7.9977184 8.59686821,7.61287042 7.9876048,7.21070427 C8.50321121,6.69789433 8.89755646,5.83775909 8.85023503,4.94106328 C8.8029136,3.9346858 8.03492623,3.11977019 7.01258617,3.11111111 L6.99385477,3.11111111 C5.97151471,3.12073231 5.1936687,3.9346858 5.14634727,4.9324042 C5.09902584,5.83872121 5.49337109,6.68923525 6.00897751,7.21070427 C5.3997141,7.61287042 3.90908905,8.00637748 3.477281,8.61058882 C2.93407042,9.37932267 3.14011582,9.79976909 3.19631001,10.0287536 C3.19631001,10.505003 4.90283908,10.8888889 7.00272754,10.8888889 C9.03754903,10.8888889 10.6878839,10.5319424 10.8002723,10.0749354 C10.7913995,10.0749354 11.1374375,9.47938314 10.5193013,8.61058882 L10.5193013,8.61058882 Z" id="路径" fill="#FFFFFF"></path>
                            </g>
                        </g>
                    </g>
                </g>
            </g>
        </g>
    </g>
</svg>