<?xml version="1.0" encoding="UTF-8"?>
<svg width="140px" height="80px" viewBox="0 0 140 80" version="1.1" xmlns="http://www.w3.org/2000/svg" xmlns:xlink="http://www.w3.org/1999/xlink">
    <title>buff底栏切图</title>
    <defs>
        <path d="M30,0 C34.4746843,0 38.7205547,0.979668935 42.5348269,2.73622258 L35.625,20.6999354 L48.75,22.5749354 L20.625,54.4499354 L26.25,33.8249354 L13.125,31.9499354 L26.492061,0.202914203 C27.6427604,0.0688987658 28.8133341,0 30,0 Z" id="path-1"></path>
    </defs>
    <g id="会员" stroke="none" stroke-width="1" fill="none" fill-rule="evenodd">
        <g id="会员页介绍" transform="translate(-400.000000, -1373.000000)">
            <g id="buff底栏切图" transform="translate(400.000000, 1373.000000)">
                <rect id="矩形" fill="#525A66" x="0" y="0" width="80" height="80" rx="40"></rect>
                <path d="M91.4820927,46 C91.8947082,46 92.2547802,45.8657244 92.5623087,45.5971731 C92.8698371,45.3286219 93.0909266,44.9893993 93.2255769,44.5795053 L94.1926178,40.5088339 L93.2389046,39.6819788 L94.5456493,38.8763251 L95.5815884,34 L81.8372247,34 L82.3872496,34.8056537 L80,46 L91.4820927,46 Z M90.4660819,38.664311 L85.7494602,38.664311 L86.1877079,36.0353357 L91.0964093,36.0353357 L90.4660819,38.664311 Z M89.3938805,43.9646643 L84.4851791,43.9646643 L85.1698999,40.6996466 L90.0786013,40.6996466 L89.3938805,43.9646643 Z M108.721238,46 L111.390808,34 L106.460765,34 L107.242342,34.5936396 L104.989678,43.9646643 L100.080977,43.9646643 L102.363066,34 L97.6464443,34 L98.2146004,34.5936396 L95.9306982,44.5795053 C95.8956447,44.9893993 95.9697888,45.3286219 96.1531304,45.5971731 C96.336472,45.8657244 96.6344506,46 97.0470661,46 L108.721238,46 Z M115.716138,46 L116.717628,41.5265018 L123.675178,41.5265018 L124.062659,39.4911661 L117.297188,39.4911661 L117.998227,36.0353357 L125.382621,36.0353357 L125.748759,34 L113.669086,34 L114.219111,34.8056537 L111.618439,46 L115.716138,46 Z M129.967378,46 L130.968868,41.5265018 L137.926419,41.5265018 L138.3139,39.4911661 L131.548429,39.4911661 L132.249467,36.0353357 L139.633862,36.0353357 L140,34 L127.920326,34 L128.470351,34.8056537 L125.86968,46 L129.967378,46 Z" id="BUFF" fill="#FFFFFF" fill-rule="nonzero"></path>
                <polygon id="路径备份" fill="#FFBB00" fill-rule="nonzero" points="17 11.7000025 11.657617 11.7000025 13.4474441 0 1 15.2999975 7.21016027 15.2999975 5.44745677 27"></polygon>
                <polygon id="路径备份-4" fill="#FFBB00" fill-rule="nonzero" points="74 65.3666683 70.6610107 65.3666683 71.7796526 58 64 67.6333317 67.8813502 67.6333317 66.7796605 75"></polygon>
                <g id="会员备份-2" transform="translate(10.000000, 10.000000)">
                    <path d="M57.9338378,22.1805887 C58.6286523,24.6681811 59,27.2907237 59,30 C59,38.0081289 55.7540644,45.2581289 50.5060967,50.5060967 C45.2581289,55.7540644 38.0081289,59 30,59 C28.5467005,59 27.1183585,58.8931638 25.7224133,58.6868548 L25.7224133,58.6868548 Z M17.8483369,3.66073039 L3.68652765,37.2940379 L17.8827707,39.3199152 L13.853824,54.0931825 C6.10176437,48.8874944 1,40.0396245 1,30 C1,23.8265427 2.92877469,18.103505 6.21710684,13.4010597 C9.14866489,9.20881541 13.1602075,5.82729656 17.8483369,3.66073039 L17.8483369,3.66073039 Z M35.3540009,2.948125 L26.4566622,26.0825681 L35.6589942,27.3961898 L34.5177717,28.6896026 L22.561598,26.6058668 L32.5239443,2.948125 L35.3540009,2.948125 Z M47.9167146,7.19505968 C51.227941,9.80022988 53.9580364,13.1109115 55.8801406,16.9006652 L55.8801406,16.9006652 L44.7921448,15.31635 Z" id="形状结合" stroke="#9CA5B3" stroke-width="2" fill="#9CA5B3"></path>
                    <mask id="mask-2" fill="white">
                        <use xlink:href="#path-1"></use>
                    </mask>
                    <use id="形状结合" fill="#FFBB00" xlink:href="#path-1"></use>
                </g>
            </g>
        </g>
    </g>
</svg>