<?xml version="1.0" encoding="UTF-8"?>
<svg width="16px" height="16px" viewBox="0 0 16 16" version="1.1" xmlns="http://www.w3.org/2000/svg" xmlns:xlink="http://www.w3.org/1999/xlink">
    <!-- Generator: Sketch 61 (89581) - https://sketch.com -->
    <title>矩形</title>
    <desc>Created with Sketch.</desc>
    <g id="不用页面" stroke="none" stroke-width="1" fill="none" fill-rule="evenodd">
        <g id="服务器ICON" transform="translate(-188.000000, -537.000000)">
            <g id="关闭麦克风" transform="translate(188.000000, 537.000000)">
                <rect id="矩形" x="0" y="0" width="16" height="16"></rect>
                <path d="M12.9107381,5.00633555 L12.9107381,6.60601996 C12.9107381,9.021871 11.1560474,11.0253544 8.85351684,11.4067263 L8.85351684,11.4067263 L8.85351684,13.604267 L11.2938339,14.6848757 L4.81861248,14.6848757 L7.25766213,13.6043221 L7.25766213,11.4067538 C6.60702285,11.2989357 5.99999887,11.0615133 5.46392044,10.7218074 L6.66503551,9.5627038 C7.0870566,9.76250106 7.55866172,9.87424069 8.05619563,9.87424069 C9.85816526,9.87424069 11.3174733,8.41060701 11.3174733,6.60601996 L11.3174733,6.60601996 L11.317,5.069 L11.382,5.006 L12.9107381,5.00633555 Z M10.213,6.135 L10.2138038,6.31312104 C10.2138038,7.50732578 9.24775539,8.47582625 8.05619563,8.47582625 C7.97167196,8.47582625 7.88829106,8.47096669 7.80631511,8.46151161 L10.213,6.135 Z M4.79447712,5.00633555 L4.79447712,6.60601996 C4.79447712,6.79621703 4.81070699,6.98262666 4.84185381,7.16393442 L3.54658998,8.4151888 C3.32300884,7.85597523 3.2,7.24544265 3.2,6.60601996 L3.2,6.60601996 L3.2,5.00633555 L4.79447712,5.00633555 Z M8.05619563,1.6 C8.74365128,1.6 9.35604388,1.9221154 9.75116239,2.42432033 L5.897,6.144 L5.89737522,3.76361442 C5.89737522,2.61972404 6.78076661,1.68458165 7.90190073,1.60542728 L8.05619563,1.6 Z" id="Combined-Shape" fill="#FFFFFF" fill-rule="nonzero"></path>
                <polygon id="Path" fill="#E44B4D" fill-rule="nonzero" transform="translate(7.955388, 6.241421) rotate(46.000000) translate(-7.955388, -6.241421) " points="7.53884767 -1.03921758 8.43840566 -1.03921758 8.37192881 13.5220598 7.47237081 13.5220598"></polygon>
            </g>
        </g>
    </g>
</svg>