<?xml version="1.0" encoding="UTF-8"?>
<svg width="16px" height="16px" viewBox="0 0 16 16" version="1.1" xmlns="http://www.w3.org/2000/svg" xmlns:xlink="http://www.w3.org/1999/xlink">
    <!-- Generator: Sketch 61 (89581) - https://sketch.com -->
    <title>box</title>
    <desc>Created with Sketch.</desc>
    <g id="不用页面" stroke="none" stroke-width="1" fill="none" fill-rule="evenodd">
        <g id="服务器ICON" transform="translate(-227.000000, -460.000000)">
            <g id="home_ic_headset" transform="translate(227.000000, 460.000000)">
                <rect id="box" x="0" y="0" width="16" height="16"></rect>
                <path d="M12.4425752,4.01035895 C13.3501568,5.40696566 13.688895,7.2559765 13.3056452,8.83346646 L13.3056452,8.83346646 L13.1405367,9.5089103 C13.1382016,9.57142587 13.1228658,9.63276901 13.0955071,9.68902866 L13.0955071,9.68902866 L12.119866,13.6966621 L12.119866,13.7416917 C12.0602482,13.9313204 11.8833435,14.0594237 11.68458,14.0569355 L11.68458,14.0569355 L9.65824845,14.0569355 C9.4095569,14.0569355 9.20795256,13.8552945 9.20795256,13.6066029 L9.20795256,13.6066029 L9.20795256,9.49390044 C9.20795256,9.24520888 9.4095569,9.04360454 9.65824845,9.04360454 L9.65824845,9.04360454 L11.9725389,9.04360454 L12.0776079,8.62332838 C12.3934247,7.28669096 12.2698901,5.90443286 11.5927271,4.83189958 Z M6.656,9.598 L6.65627583,13.6066029 C6.65627583,13.8552945 6.45467149,14.0569355 6.20597994,14.0569355 L6.20597994,14.0569355 L4.16463855,14.0569355 C3.95113645,14.0503051 3.76764184,13.9035095 3.71434266,13.6966621 L3.71434266,13.6966621 L3.468,12.676 L6.656,9.598 Z M4.73501335,2.62057616 C6.33765255,1.47998782 8.39776507,1.29579173 10.1477984,2.06619035 L9.09995336,3.07843461 C7.79877093,2.73598642 6.38075218,2.97107483 5.23151157,3.77893031 C3.78452626,4.80732352 3.34940266,6.58022523 3.67959358,8.31247168 L2.671,9.286 L2.5585832,8.83346646 C2.03904753,6.71714425 2.82031085,4.1112465 4.54646844,2.76042498 Z" id="形状结合" fill="#FFFFFF" fill-rule="nonzero"></path>
                <polygon id="Path" fill="#E44B4D" fill-rule="nonzero" transform="translate(7.172785, 6.957191) rotate(46.000000) translate(-7.172785, -6.957191) " points="6.75624471 -0.323447871 7.6558027 -0.323447871 7.58932585 14.2378295 6.68976785 14.2378295"></polygon>
            </g>
        </g>
    </g>
</svg>